<svg width="169" height="135" viewBox="0 0 169 135" fill="none" xmlns="http://www.w3.org/2000/svg">
<path d="M164.672 61.8256C170.131 64.9765 170.189 70.1112 164.73 73.2038L62.3016 132.37C56.9014 135.521 47.9792 135.521 42.5202 132.37L-60.6129 73.2038C-66.0718 70.0529 -66.1305 64.9181 -60.6716 61.8256L41.7572 2.60065C47.1574 -0.550233 56.0796 -0.550233 61.5385 2.60065L164.672 61.8256ZM70.3433 99.6362C77.4458 98.0024 81.9069 94.8515 84.5483 90.8254C85.9571 88.6664 86.8376 86.4491 88.0115 84.2318C89.8312 80.8476 93.764 78.5719 99.4577 77.3466C102.686 76.6464 106.091 76.2963 109.554 76.3546C111.55 76.413 112.43 75.9462 112.606 74.7792C113.487 70.0529 114.308 65.3849 115.189 60.6586C115.306 60.0751 115.072 59.6083 114.543 59.3165C114.074 59.0248 113.311 58.9081 112.313 58.8497C110.493 58.7914 108.673 58.7914 106.854 58.6163C102.334 58.2079 98.4599 57.216 95.5249 55.5238C93.8814 54.5902 92.59 53.4232 91.5921 52.0228C90.1247 49.9806 90.1834 47.88 90.5943 45.7211C90.7117 45.0792 90.4769 44.6124 89.9486 44.2623C89.4203 43.9706 88.5398 43.7955 87.4832 43.8539C85.8397 43.9122 84.1961 44.0289 82.5526 43.9706C77.7393 43.8539 73.8065 42.9203 70.7542 41.1698C69.4628 40.4112 68.3476 39.536 67.3497 38.5441C65.2365 36.3268 64.6496 33.8761 64.6496 31.4254C64.6496 30.8419 64.4148 30.3751 63.9452 30.1417C63.4169 29.85 62.5951 29.7332 61.4798 29.7916C53.4382 30.3167 45.3965 30.7835 37.3548 31.3087C34.9482 31.4837 34.3025 31.8338 34.3612 33.2342C34.4786 35.2181 33.8916 37.1437 32.6589 38.9525C30.9567 41.5199 28.1391 43.6205 23.7368 44.7875C21.154 45.4877 18.3365 45.8961 15.5777 46.3629C9.53173 47.2965 3.72059 48.5219 -0.740494 51.2643C-6.08205 54.3568 -8.31259 58.1496 -7.37341 62.5841C-6.55164 66.5519 -3.85151 70.1112 0.0812836 73.3788C5.54024 77.9301 8.94475 82.8898 10.647 88.3163C10.8818 88.9582 11.0579 89.3666 11.5275 89.6C11.9971 89.8334 12.6427 89.9501 13.8167 90.1252C22.6802 91.0588 31.0154 92.7509 38.5288 95.7267C42.9898 97.4772 47.7444 98.936 53.0273 99.8112C58.8384 100.745 64.6496 100.92 70.3433 99.6362Z" fill="#E8254E"/>
</svg>
