<svg width="140" height="122" viewBox="0 0 140 122" fill="none" xmlns="http://www.w3.org/2000/svg">
<path d="M206.199 55.4625C211.102 58.2991 211.155 62.9217 206.252 65.7058L114.253 118.971C109.402 121.808 101.388 121.808 96.4853 118.971L3.85322 65.7058C-1.0499 62.8692 -1.10262 58.2465 3.8005 55.4625L95.8 2.14438C100.65 -0.69225 108.664 -0.69225 113.567 2.14438L206.199 55.4625ZM109.771 90.7102C111.3 91.1829 112.882 91.6032 114.411 92.0759C114.622 91.8658 114.78 91.7608 114.938 91.6032C116.678 89.607 118.365 87.6109 120.157 85.6673C120.421 85.4046 120.421 85.247 120.21 85.0894C120.105 85.0369 119.947 84.9844 119.788 84.9319C116.52 83.9338 113.356 82.9357 110.088 81.9902C109.929 81.9376 109.771 81.8851 109.718 81.8326C109.508 81.7275 109.508 81.5699 109.666 81.3073C110.826 79.7314 111.986 78.208 113.145 76.6321C116.572 72.0094 119.947 67.3868 123.373 62.7641C126.695 58.2991 130.016 53.834 133.285 49.369C135.289 46.6374 137.292 43.9584 139.295 41.2268C139.506 40.9116 139.612 40.7015 139.137 40.4388C136.659 39.0205 134.234 37.6547 131.809 36.2364C129.384 34.8181 126.959 33.4523 124.533 32.034C124.006 31.7714 123.742 31.7714 123.215 32.034C120.368 33.715 117.521 35.3434 114.622 37.0244C114.094 37.3396 114.094 37.4972 114.569 37.8123C115.412 38.2851 116.203 38.7053 116.941 39.1781C117.31 39.3882 117.732 39.6509 118.101 39.861C119.261 40.5439 120.474 41.2268 121.634 41.9097C122.108 42.1723 122.161 42.3825 121.844 42.6976C119.894 44.8514 118.049 47.0576 116.098 49.2114C115.571 49.7892 115.254 50.4196 113.62 50.6297C107.61 51.26 101.705 52.1005 95.7472 52.8359C90.3169 53.5188 84.8866 54.1492 79.4035 54.8321C72.2333 55.7251 65.1159 56.6181 57.9457 57.5111C55.5733 57.8263 53.2008 58.089 50.8283 58.4041C50.7756 58.4567 50.7229 58.5092 50.7229 58.6143C52.0409 59.3497 53.3062 60.1376 54.6243 60.8731C57.2076 62.3964 59.8437 63.8673 62.4798 65.3381C62.7434 65.4957 63.2706 65.5482 63.6397 65.5482C68.7537 65.0229 73.815 64.4451 78.929 63.8673C87.3118 62.9217 95.6418 62.0287 104.025 61.0832C105.184 60.9781 106.397 60.8205 107.662 60.7155C107.557 60.9256 107.557 61.0306 107.451 61.0832C105.975 63.0793 104.446 65.128 102.97 67.1241C98.6997 72.9025 94.3765 78.7333 90.106 84.5116C89.9478 84.7217 89.9478 84.8268 90.106 84.9319C90.1587 84.9844 90.2642 85.0369 90.4223 85.0369C93.7438 85.9825 97.0126 86.9805 100.334 87.9786C103.497 88.8191 106.608 89.7646 109.771 90.7102Z" fill="#E8254E"/>
</svg>
