<svg width="184" height="204" viewBox="0 0 184 204" fill="none" xmlns="http://www.w3.org/2000/svg">
<path d="M345.433 93.1665C353.651 97.9329 353.739 105.7 345.521 110.379L191.318 199.882C183.188 204.648 169.756 204.648 161.538 199.882L6.27399 110.379C-1.94429 105.612 -2.03266 97.8446 6.18562 93.1665L160.389 3.57484C168.519 -1.19161 181.951 -1.19161 190.169 3.57484L345.433 93.1665ZM225.693 140.478C226.754 139.86 227.726 139.242 228.786 138.713C228.609 135.27 228.786 131.916 228.079 128.474C227.726 126.796 227.814 125.737 230.377 124.59C241.865 119.647 252.999 114.527 264.575 109.673C271.026 107.024 272.97 103.582 271.468 99.3452C269.082 92.4603 263.073 86.5464 256.446 80.8973C252.115 77.19 247.255 73.6593 242.66 70.1286C236.209 66.4214 229.758 62.7141 223.307 59.0069C217.033 56.3589 211.112 53.3578 204.485 51.1511C195.648 48.15 186.634 45.3254 177.091 43.207C165.779 40.7355 160.919 41.883 153.673 47.4438C129.813 65.5387 106.131 83.7218 82.271 101.817C79.1781 104.2 78.7363 106.848 80.6804 109.231C84.3918 113.821 88.1917 118.499 93.2287 122.56C98.8843 127.149 105.158 131.475 111.963 135.447C121.772 141.096 132.729 146.039 145.013 150.099C147.045 150.805 149.166 151.335 151.287 151.864C158.621 153.806 165.161 153.895 171.965 150.54C182.481 145.421 193.881 140.919 204.662 135.976C207.578 134.652 209.345 134.564 211.201 135.623C211.643 135.888 212.084 136.153 212.526 136.594C213.498 137.389 214.559 138.183 215.708 138.889C218.359 140.213 221.363 141.096 225.693 140.478Z" fill="#E8254E"/>
</svg>
