<svg width="210" height="122" viewBox="0 0 210 122" fill="none" xmlns="http://www.w3.org/2000/svg">
<path d="M206.199 55.4624C211.103 58.299 211.155 62.9217 206.252 65.7058L114.253 118.971C109.402 121.808 101.389 121.808 96.4855 118.971L3.85334 65.7058C-1.04979 62.8692 -1.10251 58.2465 3.80062 55.4624L95.8001 2.14435C100.65 -0.69228 108.664 -0.69228 113.567 2.14435L206.199 55.4624ZM109.771 90.7101C111.3 91.1829 112.882 91.6031 114.411 92.0759C114.622 91.8658 114.78 91.7607 114.938 91.6031C116.678 89.607 118.365 87.6109 120.158 85.6672C120.421 85.4046 120.421 85.247 120.21 85.0894C120.105 85.0369 119.947 84.9844 119.788 84.9318C116.52 83.9338 113.356 82.9357 110.088 81.9901C109.93 81.9376 109.771 81.8851 109.719 81.8325C109.508 81.7275 109.508 81.5699 109.666 81.3072C110.826 79.7313 111.986 78.208 113.146 76.6321C116.572 72.0094 119.947 67.3868 123.374 62.7641C126.695 58.299 130.016 53.834 133.285 49.3689C135.289 46.6374 137.292 43.9583 139.296 41.2268C139.506 40.9116 139.612 40.7015 139.137 40.4388C136.659 39.0205 134.234 37.6547 131.809 36.2364C129.384 34.8181 126.959 33.4523 124.533 32.034C124.006 31.7713 123.743 31.7713 123.215 32.034C120.368 33.715 117.521 35.3434 114.622 37.0243C114.095 37.3395 114.095 37.4971 114.569 37.8123C115.413 38.2851 116.203 38.7053 116.941 39.1781C117.311 39.3882 117.732 39.6509 118.101 39.861C119.261 40.5439 120.474 41.2268 121.634 41.9096C122.108 42.1723 122.161 42.3824 121.845 42.6976C119.894 44.8513 118.049 47.0576 116.098 49.2113C115.571 49.7892 115.254 50.4195 113.62 50.6297C107.61 51.26 101.705 52.1005 95.7473 52.8359C90.317 53.5188 84.8867 54.1492 79.4036 54.8321C72.2334 55.7251 65.116 56.6181 57.9459 57.5111C55.5734 57.8263 53.2009 58.0889 50.8284 58.4041C50.7757 58.4566 50.723 58.5092 50.723 58.6142C52.041 59.3497 53.3063 60.1376 54.6244 60.873C57.2077 62.3964 59.8438 63.8672 62.4799 65.3381C62.7435 65.4957 63.2708 65.5482 63.6398 65.5482C68.7538 65.0229 73.8151 64.4451 78.9291 63.8672C87.3119 62.9217 95.6419 62.0287 104.025 61.0831C105.185 60.9781 106.397 60.8205 107.662 60.7154C107.557 60.9256 107.557 61.0306 107.452 61.0831C105.975 63.0793 104.446 65.128 102.97 67.1241C98.6998 72.9024 94.3766 78.7333 90.1061 84.5116C89.948 84.7217 89.948 84.8268 90.1061 84.9318C90.1588 84.9844 90.2643 85.0369 90.4225 85.0369C93.7439 85.9824 97.0127 86.9805 100.334 87.9786C103.497 88.819 106.608 89.7646 109.771 90.7101Z" fill="#E8254E"/>
</svg>
