<svg width="216" height="204" viewBox="0 0 216 204" fill="none" xmlns="http://www.w3.org/2000/svg">
<path d="M209.433 93.1665C217.651 97.9329 217.74 105.7 209.521 110.379L55.3181 199.882C47.1881 204.648 33.7561 204.648 25.5378 199.882L-129.726 110.379C-137.944 105.612 -138.032 97.8446 -129.814 93.1665L24.389 3.57484C32.519 -1.19161 45.951 -1.19161 54.1693 3.57484L209.433 93.1665ZM89.6934 140.478C90.7539 139.86 91.7259 139.242 92.7863 138.713C92.6096 135.27 92.7863 131.916 92.0794 128.474C91.7259 126.796 91.8143 125.737 94.377 124.59C105.865 119.647 116.999 114.527 128.576 109.673C135.027 107.024 136.971 103.582 135.468 99.3452C133.082 92.4603 127.073 86.5464 120.446 80.8973C116.116 77.19 111.255 73.6593 106.66 70.1286C100.209 66.4214 93.7584 62.7141 87.3075 59.0069C81.0333 56.3589 75.1126 53.3578 68.485 51.1511C59.6481 48.15 50.6345 45.3254 41.0907 43.207C29.7795 40.7355 24.9192 41.883 17.673 47.4438C-6.18651 65.5387 -29.8693 83.7218 -53.7288 101.817C-56.8217 104.2 -57.2636 106.848 -55.3195 109.231C-51.608 113.821 -47.8081 118.499 -42.7711 122.56C-37.1155 127.149 -30.8414 131.475 -24.037 135.447C-14.2281 141.096 -3.27034 146.039 9.01289 150.099C11.0454 150.805 13.1662 151.335 15.2871 151.864C22.6217 153.806 29.1609 153.895 35.9653 150.54C46.4812 145.421 57.8807 140.919 68.6617 135.976C71.5779 134.652 73.3452 134.564 75.201 135.623C75.6428 135.888 76.0847 136.153 76.5265 136.594C77.4986 137.389 78.559 138.183 79.7078 138.889C82.3589 140.213 85.3634 141.096 89.6934 140.478Z" fill="#E8254E"/>
</svg>
