<svg width="234" height="135" viewBox="0 0 234 135" fill="none" xmlns="http://www.w3.org/2000/svg">
<path d="M229.672 61.8256C235.131 64.9765 235.189 70.1112 229.73 73.2038L127.302 132.37C121.901 135.521 112.979 135.521 107.52 132.37L4.3871 73.2038C-1.07185 70.0529 -1.13055 64.9181 4.3284 61.8256L106.757 2.60065C112.157 -0.550233 121.08 -0.550233 126.539 2.60065L229.672 61.8256ZM135.343 99.6362C142.446 98.0024 146.907 94.8515 149.548 90.8254C150.957 88.6664 151.838 86.4491 153.012 84.2318C154.831 80.8476 158.764 78.5719 164.458 77.3466C167.686 76.6464 171.091 76.2963 174.554 76.3546C176.55 76.413 177.43 75.9462 177.606 74.7792C178.487 70.0529 179.308 65.3849 180.189 60.6586C180.306 60.0751 180.071 59.6083 179.543 59.3165C179.074 59.0248 178.311 58.9081 177.313 58.8497C175.493 58.7914 173.673 58.7914 171.854 58.6163C167.334 58.2079 163.46 57.216 160.525 55.5238C158.881 54.5902 157.59 53.4232 156.592 52.0228C155.125 49.9806 155.183 47.88 155.594 45.7211C155.712 45.0792 155.477 44.6124 154.949 44.2623C154.42 43.9706 153.54 43.7955 152.483 43.8539C150.84 43.9122 149.196 44.0289 147.553 43.9706C142.739 43.8539 138.806 42.9203 135.754 41.1698C134.463 40.4112 133.348 39.536 132.35 38.5441C130.237 36.3268 129.65 33.8761 129.65 31.4254C129.65 30.8419 129.415 30.3751 128.945 30.1417C128.417 29.85 127.595 29.7332 126.48 29.7916C118.438 30.3167 110.396 30.7835 102.355 31.3087C99.9481 31.4837 99.3025 31.8338 99.3612 33.2342C99.4786 35.2181 98.8916 37.1437 97.6589 38.9525C95.9566 41.5199 93.1391 43.6205 88.7367 44.7875C86.154 45.4877 83.3365 45.8961 80.5777 46.3629C74.5317 47.2965 68.7206 48.5219 64.2595 51.2643C58.9179 54.3568 56.6874 58.1496 57.6266 62.5841C58.4484 66.5519 61.1485 70.1112 65.0813 73.3788C70.5402 77.9301 73.9447 82.8898 75.647 88.3163C75.8818 88.9582 76.0579 89.3666 76.5275 89.6C76.9971 89.8334 77.6427 89.9501 78.8167 90.1252C87.6802 91.0588 96.0154 92.7509 103.529 95.7267C107.99 97.4772 112.744 98.936 118.027 99.8112C123.838 100.745 129.65 100.92 135.343 99.6362Z" fill="#E8254E"/>
</svg>
