<svg width="395" height="266" viewBox="0 0 395 266" fill="none" xmlns="http://www.w3.org/2000/svg">
<path d="M191.549 1.60543C228.521 -3.57336 257.546 10.4439 277.38 40.2047C279.937 44.1406 282.148 45.6597 286.156 45.0382C287.124 44.9001 288.161 44.693 289.266 44.2787C294.449 42.6215 299.563 41.4476 304.608 40.7571C347.178 34.7497 384.496 60.6437 393.341 104.284C400.805 141.295 381.04 188.456 348.215 212.21C330.938 224.708 312.21 232.925 292.307 238.449C302.535 231.475 312.763 224.984 322.23 217.596C338.747 204.959 352.43 189.423 362.381 170.641C380.902 135.771 378.276 100.348 355.263 77.1467C342.34 64.1652 322.714 58.8483 303.157 61.6104C293.413 62.9914 283.669 66.3749 274.823 71.8298C273.095 72.7966 271.437 73.8323 269.502 75.0752C262.038 50.4242 247.249 33.0925 223.684 25.0826C213.11 21.6301 202.26 20.5943 191.065 22.1825C185.813 22.9421 180.492 24.254 175.101 26.1184C134.743 40.3428 112.836 73.1418 108.62 123.687C101.088 122.72 93.8316 120.994 86.0225 121.063C83.8802 121.063 81.7378 121.27 79.5955 121.546C52.5056 125.344 27.2815 150.478 22.3058 179.687C16.9155 211.726 35.0906 240.382 64.4611 243.559C71.7173 244.318 78.8354 244.318 85.6769 243.351C102.401 241.004 117.812 232.925 131.84 215.938C161.556 180.239 187.817 142.261 212.005 102.626C212.488 101.798 213.249 100.693 213.732 99.8644C216.082 96.2047 219.606 93.7189 222.647 93.3046C224.029 93.0974 225.342 93.3046 226.379 94.0641C230.733 97.2404 230.249 101.867 227.83 106.977C216.842 128.935 205.647 150.686 194.659 172.644C193.415 175.06 192.24 177.546 191.964 180.308C200.256 170.089 208.273 159.593 216.773 149.857C221.403 144.678 226.517 139.637 232.115 135.356C235.639 132.594 239.164 131.075 242.343 130.661C250.359 129.556 256.44 135.218 256.648 145.783C256.855 159.869 254.644 174.025 249.253 187.904C246.074 195.914 242.895 204.2 239.716 212.21C240.2 212.417 240.684 212.555 240.96 212.762C246.074 205.512 251.188 198.192 256.302 191.218C260.932 185.004 265.079 178.375 269.916 172.436C273.233 168.293 277.173 164.979 281.734 164.358C283.185 164.15 284.636 164.219 286.226 164.565C292.514 165.946 293.965 171.263 294.449 177.546C294.933 183.001 295.624 188.732 296.384 194.187C297.283 200.954 300.6 204.338 305.852 203.578C307.51 203.371 309.376 202.681 311.38 201.645C319.397 197.502 327.206 192.392 335.222 187.697C335.499 188.18 335.983 188.318 336.19 188.801C327.413 196.328 319.12 204.545 309.929 211.381C305.99 214.212 302.189 215.8 298.803 216.284C290.096 217.526 283.738 211.312 282.77 199.297C282.286 194.326 281.803 189.63 280.835 182.656C276.689 188.525 273.786 192.944 270.331 197.226C259.619 211.588 248.631 225.744 237.712 239.83C236.261 241.832 234.326 243.075 232.115 244.387C230.387 245.423 228.728 246.044 227.139 246.321C221.887 247.08 217.602 243.49 217.81 237.068C218.086 230.991 219.261 224.777 221.265 218.977C225.204 207.1 229.834 195.085 234.188 183.139C238.127 172.022 240.062 160.629 239.578 147.371C234.257 152.895 229.627 156.831 225.964 161.665C209.171 183.416 192.862 205.374 176.276 227.332C172.614 232.096 169.227 236.861 165.565 241.694C164.113 243.42 162.662 245.63 160.934 246.39C158.723 247.218 156.166 248.254 153.816 248.599C152.78 248.737 151.812 248.737 150.983 248.599C146.629 247.978 146.353 243.213 147.873 239.485C150.568 231.82 153.747 224.57 156.926 217.043C157.686 215.179 158.861 213.729 158.861 210.967C157.134 212.693 155.682 214.419 154.024 216.215C143.589 229.058 132.324 241.211 118.71 250.671C106.824 258.75 94.2462 263.514 81.807 265.24C44.2818 270.488 8.55351 248.047 1.85013 207.721C-6.09718 158.143 31.5661 107.46 80.563 100.555C81.7378 100.417 82.9127 100.279 84.1566 100.141C86.368 99.8644 88.5103 99.5191 90.7218 99.2429C94.3844 89.6449 97.0796 79.7016 101.433 70.5179C120.438 31.7805 150.361 7.95808 189.959 1.88164C190.512 1.74353 190.996 1.67448 191.549 1.60543Z" fill="#F0F0F0"/>
</svg>
