<svg width="62" height="63" viewBox="0 0 62 63" fill="none" xmlns="http://www.w3.org/2000/svg">
<path fill-rule="evenodd" clip-rule="evenodd" d="M44.693 0.835938C55.0447 0.835938 62 8.10235 62 18.9163V44.1176C62 54.9316 55.0447 62.198 44.693 62.198H17.9449C7.59323 62.198 0.637909 54.9316 0.637909 44.1176V18.9163C0.637909 8.10235 7.59323 0.835938 17.9449 0.835938H44.693ZM44.693 5.11701H17.9449C10.0334 5.11701 4.91898 10.5311 4.91898 18.9163V44.1176C4.91898 52.5028 10.0334 57.917 17.9449 57.917H44.693C52.6073 57.917 57.7189 52.5028 57.7189 44.1176V18.9163C57.7189 10.5311 52.6073 5.11701 44.693 5.11701ZM18.1078 24.2463C19.2894 24.2463 20.2484 25.2052 20.2484 26.3868V45.9656C20.2484 47.1472 19.2894 48.1062 18.1078 48.1062C16.9263 48.1062 15.9673 47.1472 15.9673 45.9656V26.3868C15.9673 25.2052 16.9263 24.2463 18.1078 24.2463ZM31.4277 14.8736C32.6093 14.8736 33.5682 15.8325 33.5682 17.0141V45.9628C33.5682 47.1443 32.6093 48.1033 31.4277 48.1033C30.2461 48.1033 29.2872 47.1443 29.2872 45.9628V17.0141C29.2872 15.8325 30.2461 14.8736 31.4277 14.8736ZM44.5286 34.5922C45.7102 34.5922 46.6692 35.5512 46.6692 36.7328V45.9628C46.6692 47.1443 45.7102 48.1033 44.5286 48.1033C43.3471 48.1033 42.3881 47.1443 42.3881 45.9628V36.7328C42.3881 35.5512 43.3471 34.5922 44.5286 34.5922Z" fill="white"/>
</svg>
