<svg width="21" height="21" viewBox="0 0 21 21" fill="none" xmlns="http://www.w3.org/2000/svg">
<path fill-rule="evenodd" clip-rule="evenodd" d="M2.96624 3.48668C2.96819 3.48668 2.91941 3.53741 2.85795 3.5979C2.62186 3.82716 2.13309 4.30422 2.12816 5.30225C2.12041 6.69831 3.03843 9.29044 7.45881 13.7098C11.8587 18.1078 14.4469 19.0365 15.8459 19.0365H15.8664C16.8644 19.0317 17.3405 18.5419 17.5707 18.3068C17.641 18.2346 17.6976 18.1819 17.7376 18.1487C18.7093 17.1712 19.2068 16.4434 19.202 15.9771C19.1951 15.501 18.6029 14.9381 17.7844 14.1596C17.5239 13.9118 17.241 13.6425 16.9425 13.344C16.1688 12.5723 15.7854 12.704 14.9425 13.0006C13.7767 13.4094 12.1767 13.9654 9.69095 11.4787C7.20125 8.99093 7.75831 7.39292 8.16611 6.2271C8.46073 5.38419 8.59536 4.99981 7.82075 4.2252C7.51734 3.92277 7.24516 3.63595 6.99443 3.37254C6.22079 2.5589 5.66276 1.97062 5.1896 1.96379H5.18179C4.71449 1.96379 3.98865 2.46329 2.96136 3.49058C2.96429 3.48766 2.96527 3.48668 2.96624 3.48668ZM15.8469 20.4999C13.4157 20.4999 10.2461 18.5643 6.42469 14.7449C2.58869 10.9099 0.650203 7.73048 0.664754 5.29444C0.673617 3.68473 1.5175 2.86036 1.83456 2.5511C1.85115 2.53061 1.90773 2.475 1.92724 2.45549C3.32623 1.05552 4.26962 0.489686 5.20813 0.500268C6.29786 0.515051 7.07345 1.33064 8.05489 2.36378C8.29781 2.61939 8.56122 2.89743 8.85487 3.1901C10.2792 4.61446 9.87338 5.77638 9.54754 6.70904C9.19242 7.72657 8.88511 8.6046 10.7251 10.4446C12.567 12.2845 13.445 11.9772 14.4586 11.6192C15.3923 11.2933 16.5513 10.8855 17.9776 12.3099C18.2663 12.5986 18.5405 12.8591 18.7932 13.1001C19.8312 14.0864 20.6507 14.8659 20.6645 15.9586C20.676 16.8902 20.1102 17.8395 18.7132 19.2375L18.0946 18.818L18.6175 19.3292C18.3083 19.6463 17.4849 20.4911 15.8742 20.4999H15.8469Z" fill="white"/>
</svg>
