<svg width="30" height="31" viewBox="0 0 30 31" fill="none" xmlns="http://www.w3.org/2000/svg">
<path fill-rule="evenodd" clip-rule="evenodd" d="M8.052 10.177C8.673 10.177 9.177 10.681 9.177 11.302C9.177 11.923 8.673 12.427 8.052 12.427H6.6525C4.224 12.427 2.25 14.401 2.25 16.828V24.1405C2.25 26.569 4.224 28.543 6.6525 28.543H23.3475C25.7745 28.543 27.75 26.569 27.75 24.1405V16.8145C27.75 14.395 25.782 12.427 23.364 12.427H21.9495C21.3285 12.427 20.8245 11.923 20.8245 11.302C20.8245 10.681 21.3285 10.177 21.9495 10.177H23.364C27.0225 10.177 30 13.1545 30 16.8145V24.1405C30 27.8095 27.015 30.793 23.3475 30.793H6.6525C2.985 30.793 0 27.8095 0 24.1405V16.828C0 13.1605 2.985 10.177 6.6525 10.177H8.052ZM15.7959 0.318375L20.1699 4.71037C20.6079 5.15137 20.6064 5.86238 20.1669 6.30037C19.7259 6.73838 19.0149 6.73837 18.5769 6.29737L16.1235 3.8355L16.1244 20.2973H13.8744L13.8735 3.8355L11.4234 6.29737C11.2044 6.51937 10.9149 6.62887 10.6269 6.62887C10.3404 6.62887 10.0524 6.51938 9.8334 6.30037C9.3939 5.86238 9.3909 5.15137 9.8304 4.71037L14.2029 0.318375C14.6244 -0.106125 15.3744 -0.106125 15.7959 0.318375Z" fill="white"/>
</svg>
