<svg width="31" height="38" viewBox="0 0 31 38" fill="none" xmlns="http://www.w3.org/2000/svg">
<path fill-rule="evenodd" clip-rule="evenodd" d="M15.4645 0C17.53 0 28.3679 3.72079 29.8026 5.15551C30.9985 6.35141 30.9803 7.31762 30.8964 11.9481C30.8636 13.8039 30.818 16.3325 30.818 19.8327C30.818 32.3787 16.4708 36.867 15.8601 37.0511C15.7307 37.0912 15.5976 37.1095 15.4645 37.1095C15.3314 37.1095 15.1983 37.0912 15.0689 37.0511C14.4582 36.867 0.111005 32.3787 0.111005 19.8327C0.111005 16.3379 0.0654295 13.8094 0.032615 11.9536C0.0176402 11.1257 0.00475812 10.4149 0.000519037 9.79888L0 9.10375C0.0156381 6.82016 0.229957 6.05244 1.12825 5.15551C2.55933 3.72079 13.3972 0 15.4645 0ZM15.4645 2.73454C13.9186 2.73454 4.16541 6.16911 3.0406 7.10797C2.70881 7.44158 2.69605 8.0213 2.76715 11.9025C2.79997 13.7729 2.84554 16.3142 2.84554 19.8327C2.84554 29.3142 13.2769 33.5236 15.4627 34.2984C17.6467 33.5199 28.0835 29.2869 28.0835 19.8327C28.0835 16.3106 28.1291 13.7675 28.1637 11.8971C28.233 8.01948 28.2202 7.43976 27.8684 7.08974C26.7654 6.16911 17.0104 2.73454 15.4645 2.73454ZM22.2489 13.3801C22.783 13.9142 22.783 14.7802 22.2489 15.3143L15.1427 22.4223C14.9386 22.6279 14.6749 22.7612 14.3918 22.8063L14.1765 22.8233C13.8138 22.8233 13.4656 22.6793 13.2085 22.4223L9.75936 18.9695C9.22704 18.4353 9.22704 17.5676 9.76118 17.0352C10.2935 16.5011 11.1613 16.5011 11.6954 17.0352L14.1765 19.52L20.3165 13.3801C20.8506 12.8459 21.7148 12.8459 22.2489 13.3801Z" fill="white"/>
</svg>
