<svg width="130" height="45" viewBox="0 0 130 45" fill="none" xmlns="http://www.w3.org/2000/svg">
<rect x="1.16467" y="0.5" width="128" height="44" rx="2.5" fill="#F22751"/>
<path fill-rule="evenodd" clip-rule="evenodd" d="M22.9662 15.4867C22.9682 15.4867 22.9194 15.5374 22.858 15.5979C22.6219 15.8272 22.1331 16.3042 22.1282 17.3022C22.1204 18.6983 23.0384 21.2904 27.4588 25.7098C31.8587 30.1078 34.4469 31.0365 35.8459 31.0365H35.8664C36.8644 31.0317 37.3405 30.5419 37.5707 30.3068C37.641 30.2346 37.6976 30.1819 37.7376 30.1487C38.7093 29.1712 39.2068 28.4434 39.202 27.9771C39.1951 27.501 38.6029 26.9381 37.7844 26.1596C37.5239 25.9118 37.241 25.6425 36.9425 25.344C36.1688 24.5723 35.7854 24.704 34.9425 25.0006C33.7767 25.4094 32.1767 25.9654 29.6909 23.4787C27.2013 20.9909 27.7583 19.3929 28.1661 18.2271C28.4607 17.3842 28.5954 16.9998 27.8207 16.2252C27.5173 15.9228 27.2452 15.6359 26.9944 15.3725C26.2208 14.5589 25.6628 13.9706 25.1896 13.9638H25.1818C24.7145 13.9638 23.9887 14.4633 22.9614 15.4906C22.9643 15.4877 22.9653 15.4867 22.9662 15.4867ZM35.8469 32.4999C33.4157 32.4999 30.2461 30.5643 26.4247 26.7449C22.5887 22.9099 20.6502 19.7305 20.6648 17.2944C20.6736 15.6847 21.5175 14.8604 21.8346 14.5511C21.8511 14.5306 21.9077 14.475 21.9272 14.4555C23.3262 13.0555 24.2696 12.4897 25.2081 12.5003C26.2979 12.5151 27.0735 13.3306 28.0549 14.3638C28.2978 14.6194 28.5612 14.8974 28.8549 15.1901C30.2792 16.6145 29.8734 17.7764 29.5475 18.709C29.1924 19.7266 28.8851 20.6046 30.7251 22.4446C32.567 24.2845 33.445 23.9772 34.4586 23.6192C35.3923 23.2933 36.5513 22.8855 37.9776 24.3099C38.2663 24.5986 38.5405 24.8591 38.7932 25.1001C39.8312 26.0864 40.6507 26.8659 40.6645 27.9586C40.676 28.8902 40.1102 29.8395 38.7132 31.2375L38.0946 30.818L38.6175 31.3292C38.3083 31.6463 37.4849 32.4911 35.8742 32.4999H35.8469Z" fill="white"/>
<path d="M56.9207 28.24C56.0887 28.24 55.342 28.112 54.6807 27.856C54.0193 27.6 53.4593 27.2267 53.0007 26.736C52.542 26.2347 52.19 25.6267 51.9447 24.912C51.6993 24.1973 51.5767 23.376 51.5767 22.448C51.5767 21.52 51.7153 20.6987 51.9927 19.984C52.2807 19.2693 52.67 18.6667 53.1607 18.176C53.6513 17.6747 54.2273 17.296 54.8887 17.04C55.55 16.784 56.2593 16.656 57.0167 16.656C57.4753 16.656 57.8913 16.6933 58.2647 16.768C58.638 16.832 58.9633 16.9067 59.2407 16.992C59.518 17.0773 59.7473 17.168 59.9287 17.264C60.11 17.36 60.238 17.4293 60.3127 17.472L59.7207 19.12C59.4647 18.96 59.0967 18.8107 58.6167 18.672C58.1473 18.5227 57.6353 18.448 57.0807 18.448C56.6007 18.448 56.1527 18.5333 55.7367 18.704C55.3207 18.864 54.958 19.1093 54.6487 19.44C54.35 19.7707 54.1153 20.1867 53.9447 20.688C53.774 21.1893 53.6887 21.7707 53.6887 22.432C53.6887 23.0187 53.7527 23.5573 53.8807 24.048C54.0193 24.5387 54.2273 24.9653 54.5047 25.328C54.782 25.68 55.134 25.9573 55.5607 26.16C55.9873 26.352 56.4993 26.448 57.0967 26.448C57.8113 26.448 58.3927 26.3787 58.8407 26.24C59.2887 26.0907 59.6353 25.952 59.8807 25.824L60.4247 27.472C60.2967 27.5573 60.1207 27.6427 59.8967 27.728C59.6833 27.8133 59.4273 27.8987 59.1287 27.984C58.83 28.0587 58.494 28.1173 58.1207 28.16C57.7473 28.2133 57.3473 28.24 56.9207 28.24ZM69.4647 23.808C69.4647 24.4693 69.3687 25.072 69.1767 25.616C68.9847 26.16 68.7127 26.624 68.3607 27.008C68.0087 27.392 67.582 27.6907 67.0807 27.904C66.59 28.1173 66.046 28.224 65.4487 28.224C64.8513 28.224 64.3073 28.1173 63.8167 27.904C63.326 27.6907 62.9047 27.392 62.5527 27.008C62.2007 26.624 61.9233 26.16 61.7207 25.616C61.5287 25.072 61.4327 24.4693 61.4327 23.808C61.4327 23.1467 61.5287 22.5493 61.7207 22.016C61.9233 21.472 62.2007 21.008 62.5527 20.624C62.9153 20.24 63.342 19.9467 63.8327 19.744C64.3233 19.5307 64.862 19.424 65.4487 19.424C66.0353 19.424 66.574 19.5307 67.0647 19.744C67.566 19.9467 67.9927 20.24 68.3447 20.624C68.6967 21.008 68.9687 21.472 69.1607 22.016C69.3633 22.5493 69.4647 23.1467 69.4647 23.808ZM67.4807 23.808C67.4807 22.976 67.2993 22.32 66.9367 21.84C66.5847 21.3493 66.0887 21.104 65.4487 21.104C64.8087 21.104 64.3073 21.3493 63.9447 21.84C63.5927 22.32 63.4167 22.976 63.4167 23.808C63.4167 24.6507 63.5927 25.3173 63.9447 25.808C64.3073 26.2987 64.8087 26.544 65.4487 26.544C66.0887 26.544 66.5847 26.2987 66.9367 25.808C67.2993 25.3173 67.4807 24.6507 67.4807 23.808ZM71.4592 19.904C71.8325 19.7973 72.3178 19.696 72.9152 19.6C73.5125 19.504 74.1738 19.456 74.8992 19.456C75.5818 19.456 76.1525 19.552 76.6112 19.744C77.0698 19.9253 77.4325 20.1867 77.6992 20.528C77.9765 20.8587 78.1685 21.264 78.2752 21.744C78.3925 22.2133 78.4512 22.7307 78.4512 23.296V28H76.5152V23.6C76.5152 23.152 76.4832 22.7733 76.4192 22.464C76.3658 22.144 76.2698 21.888 76.1312 21.696C76.0032 21.4933 75.8218 21.3493 75.5872 21.264C75.3632 21.168 75.0858 21.12 74.7552 21.12C74.5098 21.12 74.2538 21.136 73.9872 21.168C73.7205 21.2 73.5232 21.2267 73.3952 21.248V28H71.4592V19.904ZM80.7225 17.424L82.6585 17.104V19.632H85.6345V21.248H82.6585V24.656C82.6585 25.328 82.7652 25.808 82.9785 26.096C83.1919 26.384 83.5545 26.528 84.0665 26.528C84.4185 26.528 84.7279 26.4907 84.9945 26.416C85.2719 26.3413 85.4905 26.272 85.6505 26.208L85.9705 27.744C85.7465 27.84 85.4532 27.936 85.0905 28.032C84.7279 28.1387 84.3012 28.192 83.8105 28.192C83.2132 28.192 82.7119 28.112 82.3065 27.952C81.9119 27.792 81.5972 27.5627 81.3625 27.264C81.1279 26.9547 80.9625 26.5867 80.8665 26.16C80.7705 25.7227 80.7225 25.2267 80.7225 24.672V17.424ZM90.45 26.64C91.0474 26.64 91.5007 26.608 91.81 26.544V24.4C91.7034 24.368 91.5487 24.336 91.346 24.304C91.1434 24.272 90.9194 24.256 90.674 24.256C90.4607 24.256 90.242 24.272 90.018 24.304C89.8047 24.336 89.6074 24.3947 89.426 24.48C89.2554 24.5653 89.1167 24.688 89.01 24.848C88.9034 24.9973 88.85 25.1893 88.85 25.424C88.85 25.8827 88.994 26.2027 89.282 26.384C89.57 26.5547 89.9594 26.64 90.45 26.64ZM90.29 19.424C90.93 19.424 91.4687 19.504 91.906 19.664C92.3434 19.824 92.69 20.048 92.946 20.336C93.2127 20.624 93.3994 20.976 93.506 21.392C93.6234 21.7973 93.682 22.2453 93.682 22.736V27.808C93.3834 27.872 92.93 27.9467 92.322 28.032C91.7247 28.128 91.0474 28.176 90.29 28.176C89.7887 28.176 89.33 28.128 88.914 28.032C88.498 27.936 88.1407 27.7813 87.842 27.568C87.554 27.3547 87.3247 27.0773 87.154 26.736C86.994 26.3947 86.914 25.9733 86.914 25.472C86.914 24.992 87.0047 24.5867 87.186 24.256C87.378 23.9253 87.634 23.6587 87.954 23.456C88.274 23.2427 88.642 23.0933 89.058 23.008C89.4847 22.912 89.9274 22.864 90.386 22.864C90.5994 22.864 90.8234 22.88 91.058 22.912C91.2927 22.9333 91.5434 22.976 91.81 23.04V22.72C91.81 22.496 91.7834 22.2827 91.73 22.08C91.6767 21.8773 91.5807 21.7013 91.442 21.552C91.314 21.392 91.138 21.2693 90.914 21.184C90.7007 21.0987 90.4287 21.056 90.098 21.056C89.65 21.056 89.2394 21.088 88.866 21.152C88.4927 21.216 88.1887 21.2907 87.954 21.376L87.714 19.808C87.9594 19.7227 88.3167 19.6373 88.786 19.552C89.2554 19.4667 89.7567 19.424 90.29 19.424ZM95.5889 23.824C95.5889 23.2053 95.6849 22.6293 95.8769 22.096C96.0689 21.552 96.3409 21.0827 96.6929 20.688C97.0556 20.2933 97.4929 19.984 98.0049 19.76C98.5169 19.536 99.0929 19.424 99.7329 19.424C100.522 19.424 101.269 19.568 101.973 19.856L101.557 21.44C101.333 21.344 101.077 21.264 100.789 21.2C100.512 21.136 100.213 21.104 99.8929 21.104C99.1356 21.104 98.5596 21.344 98.1649 21.824C97.7703 22.2933 97.5729 22.96 97.5729 23.824C97.5729 24.656 97.7596 25.3173 98.1329 25.808C98.5063 26.288 99.1356 26.528 100.021 26.528C100.352 26.528 100.677 26.496 100.997 26.432C101.317 26.368 101.594 26.288 101.829 26.192L102.101 27.792C101.888 27.8987 101.562 27.9947 101.125 28.08C100.698 28.1653 100.256 28.208 99.7969 28.208C99.0823 28.208 98.4583 28.1013 97.9249 27.888C97.4023 27.664 96.9649 27.36 96.6129 26.976C96.2716 26.5813 96.0156 26.1173 95.8449 25.584C95.6743 25.04 95.5889 24.4533 95.5889 23.824ZM103.504 17.424L105.44 17.104V19.632H108.416V21.248H105.44V24.656C105.44 25.328 105.546 25.808 105.76 26.096C105.973 26.384 106.336 26.528 106.848 26.528C107.2 26.528 107.509 26.4907 107.776 26.416C108.053 26.3413 108.272 26.272 108.432 26.208L108.752 27.744C108.528 27.84 108.234 27.936 107.872 28.032C107.509 28.1387 107.082 28.192 106.592 28.192C105.994 28.192 105.493 28.112 105.088 27.952C104.693 27.792 104.378 27.5627 104.144 27.264C103.909 26.9547 103.744 26.5867 103.648 26.16C103.552 25.7227 103.504 25.2267 103.504 24.672V17.424Z" fill="white"/>
<rect x="1.16467" y="0.5" width="128" height="44" rx="2.5" stroke="white"/>
</svg>
