<svg width="216" height="226" viewBox="0 0 216 226" fill="none" xmlns="http://www.w3.org/2000/svg">
<path d="M106.749 69.9521L106.66 91.5776C100.209 87.8704 93.7584 84.1632 87.3075 80.4559L87.3959 58.8304C93.8468 62.5376 100.298 66.2448 106.749 69.9521Z" fill="#CF2145"/>
<path d="M135.999 101.905L135.91 123.53C135.91 122.736 135.733 121.853 135.468 120.882C133.082 113.998 127.073 108.084 120.446 102.435C116.116 98.7273 111.255 95.1966 106.66 91.6659L106.749 70.0403C111.344 73.6593 116.116 77.19 120.534 80.809C127.25 86.4581 133.171 92.4603 135.557 99.2569C135.822 100.228 135.999 101.022 135.999 101.905Z" fill="#CF2145"/>
<path d="M135.999 101.905L135.91 123.53C135.91 122.736 135.733 121.853 135.468 120.882C133.082 113.998 127.073 108.084 120.446 102.435C116.116 98.7273 111.255 95.1966 106.66 91.6659L106.749 70.0403C111.344 73.6593 116.116 77.19 120.534 80.809C127.25 86.4581 133.171 92.4603 135.557 99.2569C135.822 100.228 135.999 101.022 135.999 101.905Z" fill="#CF2145"/>
<path d="M135.999 101.905L135.91 123.53C135.91 122.736 135.733 121.853 135.468 120.882C133.082 113.998 127.073 108.084 120.446 102.435C116.116 98.7273 111.255 95.1966 106.66 91.6659L106.749 70.0403C111.344 73.6593 116.116 77.19 120.534 80.809C127.25 86.4581 133.171 92.4603 135.557 99.2569C135.822 100.228 135.999 101.022 135.999 101.905Z" fill="#CF2145"/>
<path d="M87.3959 58.8304L87.3075 80.4559C82.4472 78.4258 77.7637 76.1308 72.7267 74.1889L72.8151 52.5634C77.8521 54.5052 82.5356 56.8002 87.3959 58.8304Z" fill="#CF2145"/>
<path d="M72.9034 52.5633L72.815 74.1889C71.4011 73.6593 69.9872 73.1297 68.485 72.6001C63.2712 70.8347 57.9691 69.1576 52.5786 67.5688L52.667 45.9433C58.0575 47.4438 63.3596 49.2092 68.5733 50.9745C70.0756 51.5041 71.4895 52.0337 72.9034 52.5633Z" fill="#D12246"/>
<path d="M52.667 45.9433L52.5786 67.5688C48.7788 66.5096 44.9789 65.5387 41.0907 64.656C40.8256 64.5677 40.4721 64.5677 40.207 64.4795L40.2954 42.8539C40.5605 42.9422 40.8256 42.9422 41.1791 43.0304C45.0673 43.9131 48.8672 44.8841 52.667 45.9433Z" fill="#D22246"/>
<path d="M40.2953 42.8539L40.207 64.4795C38.8814 64.2147 37.5559 63.9499 36.4071 63.7733L36.4955 42.1478C37.6443 42.4126 38.9698 42.5891 40.2953 42.8539Z" fill="#D42247"/>
<path d="M36.4955 42.236L36.4071 63.8616C35.6118 63.7733 34.8165 63.6851 34.1096 63.5968L34.1979 41.9712C34.9049 41.9712 35.7002 42.0595 36.4955 42.236Z" fill="#D52247"/>
<path d="M34.198 41.9712L34.1096 63.5968C33.491 63.5085 32.9608 63.5085 32.3422 63.5085L32.4306 41.883C33.0492 41.883 33.5794 41.883 34.198 41.9712Z" fill="#D62348"/>
<path d="M32.4306 41.883L32.3422 63.5085C31.812 63.5085 31.3702 63.5085 30.84 63.5085L30.9283 41.883C31.4585 41.883 31.9888 41.883 32.4306 41.883Z" fill="#D82348"/>
<path d="M31.0167 41.883L30.9283 63.5085C30.4864 63.5085 29.9562 63.5968 29.5144 63.5968L29.6028 41.9712C30.0446 41.883 30.5748 41.883 31.0167 41.883Z" fill="#D92349"/>
<path d="M29.6028 41.9712L29.5144 63.5968C28.9842 63.6851 28.5424 63.6851 28.0121 63.7733L28.1005 42.1478C28.6307 42.0595 29.0726 41.9712 29.6028 41.9712Z" fill="#DB2349"/>
<path d="M28.1005 42.1478L28.0122 63.7733C27.2169 63.9499 26.5099 64.1264 25.7146 64.3029L25.803 42.6774C26.5983 42.5008 27.3052 42.3243 28.1005 42.1478Z" fill="#DC234A"/>
<path d="M25.8913 42.7656L25.8029 64.3912C24.3007 64.9208 22.7984 65.6269 21.2078 66.5096L21.2961 44.884C22.7984 43.9131 24.3007 43.207 25.8913 42.7656Z" fill="#DE244A"/>
<path d="M21.2962 44.8841L21.2078 66.5096C20.059 67.2158 18.9102 68.0102 17.6731 68.9811C-6.18647 87.076 -29.8693 105.259 -53.7288 123.354C-53.9939 123.619 -54.259 123.795 -54.5241 124.06L-54.4357 102.435C-54.1706 102.17 -53.9055 101.993 -53.6404 101.728C-29.7809 83.6335 -6.0981 65.4504 17.7614 47.3556C18.9986 46.3846 20.1474 45.5019 21.2962 44.8841Z" fill="#DC234A"/>
<path d="M127.957 101.64L127.869 123.266C127.869 122.295 127.604 121.324 127.25 120.529C126.101 117.881 124.334 115.145 122.036 112.762C113.641 103.847 103.567 95.991 91.6375 89.1061C84.1262 84.781 75.9079 80.8973 66.9827 77.3666L67.071 55.741C75.9963 59.2717 84.2146 63.1555 91.7259 67.4806C103.656 74.3655 113.73 82.2213 122.125 91.1363C124.422 93.6078 126.19 96.2558 127.338 98.9039C127.692 99.6983 127.957 100.757 127.957 101.64Z" fill="#DADADA"/>
<path d="M67.071 55.6527L66.9826 77.2783C61.5922 75.1598 55.9366 73.218 50.0159 71.3643C49.6624 71.2761 49.2205 71.0995 48.8671 71.0113L48.9554 49.3857C49.3089 49.474 49.7508 49.6505 50.1042 49.7388C56.0249 51.5924 61.6805 53.5343 67.071 55.6527Z" fill="#DCDCDC"/>
<path d="M48.9554 49.474L48.8671 71.0996C47.0997 70.57 45.3324 70.1286 43.4766 69.7756L43.565 48.15C45.4207 48.5031 47.1881 48.9444 48.9554 49.474Z" fill="#DDDDDD"/>
<path d="M43.565 48.15L43.4766 69.7755C40.8256 69.2459 38.1745 68.8046 35.5234 68.4515L35.6118 46.826C38.2629 47.179 40.9139 47.6204 43.565 48.15Z" fill="#DFDFDF"/>
<path d="M35.5234 46.7377L35.4351 68.3633C34.8165 68.275 34.1095 68.1867 33.491 68.0985C33.1375 68.0102 32.784 68.0102 32.4305 68.0102L32.5189 46.3846C32.8724 46.3846 33.2258 46.4729 33.5793 46.4729C34.2863 46.5612 34.9049 46.6494 35.5234 46.7377Z" fill="#E0E0E0"/>
<path d="M32.5189 46.3846V68.0102C32.1654 68.0102 31.812 67.9219 31.5469 67.9219L31.6352 46.2964C31.9003 46.2964 32.1654 46.3846 32.5189 46.3846Z" fill="#E2E2E2"/>
<path d="M31.5469 46.2964L31.4585 67.9219C31.1934 67.9219 30.9283 67.9219 30.6632 67.9219L30.7516 46.2964C31.0167 46.2964 31.2818 46.2964 31.5469 46.2964Z" fill="#E3E3E3"/>
<path d="M30.7516 46.2964L30.6632 67.9219C30.3981 67.9219 30.2214 67.9219 30.0446 67.9219L30.133 46.2964C30.3097 46.3846 30.5748 46.2964 30.7516 46.2964Z" fill="#E5E5E5"/>
<path d="M30.133 46.3846L30.0446 68.0102C29.8679 68.0102 29.6028 68.0985 29.426 68.0985L29.5144 46.4729C29.6911 46.3846 29.9562 46.3846 30.133 46.3846Z" fill="#E7E7E7"/>
<path d="M29.5144 46.4729L29.426 68.0102C29.1609 68.0985 28.8958 68.0985 28.7191 68.1867L28.8074 46.5612C28.9842 46.5612 29.2493 46.4729 29.5144 46.4729Z" fill="#E8E8E8"/>
<path d="M28.8075 46.6494L28.7191 68.275C28.454 68.3633 28.1889 68.4515 28.0121 68.6281L28.1005 47.0025C28.2772 46.826 28.5423 46.7377 28.8075 46.6494Z" fill="#EAEAEA"/>
<path d="M28.1005 46.9142L28.0121 68.5398C27.8354 68.628 27.747 68.7163 27.5703 68.8928L27.6586 47.2673C27.8353 47.179 27.9237 47.0025 28.1005 46.9142Z" fill="#E8E8E8"/>
<path d="M27.6586 47.2673L27.5703 68.8929C27.4819 68.9811 27.3935 69.0694 27.3052 69.1577L27.3935 47.5321C27.4819 47.4438 27.5703 47.3556 27.6586 47.2673Z" fill="#E7E7E7"/>
<path d="M27.4819 47.5321L27.3935 69.1577C27.3052 69.2459 27.3052 69.3342 27.2168 69.4225L27.3052 47.7969C27.3052 47.6204 27.3935 47.6204 27.4819 47.5321Z" fill="#E5E5E5"/>
<path d="M27.3052 47.7086L27.2168 69.3342C27.1285 69.4225 27.1285 69.5108 27.1285 69.599L27.2168 47.9735C27.2168 47.8852 27.2168 47.7969 27.3052 47.7086Z" fill="#E3E3E3"/>
<path d="M27.1285 48.0617L27.0401 69.6873C27.0401 69.7755 26.9517 69.8638 26.9517 70.0403L27.0401 48.4148C27.0401 48.2382 27.1285 48.15 27.1285 48.0617Z" fill="#E2E2E2"/>
<path d="M27.0401 48.3265L26.9517 69.9521C26.9517 70.0403 26.9517 70.2169 26.8633 70.3934L26.9517 48.7678C27.0401 48.5913 27.0401 48.503 27.0401 48.3265Z" fill="#E0E0E0"/>
<path d="M27.0401 48.7679L26.9517 70.3934V70.4817L27.0401 48.7679Z" fill="#DFDFDF"/>
<path d="M64.6851 83.0157L64.5968 104.641C51.7833 96.4324 39.5001 88.2235 31.1051 78.2492C29.4261 76.3074 28.1005 74.1889 27.3052 72.0705C27.1285 71.5409 26.9517 71.0113 26.9517 70.57L27.0401 48.9444C27.0401 49.3857 27.1285 49.9153 27.3936 50.4449C28.1889 52.5634 29.5144 54.6818 31.1934 56.6237C39.5001 66.5096 51.8717 74.8068 64.6851 83.0157Z" fill="#CF2145"/>
<path d="M19.7055 53.5343L19.6171 75.1599C18.9985 75.5129 18.2916 75.866 17.673 76.2191L17.7613 54.5935C18.3799 54.2404 19.0869 53.9756 19.7055 53.5343Z" fill="#EAEAEA"/>
<path d="M17.7614 54.6818L17.673 76.3074C17.4079 76.4839 17.1428 76.5722 16.9661 76.7487C-3.44708 92.1955 -23.5068 107.819 -44.3618 123.089C-44.9803 123.531 -45.5105 123.972 -45.9524 124.413L-45.864 102.788C-45.4222 102.346 -44.892 101.905 -44.2734 101.464C-23.5068 86.1933 -3.35872 70.57 17.0544 55.1231C17.2312 54.9466 17.4963 54.7701 17.7614 54.6818Z" fill="#E8E8E8"/>
<path d="M93.6701 96.5206L93.5817 118.146C93.2282 117.97 92.8748 117.881 92.5213 117.705C82.7124 113.733 73.7871 108.966 64.5084 104.641L64.5968 83.0157C73.8755 87.4291 82.8008 92.1073 92.6097 96.0793C92.9632 96.2558 93.3166 96.3441 93.6701 96.5206Z" fill="#CF2145"/>
<path d="M127.957 101.64L127.869 123.266V123.354L127.957 101.728C127.957 101.728 127.957 101.728 127.957 101.64Z" fill="#D42247"/>
<path d="M127.957 101.817L127.869 123.442C127.869 123.707 127.869 123.884 127.78 124.148L127.869 102.523C127.957 102.258 127.957 101.993 127.957 101.817Z" fill="#D52247"/>
<path d="M127.869 102.435L127.78 124.06C127.78 124.237 127.692 124.413 127.692 124.501L127.78 102.876C127.78 102.788 127.869 102.611 127.869 102.435Z" fill="#D62348"/>
<path d="M127.78 102.964L127.692 124.59C127.604 124.678 127.604 124.855 127.515 124.943L127.604 103.317C127.692 103.141 127.692 103.052 127.78 102.964Z" fill="#D82348"/>
<path d="M127.604 103.229L127.515 124.855C127.427 124.943 127.427 125.031 127.338 125.119L127.427 103.494C127.515 103.494 127.515 103.406 127.604 103.229Z" fill="#D92349"/>
<path d="M127.427 103.582L127.339 125.208C127.25 125.296 127.162 125.384 127.162 125.472L127.25 103.847C127.25 103.67 127.339 103.67 127.427 103.582Z" fill="#DB2349"/>
<path d="M127.162 103.759L127.073 125.384C126.985 125.472 126.897 125.561 126.72 125.649L126.808 104.023C126.985 103.935 127.073 103.847 127.162 103.759Z" fill="#DC234A"/>
<path d="M126.897 104.023L126.808 125.649C126.632 125.737 126.455 125.826 126.278 125.914L126.366 104.288C126.455 104.2 126.632 104.112 126.897 104.023C126.808 104.023 126.808 104.023 126.897 104.023Z" fill="#DE244A"/>
<path d="M126.278 104.288L126.19 125.914C125.925 126.002 125.66 126.09 125.394 126.09L125.483 104.465C125.748 104.465 126.013 104.376 126.278 104.288Z" fill="#DC234A"/>
<path d="M125.483 104.465L125.394 126.09C125.129 126.179 124.864 126.179 124.511 126.179L124.599 104.553C124.953 104.553 125.218 104.553 125.483 104.465Z" fill="#DB2349"/>
<path d="M124.687 104.641L124.599 126.267C124.246 126.267 123.892 126.355 123.539 126.355L123.627 104.73C123.98 104.641 124.334 104.641 124.687 104.641Z" fill="#D92349"/>
<path d="M123.627 104.641L123.539 126.267C123.097 126.267 122.743 126.267 122.302 126.267L122.39 104.641C122.743 104.641 123.185 104.641 123.627 104.641Z" fill="#D82348"/>
<path d="M122.39 104.641L122.301 126.267C121.86 126.267 121.418 126.267 120.976 126.179L121.064 104.553C121.418 104.641 121.948 104.641 122.39 104.641Z" fill="#D62348"/>
<path d="M120.976 104.553L120.888 126.179C120.446 126.179 120.004 126.09 119.65 126.002L119.739 104.376C120.181 104.553 120.534 104.553 120.976 104.553Z" fill="#D52247"/>
<path d="M119.739 104.465L119.65 126.09C119.297 126.002 118.943 126.002 118.59 125.914L118.678 104.288C119.032 104.376 119.385 104.376 119.739 104.465Z" fill="#D42247"/>
<path d="M118.678 104.288L118.59 125.914C118.325 125.825 118.06 125.825 117.883 125.737C115.586 125.119 113.288 124.501 110.99 123.795L111.079 102.17C113.376 102.788 115.674 103.494 117.971 104.112C118.237 104.2 118.413 104.2 118.678 104.288Z" fill="#D22246"/>
<path d="M111.079 102.17L110.99 123.795C104.981 122.118 99.0605 120.265 93.5817 118.146L93.67 96.5206C99.1489 98.6391 105.07 100.493 111.079 102.17Z" fill="#D12246"/>
<path d="M93.6701 96.5206L93.5817 118.146C93.2282 117.97 92.8748 117.881 92.5213 117.705C82.7124 113.733 73.7871 108.966 64.5084 104.641L64.5968 83.0157C73.8755 87.4291 82.8008 92.1073 92.6097 96.0793C92.9632 96.2558 93.3166 96.3441 93.6701 96.5206Z" fill="#CF2145"/>
<path d="M116.204 109.231L116.116 130.857C106.572 128.12 97.6467 125.119 89.1633 121.765L89.2516 100.14C97.6466 103.494 106.66 106.495 116.204 109.231Z" fill="#DCDCDC"/>
<path d="M89.2516 100.14L89.1632 121.765C78.4706 117.528 68.5733 112.85 59.6481 107.642C43.565 98.3742 30.3097 87.6056 19.6171 75.1599L19.7055 53.5343C30.3981 65.98 43.6534 76.7487 59.7365 86.0168C68.6617 91.2246 78.559 95.9028 89.2516 100.14Z" fill="#DADADA"/>
<path d="M29.2493 81.4269L29.161 103.052C29.161 102.346 28.8075 101.817 28.1889 101.375C28.1005 101.287 27.9238 101.199 27.7471 101.199L27.8354 79.5733C28.0122 79.6615 28.1005 79.6615 28.2773 79.7498C28.8959 80.1911 29.2493 80.7207 29.2493 81.4269Z" fill="#CF2145"/>
<path d="M27.8354 79.5733L27.747 101.199C27.6587 101.111 27.4819 101.111 27.3936 101.111L27.4819 79.485C27.5703 79.485 27.747 79.5733 27.8354 79.5733Z" fill="#D12246"/>
<path d="M27.4819 79.485L27.3935 101.111C27.3051 101.111 27.1284 101.022 27.04 101.022L27.1284 79.3967C27.2168 79.3967 27.3935 79.3967 27.4819 79.485Z" fill="#D22246"/>
<path d="M27.1284 79.3967L27.0401 101.022C26.9517 101.022 26.775 100.934 26.6866 100.934L26.7749 79.3084C26.8633 79.3084 26.9517 79.3967 27.1284 79.3967Z" fill="#D42247"/>
<path d="M26.6866 79.3085L26.5982 100.934C26.4215 100.934 26.3331 100.934 26.1564 100.846L26.2447 79.2202C26.4215 79.3085 26.5982 79.3085 26.6866 79.3085Z" fill="#D52247"/>
<path d="M26.3331 79.3084L26.2448 100.934C26.068 100.934 25.8913 100.934 25.7145 100.934L25.8029 79.3084C25.9796 79.2202 26.1564 79.2202 26.3331 79.3084Z" fill="#D62348"/>
<path d="M25.8029 79.2202L25.7146 100.846C25.5378 100.846 25.2727 100.846 25.096 100.846L25.1844 79.2202C25.3611 79.2202 25.5378 79.2202 25.8029 79.2202Z" fill="#D82348"/>
<path d="M25.096 79.2202L25.0076 100.846C24.7425 100.846 24.389 100.846 24.1239 100.934L24.2123 79.3085C24.4774 79.3085 24.8309 79.2202 25.096 79.2202Z" fill="#D92349"/>
<path d="M24.2123 79.3084L24.1239 100.934C23.9472 100.934 23.6821 101.022 23.5053 101.022C13.5197 102.435 3.62239 103.847 -6.27489 105.347C-6.45163 105.347 -6.54 105.436 -6.71674 105.436L-6.62838 83.8101C-6.45164 83.8101 -6.36327 83.7218 -6.18653 83.7218C3.71075 82.2213 13.6964 80.809 23.5937 79.3967C23.7704 79.3084 23.9472 79.3084 24.2123 79.3084Z" fill="#DB2349"/>
<path d="M20.3241 84.428L20.2357 106.054C13.5197 107.024 7.77573 107.819 1.32483 108.79L1.4132 87.1643C7.86411 86.2816 13.6081 85.3989 20.3241 84.428Z" fill="#E7E7E7"/>
<path d="M20.3241 84.428L20.2357 106.054C18.5567 109.849 17.1428 113.203 15.5522 116.91L15.6406 95.2849C17.2312 91.5777 18.6451 88.3118 20.3241 84.428Z" fill="#D82348"/>
<path d="M41.1791 90.1654L41.0907 111.791C40.7372 111.967 40.3838 112.232 40.1187 112.497L40.207 90.8715C40.5605 90.6067 40.8256 90.3419 41.1791 90.1654Z" fill="#DC234A"/>
<path d="M40.207 90.8715L40.1187 112.497C39.9419 112.674 39.8535 112.762 39.6768 112.938L39.5884 113.027L39.6768 91.4011L39.7652 91.3129C39.9419 91.1363 40.1186 91.0481 40.207 90.8715Z" fill="#DB2349"/>
<path d="M40.207 90.8715L40.1187 112.497C39.9419 112.674 39.8535 112.762 39.6768 112.938L39.5884 113.027L39.6768 91.4011L39.7652 91.3128C39.9419 91.1363 40.1186 91.048 40.207 90.8715Z" fill="#DB2349"/>
<path d="M39.7652 91.4011L39.6768 113.027C39.5001 113.203 39.4117 113.38 39.3233 113.556L39.4117 91.9307C39.5 91.7542 39.5884 91.5776 39.7652 91.4011Z" fill="#D92349"/>
<path d="M39.4117 91.9307L39.3233 113.556C39.235 113.733 39.1466 113.909 39.1466 113.998L39.235 92.372C39.235 92.2838 39.3234 92.1072 39.4117 91.9307Z" fill="#D82348"/>
<path d="M39.1466 92.4603L39.0582 114.086C38.9699 114.262 38.9698 114.351 38.9698 114.527L39.0582 92.9016C39.0582 92.7251 39.0582 92.5486 39.1466 92.4603Z" fill="#D62348"/>
<path d="M39.0582 92.9016L38.9698 114.527C38.9698 114.704 38.9698 114.792 38.8815 114.969L38.9698 93.343C38.9698 93.1664 38.9699 92.9899 39.0582 92.9016Z" fill="#D52247"/>
<path d="M38.9698 93.2547L38.8815 114.88C38.8815 114.88 38.8815 114.88 38.8815 114.969L38.9698 93.2547C38.9698 93.343 38.9698 93.2547 38.9698 93.2547Z" fill="#D42247"/>
<path d="M54.9646 93.4313L54.8762 115.057C54.8762 113.733 54.1692 112.585 52.667 111.791C52.3135 111.614 51.96 111.438 51.5182 111.261L51.6066 89.6357C52.0484 89.8123 52.4019 89.9888 52.7554 90.1653C54.2576 90.9598 54.9646 92.1072 54.9646 93.4313Z" fill="#CF2145"/>
<path d="M51.6066 89.5475L51.5182 111.173C51.1647 111.085 50.8112 110.908 50.4578 110.82L50.5461 89.1944C50.8996 89.2827 51.2531 89.4592 51.6066 89.5475Z" fill="#D12246"/>
<path d="M50.5461 89.1944L50.4577 110.82C50.3694 110.82 50.281 110.732 50.1926 110.732C50.0159 110.643 49.8392 110.643 49.6624 110.555L49.7508 88.9296C49.9275 88.9296 50.1043 89.0179 50.281 89.1061C50.3694 89.1061 50.4577 89.1944 50.5461 89.1944Z" fill="#D22246"/>
<path d="M49.6624 89.0179L49.574 110.643C49.3089 110.555 49.0438 110.555 48.7787 110.467L48.8671 88.8413C49.1322 88.9296 49.3973 88.9296 49.6624 89.0179Z" fill="#D42247"/>
<path d="M48.9555 88.8413L48.8671 110.467C48.602 110.467 48.3369 110.379 48.0718 110.379L48.1602 88.7531C48.4253 88.7531 48.6904 88.8413 48.9555 88.8413Z" fill="#D52247"/>
<path d="M48.1602 88.7531L48.0718 110.379C47.8067 110.379 47.5416 110.379 47.2765 110.379L47.3649 88.7531C47.63 88.7531 47.8951 88.7531 48.1602 88.7531Z" fill="#D62348"/>
<path d="M47.3649 88.7531L47.2765 110.379C47.0114 110.379 46.7463 110.379 46.4812 110.379L46.5696 88.7531C46.8347 88.7531 47.0998 88.7531 47.3649 88.7531Z" fill="#D82348"/>
<path d="M46.5695 88.7531L46.4812 110.379C46.2161 110.379 45.8626 110.379 45.5975 110.467L45.6858 88.8413C45.951 88.7531 46.3044 88.7531 46.5695 88.7531Z" fill="#D92349"/>
<path d="M45.6859 88.7531L45.5975 110.379C45.244 110.379 44.8905 110.467 44.537 110.555L44.6254 88.9296C44.9789 88.8413 45.3324 88.8413 45.6859 88.7531Z" fill="#DB2349"/>
<path d="M44.6254 88.9296L44.5371 110.555C44.0068 110.643 43.4766 110.82 43.0348 110.908L43.1232 89.2827C43.565 89.1944 44.0952 89.0179 44.6254 88.9296Z" fill="#DC234A"/>
<path d="M43.1231 89.2827L43.0348 110.908C42.3278 111.173 41.7092 111.438 41.179 111.791L41.2674 90.1653C41.7976 89.8123 42.4162 89.5475 43.1231 89.2827Z" fill="#DE244A"/>
<path d="M41.1791 90.1653L41.0907 111.791C40.7372 111.967 40.3838 112.232 40.1187 112.497L40.207 90.8715C40.5605 90.6067 40.8256 90.3419 41.1791 90.1653Z" fill="#DC234A"/>
<path d="M15.6406 95.3732L15.5522 116.999C10.6035 114.174 6.36184 111.703 1.32483 108.79L1.4132 87.1643C6.45021 90.0771 10.6919 92.5486 15.6406 95.3732Z" fill="#CF2145"/>
<path d="M20.3241 84.428L20.2357 106.054C18.5567 109.849 17.1428 113.203 15.5522 116.91L15.6406 95.2849C17.2312 91.5777 18.6451 88.3118 20.3241 84.428Z" fill="#D82348"/>
<path d="M54.9646 93.4313L54.8762 115.057V115.145L54.9646 93.5195C54.9646 93.4313 54.9646 93.4313 54.9646 93.4313Z" fill="#DFDFDF"/>
<path d="M54.9645 93.5195L54.8761 115.145C54.8761 115.322 54.8761 115.586 54.7878 115.763L54.8761 94.1374C54.9645 93.8726 54.9645 93.6961 54.9645 93.5195Z" fill="#E0E0E0"/>
<path d="M54.8762 94.1374V115.675C54.7878 115.939 54.7878 116.116 54.6995 116.381L54.7878 94.7553C54.7878 94.5787 54.8762 94.3139 54.8762 94.1374Z" fill="#E2E2E2"/>
<path d="M54.6995 94.8435L54.6111 116.469C54.5227 116.646 54.4344 116.822 54.346 116.999C54.2576 117.175 54.1693 117.264 54.1693 117.44L54.2576 95.8145C54.346 95.6379 54.346 95.5497 54.4344 95.3731C54.5227 95.1966 54.6111 95.0201 54.6995 94.8435Z" fill="#E3E3E3"/>
<path d="M54.2577 95.7262L54.1693 117.352C54.0809 117.528 53.9926 117.793 53.9926 117.97L54.0809 96.3441C54.1693 96.1676 54.1693 95.991 54.2577 95.7262Z" fill="#E2E2E2"/>
<path d="M54.0809 96.4323L53.9925 118.058C53.9925 118.234 53.9041 118.411 53.9041 118.676L53.9925 97.0502C53.9925 96.7854 54.0809 96.6089 54.0809 96.4323Z" fill="#E0E0E0"/>
<path d="M53.9925 97.0502L53.9041 118.676V118.764L53.9925 97.0502Z" fill="#DFDFDF"/>
<path d="M21.738 99.61L21.6496 121.236C21.5613 121.412 21.4729 121.5 21.4729 121.677L21.5613 100.051C21.5613 99.9631 21.6496 99.7866 21.738 99.61Z" fill="#E3E3E3"/>
<path d="M21.4729 100.051L21.3845 121.677C21.2961 121.853 21.1194 122.118 21.031 122.295L21.1194 100.669C21.2961 100.493 21.3845 100.316 21.4729 100.051Z" fill="#E5E5E5"/>
<path d="M21.1195 100.669L21.0311 122.295C20.8543 122.471 20.766 122.648 20.5892 122.736L20.6776 101.111C20.8543 101.022 20.9427 100.846 21.1195 100.669Z" fill="#E7E7E7"/>
<path d="M20.6775 101.111L20.5892 122.736C20.4124 122.913 20.1473 123.089 19.9706 123.177L20.059 101.552C20.2357 101.464 20.5008 101.287 20.6775 101.111Z" fill="#E8E8E8"/>
<path d="M20.059 101.64L19.9707 123.266C19.7056 123.442 19.4405 123.531 19.1754 123.619L19.2637 101.993C19.5288 101.905 19.7939 101.728 20.059 101.64Z" fill="#EAEAEA"/>
<path d="M19.2637 101.993L19.1754 123.619C18.9986 123.707 18.8219 123.707 18.5568 123.795L18.6451 102.17C18.9103 102.081 19.087 101.993 19.2637 101.993Z" fill="#E8E8E8"/>
<path d="M18.7335 102.081L18.6452 123.707C18.5568 123.707 18.3801 123.707 18.2917 123.795L18.38 102.17C18.4684 102.17 18.5568 102.17 18.7335 102.081Z" fill="#E7E7E7"/>
<path d="M18.38 102.17L18.2916 123.795C18.2032 123.795 18.1149 123.795 17.9381 123.795L18.0265 102.17C18.1149 102.17 18.2032 102.17 18.38 102.17Z" fill="#E5E5E5"/>
<path d="M18.0265 102.17L17.9381 123.795C17.8498 123.795 17.7614 123.795 17.5847 123.795L17.673 102.17C17.8497 102.17 17.9381 102.17 18.0265 102.17Z" fill="#E3E3E3"/>
<path d="M17.6731 102.17L17.5847 123.795C17.4963 123.795 17.4079 123.795 17.2312 123.795L17.3196 102.17C17.4963 102.17 17.5847 102.17 17.6731 102.17Z" fill="#E2E2E2"/>
<path d="M17.408 102.17L17.3196 123.795C17.2312 123.795 17.0545 123.795 16.9661 123.795L17.0545 102.17C17.1429 102.17 17.2312 102.17 17.408 102.17Z" fill="#E0E0E0"/>
<path d="M16.9661 102.081L16.8777 123.707C16.701 123.707 16.6126 123.619 16.4359 123.619L16.5242 101.993C16.701 102.081 16.8777 102.081 16.9661 102.081Z" fill="#DFDFDF"/>
<path d="M16.5242 102.081L16.4359 123.707C16.2591 123.707 16.0824 123.619 15.9056 123.531L15.994 101.905C16.1707 101.993 16.3475 101.993 16.5242 102.081Z" fill="#DDDDDD"/>
<path d="M15.994 101.905L15.9057 123.531C15.6406 123.442 15.2871 123.354 15.022 123.266L15.1103 101.64C15.3755 101.728 15.7289 101.817 15.994 101.905Z" fill="#DCDCDC"/>
<path d="M15.1103 101.64L15.022 123.266C14.5801 123.089 14.1383 122.913 13.6964 122.648C12.1942 121.853 10.7803 121.059 9.36639 120.176C7.15718 118.941 4.94796 117.617 2.73875 116.293C1.50159 115.586 0.35279 114.88 -0.884371 114.262C-1.94479 113.645 -3.00522 113.115 -3.97727 112.497C-5.47954 111.614 -6.98179 110.732 -8.48406 109.849C-9.80959 109.055 -10.5165 108.26 -10.5165 107.554L-10.4282 85.9285C-10.4282 86.6347 -9.8096 87.4291 -8.3957 88.2235C-6.89343 89.1062 -5.47953 89.9888 -3.8889 90.8715C-2.82847 91.4894 -1.85642 92.019 -0.795997 92.6369C0.441164 93.343 1.58996 94.0491 2.82712 94.667C5.03633 95.9028 7.24555 97.2268 9.45477 98.5508C10.8687 99.3452 12.2826 100.228 13.7848 101.022C14.2267 101.199 14.6685 101.464 15.1103 101.64Z" fill="#DADADA"/>
<path d="M9.18962 109.937L9.10124 131.563C9.10124 130.857 8.48267 130.151 7.24551 129.444C4.15261 127.679 1.14807 125.914 -1.94483 124.148C-4.68426 122.56 -7.51205 120.971 -10.2515 119.382C-10.6049 119.117 -11.0468 118.941 -11.4003 118.852L-11.3119 97.2267C-10.9584 97.4033 -10.5166 97.5798 -10.1631 97.7563C-7.42369 99.3452 -4.68425 100.934 -1.85646 102.523C1.14807 104.288 4.24097 106.054 7.33387 107.819C8.57103 108.613 9.18962 109.231 9.18962 109.937Z" fill="#CF2145"/>
<path d="M29.2493 81.4269L29.1609 103.052C29.1609 103.052 29.1609 103.052 29.1609 103.141L29.2493 81.4269C29.2493 81.5151 29.2493 81.4269 29.2493 81.4269Z" fill="#DFDFDF"/>
<path d="M29.2493 81.5151L29.1609 103.141C29.1609 103.317 29.1609 103.406 29.0726 103.582L29.1609 81.9565C29.2493 81.7799 29.2493 81.6034 29.2493 81.5151Z" fill="#E0E0E0"/>
<path d="M29.1609 81.9565L29.0725 103.582C29.0725 103.759 28.9842 103.935 28.8958 104.112L28.9842 82.4861C29.0725 82.3096 29.1609 82.133 29.1609 81.9565Z" fill="#E2E2E2"/>
<path d="M28.9841 82.4861L28.8958 104.112V104.2C26.5982 109.849 24.2122 115.586 21.6495 121.236L21.7379 99.61C24.3006 93.9609 26.6866 88.3118 28.9841 82.5744C28.9841 82.5744 28.9841 82.5744 28.9841 82.4861Z" fill="#E3E3E3"/>
<path d="M9.18962 109.937L9.10124 131.563C9.10124 130.857 8.48267 130.151 7.24551 129.444C4.15261 127.679 1.14807 125.914 -1.94483 124.148C-4.68426 122.56 -7.51205 120.971 -10.2515 119.382C-10.6049 119.117 -11.0468 118.941 -11.4003 118.852L-11.3119 97.2268C-10.9584 97.4033 -10.5166 97.5798 -10.1631 97.7564C-7.42369 99.3452 -4.68425 100.934 -1.85646 102.523C1.14807 104.288 4.24097 106.054 7.33387 107.819C8.57103 108.613 9.18962 109.231 9.18962 109.937Z" fill="#CF2145"/>
<path d="M9.18962 109.937L9.10124 131.563C9.10124 130.857 8.48267 130.151 7.24551 129.444C4.15261 127.679 1.14807 125.914 -1.94483 124.148C-4.68426 122.56 -7.51205 120.971 -10.2515 119.382C-10.6049 119.117 -11.0468 118.941 -11.4003 118.852L-11.3119 97.2268C-10.9584 97.4033 -10.5166 97.5798 -10.1631 97.7564C-7.42369 99.3452 -4.68425 100.934 -1.85646 102.523C1.14807 104.288 4.24097 106.054 7.33387 107.819C8.57103 108.613 9.18962 109.231 9.18962 109.937Z" fill="#CF2145"/>
<path d="M75.8196 127.061L75.7312 148.687C74.6708 147.628 73.6104 146.921 73.0802 146.127C66.806 137.477 60.4435 128.738 54.346 120.088C54.0809 119.647 53.9926 119.205 53.9926 118.764L54.0809 97.1385C54.0809 97.5799 54.1693 98.1095 54.4344 98.4625C60.5318 107.201 66.806 115.851 73.1685 124.501C73.6987 125.296 74.6708 126.002 75.8196 127.061Z" fill="#CF2145"/>
<path d="M75.8196 127.061L75.7312 148.687C74.6708 147.628 73.6104 146.921 73.0802 146.127C66.806 137.477 60.4435 128.738 54.346 120.088C54.0809 119.647 53.9926 119.205 53.9926 118.764L54.0809 97.1385C54.0809 97.5799 54.1693 98.1095 54.4344 98.4625C60.5318 107.201 66.806 115.851 73.1685 124.501C73.6987 125.296 74.6708 126.002 75.8196 127.061Z" fill="#CF2145"/>
<path d="M68.2198 129.533L68.1315 151.158C68.1315 150.717 67.8664 150.276 67.5129 149.746C60.5318 140.39 53.8157 131.033 46.923 121.677C46.4812 121.059 45.6858 120.441 44.8022 119.912C44.3603 119.647 43.9185 119.47 43.4766 119.294L43.565 97.6681C44.0068 97.8447 44.4487 98.1095 44.8905 98.286C45.7742 98.8156 46.4812 99.4335 47.0114 100.051C53.9041 109.408 60.7085 118.764 67.6012 128.12C68.0431 128.65 68.2198 129.091 68.2198 129.533Z" fill="#DADADA"/>
<path d="M43.565 97.6681L43.4766 119.205L43.565 97.6681Z" fill="#DCDCDC"/>
<path d="M43.565 97.6681L43.4766 119.294C42.7697 119.029 42.1511 118.676 41.5325 118.411C39.8535 117.44 38.8815 116.293 38.8815 115.057L38.9698 93.4313C38.9698 94.667 39.8535 95.8145 41.6209 96.7854C42.1511 97.0502 42.8581 97.315 43.565 97.6681Z" fill="#DADADA"/>
<path d="M45.951 116.028L45.8626 137.653C44.979 137.124 44.0069 136.682 42.9465 136.241L43.0348 114.616C44.0953 115.057 45.0673 115.498 45.951 116.028Z" fill="#CF2145"/>
<path d="M43.0348 114.704L42.9464 136.329C42.1511 136.065 41.3558 135.8 40.5605 135.535L40.7372 113.909C41.5325 114.086 42.3279 114.351 43.0348 114.704Z" fill="#D12246"/>
<path d="M40.7372 113.909L40.6489 135.535C40.0303 135.358 39.3233 135.182 38.6164 135.005L38.7048 113.38C39.4117 113.556 40.0303 113.733 40.7372 113.909Z" fill="#D22246"/>
<path d="M38.7048 113.38L38.6164 135.005C37.9978 134.917 37.3793 134.741 36.7607 134.652L36.8491 113.027C37.4676 113.115 38.0862 113.292 38.7048 113.38Z" fill="#D42247"/>
<path d="M36.849 113.027L36.7607 134.652C36.1421 134.564 35.5235 134.476 34.9049 134.476L34.9933 112.85C35.6119 112.938 36.2305 112.938 36.849 113.027Z" fill="#D52247"/>
<path d="M34.9933 112.85L34.9049 134.476C34.2863 134.387 33.6678 134.387 33.0492 134.387L33.1376 112.762C33.7561 112.762 34.3747 112.762 34.9933 112.85Z" fill="#D62348"/>
<path d="M33.1376 112.762L33.0492 134.387C32.4306 134.387 31.7237 134.387 31.1051 134.387L31.1935 112.762C31.9004 112.762 32.519 112.762 33.1376 112.762Z" fill="#D82348"/>
<path d="M31.1934 112.762L31.105 134.387C30.3981 134.387 29.6911 134.476 28.9842 134.564L29.0726 112.938C29.8679 112.85 30.4865 112.762 31.1934 112.762Z" fill="#D92349"/>
<path d="M29.161 112.938L29.0726 134.564C28.2773 134.652 27.3936 134.741 26.5983 134.917L26.6866 113.291C27.482 113.115 28.2773 113.027 29.161 112.938Z" fill="#DB2349"/>
<path d="M26.6866 113.203L26.5983 134.829C25.3611 135.094 24.1239 135.358 22.8868 135.711L22.9751 114.086C24.2123 113.821 25.4495 113.468 26.6866 113.203Z" fill="#DC234A"/>
<path d="M22.9752 114.174L22.8868 135.8C21.2962 136.329 19.7055 137.035 18.2916 137.83C18.2032 137.83 18.2032 137.918 18.1149 137.918L18.2032 116.293C18.2916 116.293 18.2916 116.204 18.38 116.204C19.7939 115.41 21.3845 114.704 22.9752 114.174Z" fill="#DE244A"/>
<path d="M9.18962 109.937L9.10126 131.563L9.18962 109.937Z" fill="#DFDFDF"/>
<path d="M9.18962 109.937L9.10126 131.563C9.10126 131.651 9.10126 131.651 9.10126 131.739L9.18962 110.114C9.18962 110.114 9.18962 110.026 9.18962 109.937Z" fill="#E0E0E0"/>
<path d="M9.1013 110.202L9.01293 131.828C9.01293 131.916 9.01293 131.916 8.92456 132.004L9.01293 110.379C9.1013 110.29 9.1013 110.202 9.1013 110.202Z" fill="#E2E2E2"/>
<path d="M9.1013 110.379L9.01293 132.004C9.01293 132.092 8.92456 132.181 8.92456 132.181L9.01293 110.555C9.01293 110.467 9.1013 110.467 9.1013 110.379Z" fill="#E3E3E3"/>
<path d="M9.0129 110.555L8.92453 132.181C8.83617 132.269 8.83617 132.357 8.7478 132.446L8.83616 110.82C8.92453 110.732 8.92454 110.643 9.0129 110.555Z" fill="#E5E5E5"/>
<path d="M8.83612 110.82L8.74776 132.446C8.6594 132.534 8.57103 132.622 8.48267 132.799L8.57104 111.173C8.6594 111.085 8.74775 110.908 8.83612 110.82Z" fill="#E7E7E7"/>
<path d="M8.48265 111.173L8.39428 132.799C8.12917 133.063 7.86408 133.24 7.42224 133.505L7.5106 111.879C7.95244 111.614 8.30591 111.35 8.48265 111.173Z" fill="#E8E8E8"/>
<path d="M7.59902 111.791L7.51064 133.416C7.42228 133.505 7.33392 133.505 7.24555 133.593C4.24101 135.27 1.23647 137.035 -1.76807 138.801L-1.67969 117.175C1.32484 115.41 4.24101 113.645 7.33391 111.967C7.42228 111.967 7.51065 111.879 7.59902 111.791Z" fill="#EAEAEA"/>
<path d="M51.6066 123.972L51.5182 145.597C51.5182 142.685 49.6625 139.86 45.8626 137.653L45.951 116.028C49.7508 118.234 51.6066 121.147 51.6066 123.972Z" fill="#CF2145"/>
<path d="M43.8301 123.972L43.7417 145.597V145.686L43.8301 124.06V123.972Z" fill="#D42247"/>
<path d="M116.204 109.231L116.116 130.857C102.772 136.771 89.5167 142.596 75.7312 148.687L75.8196 127.061C89.5167 120.971 102.86 115.145 116.204 109.231Z" fill="#DE244A"/>
<path d="M75.8196 127.061L75.7312 148.687C74.6708 147.628 73.6104 146.921 73.0802 146.127C66.806 137.477 60.4435 128.738 54.346 120.088C54.0809 119.647 53.9926 119.205 53.9926 118.764L54.0809 97.1385C54.0809 97.5799 54.1693 98.1095 54.4344 98.4625C60.5318 107.201 66.806 115.851 73.1685 124.501C73.6987 125.296 74.6708 126.002 75.8196 127.061Z" fill="#CF2145"/>
<path d="M135.999 101.905L135.91 123.531C135.91 123.619 135.91 123.619 135.91 123.707L135.999 102.081C135.999 101.993 135.999 101.993 135.999 101.905Z" fill="#DFDFDF"/>
<path d="M135.999 102.081L135.91 123.707C135.91 124.06 135.822 124.325 135.822 124.678L135.91 103.052C135.999 102.699 135.999 102.346 135.999 102.081Z" fill="#E0E0E0"/>
<path d="M135.91 103.052L135.822 124.678C135.733 124.943 135.645 125.296 135.557 125.561L135.645 103.935C135.733 103.582 135.822 103.317 135.91 103.052Z" fill="#E2E2E2"/>
<path d="M135.645 103.935L135.557 125.561C135.468 125.825 135.292 126.09 135.203 126.355L135.292 104.729C135.38 104.465 135.557 104.2 135.645 103.935Z" fill="#E3E3E3"/>
<path d="M135.292 104.73L135.203 126.355C135.027 126.62 134.85 126.973 134.585 127.238L134.673 105.612C134.938 105.347 135.115 104.994 135.292 104.73Z" fill="#E5E5E5"/>
<path d="M134.673 105.612L134.585 127.238C134.32 127.591 134.055 127.944 133.701 128.209L133.789 106.583C134.143 106.23 134.408 105.965 134.673 105.612Z" fill="#E7E7E7"/>
<path d="M133.789 106.583L133.701 128.209C133.082 128.738 132.375 129.268 131.58 129.798L131.669 108.172C132.464 107.642 133.171 107.113 133.789 106.583Z" fill="#E8E8E8"/>
<path d="M131.669 108.172L131.58 129.798C130.696 130.327 129.724 130.768 128.576 131.298C116.999 136.153 105.865 141.361 94.377 146.215C93.9352 146.392 93.6701 146.568 93.3166 146.745L93.405 125.119C93.6701 124.943 94.0235 124.766 94.4654 124.59C105.953 119.647 117.088 114.527 128.664 109.672C129.813 109.143 130.785 108.702 131.669 108.172Z" fill="#EAEAEA"/>
<path d="M93.4049 125.119L93.3166 146.745C93.0515 146.921 92.7864 147.098 92.6096 147.275L92.698 125.649C92.9631 125.472 93.1398 125.296 93.4049 125.119Z" fill="#E8E8E8"/>
<path d="M92.6979 125.649L92.6096 147.275C92.5212 147.363 92.4328 147.451 92.3445 147.539L92.4329 125.914C92.5212 125.825 92.6096 125.737 92.6979 125.649Z" fill="#E7E7E7"/>
<path d="M92.4329 125.914L92.3445 147.539C92.2561 147.628 92.2562 147.716 92.1678 147.804L92.2561 126.179C92.3445 126.09 92.3445 126.002 92.4329 125.914Z" fill="#E5E5E5"/>
<path d="M92.2561 126.179L92.1678 147.804C92.0794 147.892 92.0794 147.981 92.0794 148.069L92.1678 126.443C92.1678 126.355 92.2561 126.267 92.2561 126.179Z" fill="#E3E3E3"/>
<path d="M92.1678 126.443L92.0794 148.069C92.0794 148.157 91.991 148.245 91.991 148.422L92.0794 126.796C92.0794 126.708 92.0794 126.62 92.1678 126.443Z" fill="#E2E2E2"/>
<path d="M92.0794 126.796L91.991 148.422C91.991 148.599 91.991 148.687 91.9026 148.863L91.991 127.238C91.991 127.061 91.991 126.973 92.0794 126.796Z" fill="#E0E0E0"/>
<path d="M91.991 127.238L91.9026 148.863V148.952L91.991 127.238Z" fill="#DFDFDF"/>
<path d="M83.5077 129.356L83.4193 150.982C83.4193 150.982 83.3309 151.07 83.2426 151.07L83.3309 129.444C83.4193 129.444 83.5077 129.356 83.5077 129.356Z" fill="#E8E8E8"/>
<path d="M83.4193 129.444L83.3309 151.07C82.6239 151.511 81.6519 151.953 80.9449 152.394L81.0333 130.768C81.6519 130.327 82.7123 129.886 83.4193 129.444Z" fill="#EAEAEA"/>
<path d="M81.0334 130.768L80.945 152.394C80.6799 152.571 80.5032 152.659 80.3264 152.835L80.4148 131.21C80.5031 131.033 80.7683 130.945 81.0334 130.768Z" fill="#E8E8E8"/>
<path d="M80.4147 131.21L80.3264 152.835L80.238 152.924L80.3264 131.298C80.3264 131.298 80.3263 131.21 80.4147 131.21Z" fill="#E7E7E7"/>
<path d="M80.3263 131.298L80.238 152.924C80.238 152.924 80.238 152.924 80.238 153.012L80.3263 131.298C80.238 131.298 80.238 131.298 80.3263 131.298Z" fill="#E5E5E5"/>
<path d="M80.238 131.386L80.1497 153.012C80.1497 153.012 80.1497 153.012 80.1497 153.1L80.238 131.386Z" fill="#E3E3E3"/>
<path d="M80.238 131.386L80.1497 153.012L80.238 131.386Z" fill="#E2E2E2"/>
<path d="M80.238 131.475L80.1497 153.1L80.238 131.475Z" fill="#E0E0E0"/>
<path d="M80.238 131.475L80.1497 153.012L80.238 131.475Z" fill="#DFDFDF"/>
<path d="M43.8301 123.972L43.7417 145.597V145.686L43.8301 124.06V123.972Z" fill="#D42247"/>
<path d="M43.8301 124.06L43.7417 145.686C43.7417 145.95 43.7417 146.127 43.6534 146.392L43.7417 124.766C43.8301 124.501 43.8301 124.325 43.8301 124.06Z" fill="#D52247"/>
<path d="M43.8301 124.766L43.7417 146.392C43.7417 146.568 43.6534 146.833 43.565 147.01L43.6534 125.384C43.6534 125.208 43.7417 124.943 43.8301 124.766Z" fill="#D62348"/>
<path d="M43.565 125.384L43.4766 147.01C43.3883 147.274 43.2999 147.451 43.2115 147.628L43.2999 126.002C43.3883 125.825 43.565 125.649 43.565 125.384Z" fill="#D82348"/>
<path d="M43.2999 126.09L43.2115 147.716C43.0348 147.981 42.9464 148.157 42.7697 148.422L42.8581 126.796C43.0348 126.532 43.1232 126.267 43.2999 126.09Z" fill="#D92349"/>
<path d="M42.858 126.708L42.7697 148.334C42.5929 148.598 42.3278 148.863 42.0627 149.128L42.1511 127.503C42.4162 127.238 42.5929 126.973 42.858 126.708Z" fill="#DB2349"/>
<path d="M42.1511 127.503L42.0627 149.128C41.6209 149.481 41.1791 149.834 40.5605 150.187L40.6488 128.562C41.1791 128.297 41.7093 127.856 42.1511 127.503Z" fill="#DC234A"/>
<path d="M40.6488 128.562L40.5604 150.187C40.4721 150.187 40.4721 150.276 40.3837 150.276C39.5884 150.717 38.7047 151.07 37.821 151.423L37.9094 129.798C38.793 129.533 39.6767 129.091 40.4721 128.65C40.5604 128.65 40.5604 128.65 40.6488 128.562Z" fill="#DE244A"/>
<path d="M37.9094 129.798L37.821 151.423C37.1141 151.688 36.4071 151.864 35.6118 151.953L35.7002 130.327C36.4955 130.239 37.2025 130.062 37.9094 129.798Z" fill="#DC234A"/>
<path d="M35.7002 130.327L35.6118 151.953C35.17 152.041 34.6398 152.129 34.1979 152.129L34.2863 130.504C34.7281 130.504 35.2584 130.415 35.7002 130.327Z" fill="#DB2349"/>
<path d="M34.2863 130.592L34.1979 152.217C33.7561 152.217 33.4026 152.306 32.9608 152.306L33.0491 130.68C33.4026 130.68 33.8444 130.592 34.2863 130.592Z" fill="#D92349"/>
<path d="M33.0491 130.68L32.9607 152.306C32.6073 152.306 32.1654 152.306 31.812 152.306L31.9003 130.68C32.2538 130.68 32.6073 130.68 33.0491 130.68Z" fill="#D82348"/>
<path d="M31.812 130.68L31.7236 152.306C31.3702 152.306 31.0167 152.306 30.5748 152.217L30.6632 130.592C31.105 130.592 31.4585 130.68 31.812 130.68Z" fill="#D62348"/>
<path d="M30.7516 130.592L30.6632 152.218C30.3097 152.218 29.9562 152.129 29.5144 152.129L29.6028 130.504C29.9562 130.504 30.3981 130.592 30.7516 130.592Z" fill="#D52247"/>
<path d="M29.6028 130.504L29.5144 152.129C29.1609 152.041 28.7191 152.041 28.3656 151.953L28.454 130.327C28.8958 130.327 29.2493 130.415 29.6028 130.504Z" fill="#D42247"/>
<path d="M28.4539 130.239L28.3656 151.864C27.9237 151.776 27.5703 151.688 27.1284 151.6L27.2168 129.974C27.6586 130.062 28.1005 130.151 28.4539 130.239Z" fill="#D22246"/>
<path d="M27.2168 129.974L27.1284 151.6C26.5982 151.423 26.1564 151.335 25.7145 151.158L25.8029 129.533C26.2448 129.709 26.775 129.798 27.2168 129.974Z" fill="#D12246"/>
<path d="M25.8029 129.533L25.7145 151.158C25.0959 150.893 24.5657 150.629 23.9471 150.364L23.8588 150.276L23.9471 128.65L24.0355 128.738C24.6541 129.003 25.1843 129.268 25.8029 129.533Z" fill="#CF2145"/>
<path d="M92.7863 138.713L92.698 160.338C92.5212 156.896 92.698 153.542 91.991 150.099C91.9026 149.658 91.8143 149.305 91.8143 148.952L91.9026 127.326C91.9026 127.679 91.991 128.032 92.0794 128.474C92.7863 131.828 92.6096 135.27 92.7863 138.713Z" fill="#CF2145"/>
<path d="M86.4238 135.358L86.3354 156.984C85.8052 155.042 85.275 153.1 84.7448 151.247L84.8332 129.621C85.3634 131.475 85.8936 133.416 86.4238 135.358Z" fill="#DADADA"/>
<path d="M86.4238 135.358L86.3354 156.984C85.8052 157.16 85.275 157.249 84.7448 157.425L84.8332 135.8C85.3634 135.623 85.8936 135.447 86.4238 135.358Z" fill="#DC234A"/>
<path d="M84.8332 135.711L84.7448 157.337C83.1542 155.925 81.2101 154.601 80.1497 153.1V153.012L80.238 131.386V131.475C81.2984 133.063 83.2426 134.387 84.8332 135.711Z" fill="#CF2145"/>
<path d="M51.6066 123.972L51.5182 145.597C51.5182 145.686 51.5182 145.686 51.5182 145.774L51.6066 124.148C51.6066 124.148 51.6066 124.06 51.6066 123.972Z" fill="#DFDFDF"/>
<path d="M51.6066 124.148L51.5182 145.774C51.5182 146.127 51.4299 146.48 51.4299 146.921L51.5182 125.296C51.5182 124.943 51.5182 124.59 51.6066 124.148Z" fill="#E0E0E0"/>
<path d="M51.4299 125.296L51.3415 146.921C51.2531 147.274 51.1648 147.628 50.988 147.981L51.0764 126.355C51.2531 126.002 51.3415 125.649 51.4299 125.296Z" fill="#E2E2E2"/>
<path d="M51.1647 126.443L51.0764 148.069C50.8996 148.422 50.7229 148.775 50.5461 149.128L50.6345 127.503C50.8112 127.149 50.988 126.796 51.1647 126.443Z" fill="#E3E3E3"/>
<path d="M50.6345 127.503L50.5462 149.128C50.3694 149.481 50.1043 149.923 49.7509 150.276L49.8392 128.65C50.1043 128.297 50.3694 127.856 50.6345 127.503Z" fill="#E5E5E5"/>
<path d="M49.8392 128.65L49.7508 150.276C49.3974 150.717 49.0439 151.158 48.6021 151.6L48.6904 129.974C49.1323 129.533 49.4857 129.091 49.8392 128.65Z" fill="#E7E7E7"/>
<path d="M48.602 129.974L48.5137 151.6C47.8067 152.217 47.0114 152.835 46.1277 153.365L46.2161 131.739C47.1882 131.122 47.9835 130.592 48.602 129.974Z" fill="#E8E8E8"/>
<path d="M46.2161 131.739L46.1278 153.365C46.0394 153.453 45.951 153.453 45.8627 153.542C44.5371 154.336 43.0349 154.954 41.5326 155.483L41.621 133.858C43.2116 133.328 44.6255 132.71 45.951 131.916C46.0394 131.828 46.1278 131.739 46.2161 131.739Z" fill="#EAEAEA"/>
<path d="M41.7093 133.77L41.6209 155.395C40.4721 155.748 39.235 156.101 37.9978 156.278L38.0862 134.652C39.3233 134.476 40.4721 134.123 41.7093 133.77Z" fill="#E8E8E8"/>
<path d="M37.9978 134.652L37.9094 156.278C37.1141 156.454 36.3188 156.543 35.5235 156.631L35.6119 135.005C36.4072 134.917 37.2025 134.829 37.9978 134.652Z" fill="#E7E7E7"/>
<path d="M35.6119 135.005L35.5235 156.631C34.8166 156.719 34.1096 156.719 33.4026 156.807L33.491 135.182C34.198 135.094 34.9049 135.094 35.6119 135.005Z" fill="#E5E5E5"/>
<path d="M33.491 135.182L33.4027 156.807C32.7841 156.807 32.0771 156.807 31.4586 156.807L31.5469 135.182C32.2539 135.182 32.8725 135.182 33.491 135.182Z" fill="#E3E3E3"/>
<path d="M31.6353 135.182L31.5469 156.807C30.9283 156.807 30.3097 156.719 29.6912 156.719L29.7795 135.094C30.3981 135.094 31.0167 135.094 31.6353 135.182Z" fill="#E2E2E2"/>
<path d="M29.7795 135.094L29.6911 156.719C29.0726 156.631 28.454 156.631 27.8354 156.543L27.9238 134.917C28.5423 134.917 29.1609 135.005 29.7795 135.094Z" fill="#E0E0E0"/>
<path d="M27.9238 134.829L27.8355 156.454C27.2169 156.366 26.5983 156.278 25.9797 156.101L26.0681 134.476C26.5983 134.652 27.3053 134.74 27.9238 134.829Z" fill="#DFDFDF"/>
<path d="M25.9797 134.476L25.8913 156.101C25.1844 155.925 24.5658 155.836 23.8588 155.572L23.9472 133.946C24.6542 134.211 25.3611 134.387 25.9797 134.476Z" fill="#DDDDDD"/>
<path d="M24.0356 134.034L23.9472 155.66C23.1519 155.395 22.3565 155.13 21.5612 154.866L21.6496 133.24C22.3565 133.505 23.1519 133.77 24.0356 134.034Z" fill="#DCDCDC"/>
<path d="M21.6496 133.24L21.5612 154.865C20.5892 154.512 19.6171 154.071 18.7334 153.541C14.7569 151.247 12.8127 148.334 12.8127 145.509L12.9011 123.884C12.9011 126.708 14.8452 129.621 18.8218 131.916C19.7055 132.357 20.6775 132.799 21.6496 133.24Z" fill="#DADADA"/>
<path d="M92.7863 138.713L92.698 160.338C92.5212 156.896 92.698 153.542 91.991 150.099C91.9026 149.658 91.8143 149.305 91.8143 148.952L91.9026 127.326C91.9026 127.679 91.991 128.032 92.0794 128.474C92.7863 131.828 92.6096 135.27 92.7863 138.713Z" fill="#CF2145"/>
<path d="M68.2199 129.533L68.1315 151.158L68.2199 129.533Z" fill="#D42247"/>
<path d="M68.2199 129.533L68.1315 151.158C68.1315 151.247 68.1315 151.247 68.1315 151.335L68.2199 129.709C68.2199 129.709 68.2199 129.621 68.2199 129.533Z" fill="#D52247"/>
<path d="M68.2198 129.709L68.1315 151.335C68.1315 151.423 68.1315 151.423 68.0431 151.511L68.1315 129.886C68.2198 129.798 68.2198 129.798 68.2198 129.709Z" fill="#D62348"/>
<path d="M68.2198 129.886L68.1315 151.511C68.1315 151.6 68.1315 151.6 68.0431 151.688L68.1315 130.062C68.1315 129.974 68.1315 129.974 68.2198 129.886Z" fill="#D82348"/>
<path d="M68.1315 130.062L68.0431 151.688C68.0431 151.776 67.9548 151.776 67.9548 151.864L68.0431 130.239C68.0431 130.151 68.0431 130.062 68.1315 130.062Z" fill="#D92349"/>
<path d="M68.0431 130.239L67.9547 151.864C67.8664 151.953 67.8664 152.041 67.778 152.041L67.8664 130.415C67.8664 130.327 67.9547 130.239 68.0431 130.239Z" fill="#DB2349"/>
<path d="M67.778 130.415L67.6896 152.041C67.5129 152.129 67.3362 152.306 67.1594 152.394L67.2478 130.768C67.5129 130.68 67.6896 130.592 67.778 130.415Z" fill="#DC234A"/>
<path d="M67.2478 130.857L67.1595 152.482C66.8944 152.659 66.5409 152.835 66.1874 152.924C54.346 158.043 42.593 163.163 31.0167 168.547C30.2214 168.9 29.5144 169.165 28.8075 169.43L28.8959 147.804C29.6028 147.539 30.3981 147.275 31.1051 146.921C42.6814 141.625 54.4344 136.418 66.2758 131.298C66.7176 131.122 66.9827 130.945 67.2478 130.857Z" fill="#DE244A"/>
<path d="M67.2478 130.857L67.1595 152.482C66.8944 152.659 66.5409 152.835 66.1874 152.924C54.346 158.043 42.593 163.163 31.0167 168.547C30.2214 168.9 29.5144 169.165 28.8075 169.43L28.8959 147.804C29.6028 147.539 30.3981 147.275 31.1051 146.921C42.6814 141.625 54.4344 136.418 66.2758 131.298C66.7176 131.122 66.9827 130.945 67.2478 130.857Z" fill="#DE244A"/>
<path d="M28.8959 147.804L28.8075 169.43C28.1005 169.694 27.3936 169.871 26.6866 169.959L26.775 148.334C27.482 148.245 28.1889 147.981 28.8959 147.804Z" fill="#DC234A"/>
<path d="M26.775 148.334L26.6866 169.959C26.2448 170.048 25.8913 170.048 25.4495 170.136L25.5378 148.51C25.9797 148.422 26.4215 148.422 26.775 148.334Z" fill="#DB2349"/>
<path d="M25.5378 148.51L25.4495 170.136C25.096 170.136 24.8309 170.224 24.4774 170.224L24.5658 148.599C24.9193 148.51 25.2727 148.51 25.5378 148.51Z" fill="#D92349"/>
<path d="M24.5658 148.599L24.4774 170.224C24.2123 170.224 23.8589 170.224 23.5938 170.224L23.6821 148.599C24.0356 148.599 24.3007 148.599 24.5658 148.599Z" fill="#D82348"/>
<path d="M23.7705 148.599L23.6821 170.224C23.417 170.224 23.1519 170.224 22.7985 170.136L22.8868 148.51C23.1519 148.51 23.417 148.599 23.7705 148.599Z" fill="#D62348"/>
<path d="M22.8868 148.51L22.7984 170.136C22.5333 170.136 22.1798 170.048 21.9147 170.048L22.0031 148.422C22.3566 148.51 22.6217 148.51 22.8868 148.51Z" fill="#D52247"/>
<path d="M22.0031 148.422L21.9147 170.048C21.5613 169.959 21.2962 169.959 20.9427 169.871L21.031 148.245C21.3845 148.334 21.738 148.422 22.0031 148.422Z" fill="#D42247"/>
<path d="M21.031 148.245L20.9427 169.871C20.5892 169.783 20.1474 169.694 19.7939 169.606L19.8822 147.981C20.3241 148.069 20.6776 148.157 21.031 148.245Z" fill="#D22246"/>
<path d="M19.8823 147.981L19.7939 169.606C19.5288 169.518 19.2637 169.43 18.9986 169.341C12.4593 167.135 5.65491 165.016 -0.619263 162.545L-0.530889 140.919C5.74328 143.391 12.4593 145.509 19.0869 147.716C19.352 147.804 19.6171 147.892 19.8823 147.981Z" fill="#D12246"/>
<path d="M67.2478 130.857L67.1595 152.482C66.8944 152.659 66.5409 152.835 66.1874 152.924C54.346 158.043 42.593 163.163 31.0167 168.547C30.2214 168.9 29.5144 169.165 28.8075 169.43L28.8959 147.804C29.6028 147.539 30.3981 147.275 31.1051 146.921C42.6814 141.625 54.4344 136.418 66.2758 131.298C66.7176 131.122 66.9827 130.945 67.2478 130.857Z" fill="#DE244A"/>
<path d="M67.2478 130.857L67.1595 152.482C66.8944 152.659 66.5409 152.835 66.1874 152.924C54.346 158.043 42.593 163.163 31.0167 168.547C30.2214 168.9 29.5144 169.165 28.8075 169.43L28.8959 147.804C29.6028 147.539 30.3981 147.275 31.1051 146.921C42.6814 141.625 54.4344 136.418 66.2758 131.298C66.7176 131.122 66.9827 130.945 67.2478 130.857Z" fill="#DE244A"/>
<path d="M89.6934 140.478L89.6051 162.103C89.34 162.103 89.0748 162.192 88.7214 162.192L88.8097 140.566C89.1632 140.566 89.4283 140.566 89.6934 140.478Z" fill="#E7E7E7"/>
<path d="M88.8981 140.566L88.8097 162.192C88.3679 162.192 88.0144 162.28 87.5726 162.28L87.6609 140.654C88.1028 140.654 88.4563 140.654 88.8981 140.566Z" fill="#E5E5E5"/>
<path d="M87.661 140.654L87.5727 162.28C87.2192 162.28 86.8657 162.28 86.6006 162.28L86.689 140.654C87.0424 140.654 87.3075 140.654 87.661 140.654Z" fill="#E3E3E3"/>
<path d="M86.6888 140.654L86.6005 162.28C86.3354 162.28 85.9819 162.28 85.7168 162.192L85.8052 140.566C86.0703 140.654 86.4237 140.654 86.6888 140.654Z" fill="#E2E2E2"/>
<path d="M85.8052 140.654L85.7168 162.28C85.4517 162.28 85.1866 162.192 84.8331 162.192L84.9215 140.566C85.275 140.566 85.5401 140.566 85.8052 140.654Z" fill="#E0E0E0"/>
<path d="M84.9215 140.566L84.8331 162.192C84.568 162.192 84.2146 162.103 83.9495 162.015L84.0378 140.39C84.3913 140.478 84.6564 140.478 84.9215 140.566Z" fill="#DFDFDF"/>
<path d="M84.1262 140.39L84.0378 162.015C83.6844 161.927 83.4193 161.839 83.0658 161.75L83.1542 140.125C83.4193 140.213 83.7727 140.301 84.1262 140.39Z" fill="#DDDDDD"/>
<path d="M83.1542 140.125L83.0658 161.75C82.624 161.662 82.1822 161.486 81.8287 161.309L81.917 139.683C82.2705 139.86 82.7124 140.037 83.1542 140.125Z" fill="#DCDCDC"/>
<path d="M81.917 139.683L81.8286 161.309C81.1217 161.044 80.4148 160.691 79.7962 160.338C78.6474 159.632 77.587 158.838 76.6149 158.043C76.1731 157.69 75.7312 157.337 75.2894 157.072C75.0243 156.896 74.7592 156.807 74.4057 156.631L74.4941 135.005C74.7592 135.094 75.0243 135.27 75.3777 135.447C75.8196 135.711 76.2614 135.976 76.7033 136.418C77.6753 137.212 78.7358 138.006 79.8845 138.713C80.5031 139.154 81.2101 139.419 81.917 139.683Z" fill="#DADADA"/>
<path d="M74.494 135.094L74.4056 156.719C74.2289 156.631 74.0522 156.631 73.9638 156.543L74.0522 134.917C74.1405 135.005 74.3173 135.094 74.494 135.094Z" fill="#DCDCDC"/>
<path d="M73.9638 135.005L73.8755 156.631C73.7871 156.631 73.6103 156.543 73.522 156.543L73.6103 134.917C73.7871 134.917 73.8755 134.917 73.9638 135.005Z" fill="#DDDDDD"/>
<path d="M73.6103 134.917L73.5219 156.543C73.4336 156.543 73.3452 156.543 73.2568 156.454L73.3452 134.829C73.4336 134.829 73.5219 134.829 73.6103 134.917Z" fill="#DFDFDF"/>
<path d="M73.3453 134.829L73.2569 156.454C73.1685 156.454 73.0802 156.454 72.9918 156.454L73.0802 134.829C73.1685 134.829 73.2569 134.829 73.3453 134.829Z" fill="#E0E0E0"/>
<path d="M73.0802 134.829L72.9918 156.454C72.9034 156.454 72.815 156.454 72.7267 156.454L72.8151 134.829C72.9034 134.829 72.9918 134.829 73.0802 134.829Z" fill="#E2E2E2"/>
<path d="M72.815 134.829L72.7266 156.454C72.6383 156.454 72.5499 156.454 72.4615 156.454L72.5499 134.829C72.6383 134.741 72.7267 134.741 72.815 134.829Z" fill="#E3E3E3"/>
<path d="M72.4615 134.829L72.3732 156.454C72.2848 156.454 72.108 156.454 72.0197 156.454L72.108 134.829C72.2848 134.829 72.3731 134.829 72.4615 134.829Z" fill="#E5E5E5"/>
<path d="M72.1081 134.829L72.0197 156.454C71.843 156.454 71.6662 156.454 71.4895 156.543L71.5779 134.917C71.843 134.829 71.9313 134.829 72.1081 134.829Z" fill="#E7E7E7"/>
<path d="M71.6662 134.917L71.5778 156.543C71.2243 156.631 70.8709 156.719 70.5174 156.807L70.6058 135.182C70.9592 135.005 71.3127 134.917 71.6662 134.917Z" fill="#E8E8E8"/>
<path d="M70.5174 135.182L70.429 156.807C69.8988 156.984 69.2802 157.249 68.6617 157.514C57.8807 162.457 46.4811 166.958 35.9653 172.078C34.8165 172.696 33.5793 173.137 32.4305 173.49L32.5189 151.864C33.6677 151.511 34.9049 150.982 36.0536 150.452C46.5695 145.333 57.9691 140.831 68.75 135.888C69.3686 135.623 69.9872 135.358 70.5174 135.182Z" fill="#EAEAEA"/>
<path d="M32.519 151.864L32.4306 173.49C31.3702 173.843 30.3097 174.108 29.2493 174.284L29.3377 152.659C30.3981 152.482 31.4585 152.217 32.519 151.864Z" fill="#E8E8E8"/>
<path d="M29.3377 152.659L29.2493 174.284C28.6307 174.373 27.9238 174.461 27.3052 174.549L27.3935 152.924C28.1005 152.924 28.7191 152.835 29.3377 152.659Z" fill="#E7E7E7"/>
<path d="M27.3936 152.924L27.3052 174.549C26.775 174.637 26.1564 174.637 25.6262 174.637L25.7146 153.012C26.2448 153.012 26.8634 153.012 27.3936 152.924Z" fill="#E5E5E5"/>
<path d="M25.7146 153.1L25.6262 174.726C25.096 174.726 24.5658 174.726 24.0356 174.726L24.1239 153.1C24.6542 153.1 25.1844 153.1 25.7146 153.1Z" fill="#E3E3E3"/>
<path d="M24.1239 153.1L24.0356 174.726C23.5054 174.726 22.8868 174.637 22.3566 174.637L22.4449 153.012C22.9752 153.012 23.5054 153.012 24.1239 153.1Z" fill="#E2E2E2"/>
<path d="M22.3566 153.012L22.2682 174.637C21.6496 174.549 20.9427 174.549 20.3241 174.373L20.4125 152.747C21.0311 152.835 21.738 152.924 22.3566 153.012Z" fill="#E0E0E0"/>
<path d="M20.4125 152.747L20.3241 174.373C19.5288 174.284 18.6451 174.108 17.8498 173.931L17.9382 152.306C18.7335 152.482 19.6172 152.659 20.4125 152.747Z" fill="#DFDFDF"/>
<path d="M17.9382 152.306L17.8498 173.931C17.0545 173.755 16.1708 173.578 15.3755 173.313C14.0499 172.96 12.8128 172.607 11.5756 172.254L11.664 150.629C12.9012 150.982 14.2267 151.335 15.4638 151.688C16.2592 151.953 17.0545 152.129 17.9382 152.306Z" fill="#DDDDDD"/>
<path d="M11.5756 150.717L11.4873 172.342C10.6919 172.078 9.80826 171.813 9.01294 171.548C5.56656 170.401 2.29692 169.165 -0.972717 167.929L-0.884357 146.304C2.29691 147.539 5.65492 148.775 9.1013 149.923C9.89662 150.187 10.6919 150.452 11.5756 150.717Z" fill="#DCDCDC"/>
<path d="M92.1678 128.474C92.7863 131.828 92.698 135.27 92.8747 138.713C91.8143 139.33 90.8422 139.948 89.7818 140.478C85.4517 141.096 82.4472 140.213 79.9729 138.713C78.8241 138.006 77.7637 137.212 76.7916 136.418C76.3498 136.065 75.9079 135.711 75.4661 135.447C73.522 134.299 71.843 134.476 68.9268 135.8C58.1458 140.743 46.7463 145.244 36.2304 150.364C29.426 153.718 22.8867 153.542 15.5521 151.688C13.4313 151.158 11.2221 150.54 9.27797 149.923C-3.00527 145.862 -13.963 140.919 -23.7719 135.27C-30.5763 131.298 -36.8504 127.061 -42.506 122.383C-47.543 118.234 -51.3429 113.645 -55.0544 109.055C-56.9985 106.671 -56.645 104.023 -53.4637 101.64C-29.6042 83.5453 -5.92143 65.3622 17.9381 47.2673C25.1843 41.7065 30.0446 40.559 41.3558 43.0305C50.8996 45.0606 59.9132 47.9735 68.7501 50.9746C75.3777 53.1812 81.3868 56.1823 87.5726 58.8304C94.0235 62.5376 100.474 66.2448 106.925 69.9521C111.52 73.5711 116.292 77.1018 120.711 80.7207C127.427 86.3699 133.348 92.3721 135.733 99.1687C137.236 103.494 135.292 106.848 128.841 109.496C117.264 114.351 106.13 119.558 94.6421 124.413C91.9026 125.737 91.8143 126.796 92.1678 128.474ZM75.8195 127.061C89.605 120.971 102.86 115.145 116.204 109.231C94.5537 103.052 75.7312 95.3732 59.7365 86.1051C43.6534 76.837 30.3981 66.0683 19.7055 53.6226C18.8218 54.1522 17.8497 54.5935 17.0544 55.2114C-3.35874 70.6582 -23.4184 86.2816 -44.2734 101.552C-49.222 105.259 -49.3104 108.26 -45.6873 111.879C-45.0687 112.497 -44.6269 113.115 -44.0083 113.645C-37.6458 120.088 -29.781 125.825 -20.8557 131.033C-16.3489 133.681 -11.577 136.065 -6.54 138.448C1.23643 142.067 10.3384 144.803 18.9985 147.804C23.0635 149.216 27.0401 148.863 31.105 147.01C42.6813 141.714 54.4343 136.506 66.2757 131.386C68.4849 130.415 68.6617 129.621 67.6013 128.209C60.6201 118.852 53.9041 109.496 47.0114 100.14C46.5695 99.5217 45.7742 98.9039 44.8905 98.3743C44.4487 98.1095 44.0068 97.9329 43.565 97.7564C42.858 97.4916 42.2395 97.1385 41.6209 96.8737C38.9698 95.3732 38.1745 93.4313 39.8535 91.4894C41.7093 89.2827 46.3928 88.3117 50.281 89.2827C51.2531 89.5475 52.1368 89.9006 52.7553 90.2536C54.9646 91.4894 55.4948 93.343 54.4343 95.4614C53.9925 96.4324 53.7274 97.6681 54.346 98.5508C60.4434 107.289 66.7176 115.94 73.0801 124.59C73.6987 125.296 74.6707 126.002 75.8195 127.061ZM117.971 104.112C120.534 104.818 125.306 104.906 126.808 104.023C128.399 103.052 128.045 100.493 127.338 98.8156C126.19 96.1676 124.422 93.4313 122.125 91.048C113.73 82.133 103.656 74.2772 91.7259 67.3923C79.7078 60.4192 65.8339 54.5935 50.1926 49.7388C45.0673 48.15 39.3233 47.179 33.6677 46.4729C28.2772 45.7668 26.1564 47.179 27.3935 50.3567C28.1889 52.4751 29.5144 54.5935 31.1934 56.5354C39.5884 66.5097 51.8717 74.8068 64.6851 82.9274C73.9638 87.3408 82.889 92.019 92.6979 95.991C100.474 99.2569 109.311 101.728 117.971 104.112ZM84.8331 135.711C85.3634 135.535 85.8936 135.447 86.4238 135.27C85.8936 133.328 85.3634 131.386 84.8331 129.533C84.3913 129.444 83.9494 129.356 83.5076 129.356C82.3588 130.062 79.9729 131.122 80.238 131.563C81.2984 133.063 83.2425 134.387 84.8331 135.711Z" fill="#F4F4F4"/>
<path d="M-3.35868 107.731C1.05975 110.29 -0.177416 110.202 -6.80507 114.174C-13.0792 117.705 -13.256 118.411 -16.5256 116.557C-17.4977 116.028 -18.8232 115.145 -20.5906 114.086C-22.3579 113.027 -23.7718 112.32 -24.7439 111.791C-27.8368 110.026 -26.7764 109.761 -20.7673 106.318C-13.9629 102.346 -13.9629 101.64 -9.89797 104.023C-9.45612 104.288 -9.01427 104.553 -8.48406 104.906C-7.95385 105.171 -7.42365 105.524 -6.80507 105.877C-6.53996 106.054 -6.27485 106.23 -5.92138 106.407C-4.94932 106.848 -4.06563 107.289 -3.35868 107.731Z" fill="#E8254E"/>
<path d="M23.9472 128.562C19.4404 125.914 19.5288 121.853 24.0356 119.205C28.6307 116.557 35.877 116.557 40.4721 119.205C40.5605 119.205 40.5605 119.294 40.6489 119.294C45.0673 121.942 44.9789 126.09 40.5605 128.65C35.9653 131.298 28.7191 131.298 24.1239 128.65C24.0356 128.65 24.0356 128.65 23.9472 128.562Z" fill="#E8254E"/>
<path d="M83.5076 129.356C83.9495 129.444 84.3913 129.533 84.8331 129.533C85.3634 131.475 85.8936 133.416 86.4238 135.27C85.8936 135.447 85.3634 135.535 84.8331 135.711C83.2425 134.299 81.2984 132.975 80.238 131.475C79.9729 131.121 82.3588 130.062 83.5076 129.356Z" fill="#E8254E"/>
<path d="M92.7864 138.713L92.698 160.338C91.6376 160.956 90.6655 161.574 89.6051 162.103L89.6935 140.478C90.7539 139.86 91.8143 139.242 92.7864 138.713Z" fill="#EAEAEA"/>
<path d="M209.433 93.1665C217.651 97.9329 217.74 105.7 209.521 110.379L55.3181 199.882C47.1881 204.648 33.7561 204.648 25.5378 199.882L-129.726 110.379C-137.944 105.612 -138.032 97.8446 -129.814 93.1665L24.389 3.57484C32.519 -1.19161 45.951 -1.19161 54.1693 3.57484L209.433 93.1665ZM89.6934 140.478C90.7539 139.86 91.7259 139.242 92.7863 138.713C92.6096 135.27 92.7863 131.916 92.0794 128.474C91.7259 126.796 91.8143 125.737 94.377 124.59C105.865 119.647 116.999 114.527 128.576 109.673C135.027 107.024 136.971 103.582 135.468 99.3452C133.082 92.4603 127.073 86.5464 120.446 80.8973C116.116 77.19 111.255 73.6593 106.66 70.1286C100.209 66.4214 93.7584 62.7141 87.3075 59.0069C81.0333 56.3589 75.1126 53.3578 68.485 51.1511C59.6481 48.15 50.6345 45.3254 41.0907 43.207C29.7795 40.7355 24.9192 41.883 17.673 47.4438C-6.18651 65.5387 -29.8693 83.7218 -53.7288 101.817C-56.8217 104.2 -57.2636 106.848 -55.3195 109.231C-51.608 113.821 -47.8081 118.499 -42.7711 122.56C-37.1155 127.149 -30.8414 131.475 -24.037 135.447C-14.2281 141.096 -3.27034 146.039 9.01289 150.099C11.0454 150.805 13.1662 151.335 15.2871 151.864C22.6217 153.806 29.1609 153.895 35.9653 150.54C46.4812 145.421 57.8807 140.919 68.6617 135.976C71.5779 134.652 73.3452 134.564 75.201 135.623C75.6428 135.888 76.0847 136.153 76.5265 136.594C77.4986 137.389 78.559 138.183 79.7078 138.889C82.3589 140.213 85.3634 141.096 89.6934 140.478Z" fill="#E8254E"/>
<path d="M20.3241 84.428C18.6451 88.2235 17.2312 91.5777 15.6406 95.2849C10.6919 92.4603 6.45022 89.9888 1.41321 87.076C7.86412 86.2816 13.6081 85.3989 20.3241 84.428Z" fill="#E8254E"/>
<path d="M45.8626 116.028C53.374 120.441 53.3739 127.503 45.951 131.828C38.3513 136.241 26.4215 136.241 18.7335 131.828C10.957 127.326 10.7803 120.529 18.38 116.116C26.1564 111.614 38.1745 111.614 45.8626 116.028ZM24.1239 128.65C28.7191 131.298 35.9653 131.298 40.5605 128.65C44.9789 126.09 45.0673 121.853 40.6489 119.294C40.5605 119.294 40.5605 119.205 40.4721 119.205C35.877 116.557 28.6307 116.557 24.0356 119.205C19.5288 121.853 19.4404 125.914 23.9472 128.562C24.0356 128.65 24.0356 128.65 24.1239 128.65Z" fill="#F4F4F4"/>
<path d="M19.7055 53.5343C30.3981 65.98 43.6534 76.7487 59.7365 86.0168C75.8195 95.2849 94.642 102.964 116.204 109.143C102.86 115.057 89.605 120.882 75.8195 126.973C74.7591 125.914 73.6987 125.208 73.1685 124.413C66.8943 115.763 60.5318 107.024 54.4343 98.3742C53.8158 97.4916 53.9925 96.2558 54.5227 95.2849C55.5831 93.1665 54.9645 91.3128 52.8437 90.0771C52.1367 89.724 51.3414 89.3709 50.3694 89.1061C46.4811 88.1352 41.7976 89.1061 39.9419 91.3128C38.3512 93.2547 39.0582 95.1966 41.7093 96.6972C42.2395 97.0502 42.9464 97.315 43.6534 97.5798C44.0952 97.7564 44.6254 98.0212 44.9789 98.1977C45.8626 98.7273 46.5695 99.3452 47.0997 99.9631C53.9925 109.319 60.7969 118.676 67.6896 128.032C68.7501 129.444 68.6617 130.239 66.3641 131.21C54.5227 136.329 42.7697 141.449 31.1934 146.833C27.2168 148.687 23.2402 149.04 19.0869 147.628C10.4268 144.626 1.41316 141.89 -6.45164 138.271C-11.4887 135.976 -16.2606 133.505 -20.7674 130.857C-29.6926 125.737 -37.5574 120 -43.9199 113.468C-44.5385 112.85 -44.9804 112.232 -45.5989 111.703C-49.3104 108.084 -49.2221 105.083 -44.1851 101.375C-23.4184 86.105 -3.27038 70.4817 17.1428 55.0349C17.7614 54.5935 18.8218 54.0639 19.7055 53.5343ZM45.9509 116.028C38.1745 111.526 26.1564 111.614 18.3799 116.204C10.8686 120.618 11.0453 127.414 18.7334 131.828C26.4215 136.241 38.4396 136.241 45.9509 131.828C53.4623 127.503 53.4623 120.441 45.9509 116.028ZM-8.39576 88.2235C-6.8935 89.1061 -5.4796 89.9888 -3.88896 90.8715C-2.82854 91.4894 -1.85648 92.019 -0.796059 92.6368C0.441101 93.343 1.5899 94.0491 2.82706 94.667C5.03628 95.9027 7.24549 97.2268 9.45471 98.5508C10.8686 99.3452 12.2825 100.228 13.7848 101.022C17.4079 103.052 20.5008 102.523 21.7379 99.6983C24.3006 94.0491 26.6866 88.4 28.9842 82.6626C29.5144 81.3386 29.2493 80.3677 28.2772 79.838C27.3052 79.3084 25.7145 79.1319 23.5937 79.3967C13.608 80.809 3.71074 82.2213 -6.18655 83.7218C-10.8701 84.428 -11.6654 86.1933 -8.39576 88.2235ZM7.33385 111.967C9.80817 110.555 9.71981 109.231 7.33385 107.819C4.24095 106.054 1.23642 104.288 -1.85648 102.523C-4.59591 100.934 -7.42371 99.3452 -10.1631 97.7564C-12.6375 96.3441 -14.935 96.4324 -17.321 97.8446C-23.0649 101.199 -28.8089 104.553 -34.6412 107.907C-37.0272 109.319 -37.2923 110.643 -34.818 112.056C-31.9018 113.733 -28.8973 115.498 -25.9811 117.175C-23.065 118.852 -20.0604 120.618 -17.1443 122.295C-14.8467 123.619 -12.5491 123.531 -10.3399 122.206C-7.51208 120.529 -4.59591 118.852 -1.67974 117.175C1.32479 115.41 4.32932 113.645 7.33385 111.967Z" fill="#E8254E"/>
<path d="M21.738 99.61C20.5008 102.435 17.4079 102.964 13.7848 100.934C12.2825 100.14 10.8686 99.3452 9.45475 98.4626C7.24553 97.2268 5.03631 95.9028 2.8271 94.5788C1.58994 93.8726 0.441143 93.1665 -0.796018 92.5486C-1.85644 91.9307 -2.91686 91.4011 -3.88892 90.7833C-5.39118 89.9006 -6.89346 89.0179 -8.39572 88.1352C-11.6654 86.1051 -10.87 84.3397 -6.36324 83.6336C3.53404 82.133 13.5197 80.7208 23.417 79.3085C25.6262 79.0437 27.2168 79.1319 28.1005 79.7498C29.0726 80.2794 29.3377 81.2504 28.8075 82.5744C26.6866 88.3118 24.3007 93.9609 21.738 99.61ZM1.4132 87.1643C6.45021 90.0771 10.6919 92.5486 15.6405 95.3732C17.2312 91.5777 18.6451 88.3118 20.3241 84.5163C13.6081 85.3989 7.86411 86.2816 1.4132 87.1643Z" fill="#F4F4F4"/>
<path d="M127.339 98.9038C128.045 100.581 128.399 103.141 126.808 104.112C125.306 104.994 120.534 104.818 117.971 104.2C109.311 101.817 100.474 99.3452 92.6097 96.1675C82.8007 92.1955 73.8755 87.4291 64.5968 83.1039C51.7833 74.8951 39.5001 66.6862 31.1051 56.7119C29.4261 54.77 28.1006 52.6516 27.3052 50.5332C26.0681 47.3556 28.2773 45.9433 33.5794 46.6494C39.235 47.3556 44.979 48.3265 50.1044 49.9153C65.7456 54.6818 79.6195 60.5957 91.6376 67.5688C103.567 74.4537 113.641 82.3095 122.036 91.2246C124.422 93.5195 126.19 96.1675 127.339 98.9038Z" fill="#E8254E"/>
<path d="M215.619 101.817L215.53 123.442C215.53 123.531 215.53 123.531 215.53 123.619L215.619 101.993C215.619 101.905 215.619 101.905 215.619 101.817Z" fill="#D42247"/>
<path d="M215.619 101.993L215.53 123.619C215.53 124.06 215.442 124.413 215.354 124.855L215.442 103.229C215.619 102.788 215.619 102.435 215.619 101.993Z" fill="#D52247"/>
<path d="M215.53 103.229L215.442 124.855C215.354 125.296 215.265 125.649 215.089 126.09L215.177 104.465C215.265 104.023 215.442 103.582 215.53 103.229Z" fill="#D62348"/>
<path d="M215.177 104.376L215.089 126.002C214.912 126.443 214.735 126.796 214.558 127.238L214.647 105.612C214.823 105.171 215 104.818 215.177 104.376Z" fill="#D82348"/>
<path d="M214.558 105.612L214.47 127.238C214.205 127.679 213.94 128.12 213.586 128.473L213.675 106.848C214.028 106.495 214.382 106.053 214.558 105.612Z" fill="#D92349"/>
<path d="M213.763 106.848L213.675 128.473C213.321 128.915 212.879 129.444 212.349 129.886L212.437 108.26C212.968 107.819 213.409 107.378 213.763 106.848Z" fill="#DB2349"/>
<path d="M212.437 108.26L212.349 129.886C211.642 130.592 210.758 131.21 209.698 131.828L209.786 110.202C210.847 109.584 211.731 108.966 212.437 108.26Z" fill="#DC234A"/>
<path d="M209.786 110.202L209.698 131.828C209.61 131.916 209.521 131.916 209.433 132.004L209.521 110.379C209.61 110.29 209.698 110.29 209.786 110.202Z" fill="#DE244A"/>
<path d="M-1.67975 117.175C-4.59591 118.852 -7.51208 120.529 -10.3399 122.207C-12.6375 123.531 -14.8467 123.619 -17.1443 122.295C-20.0604 120.618 -23.065 118.852 -25.9811 117.175C-28.8973 115.498 -31.9018 113.733 -34.818 112.056C-37.2923 110.643 -37.0272 109.319 -34.6412 107.907C-28.8089 104.553 -23.0649 101.199 -17.321 97.8446C-14.935 96.4324 -12.6375 96.3441 -10.1631 97.7564C-7.33534 99.3452 -4.59591 101.022 -1.85648 102.611C1.14805 104.376 4.24096 106.142 7.24549 107.819C9.71981 109.231 9.80817 110.555 7.33385 111.967C4.32932 113.645 1.32478 115.41 -1.67975 117.175ZM-6.80513 114.086C-0.177483 110.202 1.05968 110.202 -3.35875 107.642C-4.0657 107.201 -4.94939 106.76 -5.92144 106.142C-6.18655 105.965 -6.54002 105.789 -6.80513 105.612C-7.42371 105.259 -7.95392 104.906 -8.48413 104.641C-9.01434 104.288 -9.54456 104.023 -9.89803 103.759C-13.8746 101.464 -13.963 102.17 -20.7674 106.054C-26.7764 109.496 -27.8369 109.761 -24.744 111.526C-23.7719 112.056 -22.358 112.85 -20.5906 113.821C-18.7349 114.88 -17.4977 115.675 -16.5257 116.293C-13.256 118.411 -13.0793 117.705 -6.80513 114.086Z" fill="#F4F4F4"/>
<path d="M209.521 110.379V132.004L55.2297 221.508L55.318 199.882L209.521 110.379Z" fill="#E1244B"/>
<path d="M25.5378 199.882L25.4494 221.508L-129.814 132.004L-129.726 110.379L25.5378 199.882Z" fill="#D02246"/>
<path d="M55.3181 199.882L55.2297 221.508C53.8158 222.302 52.3135 223.008 50.6345 223.538L50.7229 201.912C52.4019 201.383 53.9042 200.676 55.3181 199.882Z" fill="#DE244A"/>
<path d="M50.7229 201.912L50.6345 223.538C49.3974 223.979 47.9835 224.244 46.658 224.509L46.7463 202.883C48.0719 202.618 49.4857 202.353 50.7229 201.912Z" fill="#DC234A"/>
<path d="M46.7463 202.883L46.6579 224.509C45.7742 224.685 44.8906 224.773 43.9185 224.862L44.0069 203.236C44.9789 203.236 45.8626 203.06 46.7463 202.883Z" fill="#DB2349"/>
<path d="M44.0069 203.324L43.9185 224.95C43.1232 225.038 42.3278 225.038 41.5325 225.127L41.6209 203.501C42.5046 203.413 43.2115 203.324 44.0069 203.324Z" fill="#D92349"/>
<path d="M41.7093 203.413L41.6209 225.038C40.9139 225.038 40.207 225.038 39.4117 225.038L39.5001 203.413C40.207 203.501 40.914 203.501 41.7093 203.413Z" fill="#D82348"/>
<path d="M39.5001 203.413L39.4117 225.038C38.7048 225.038 37.9978 224.95 37.2909 224.95L37.3793 203.324C38.0862 203.413 38.7932 203.413 39.5001 203.413Z" fill="#D62348"/>
<path d="M37.3792 203.324L37.2908 224.95C36.5839 224.862 35.8769 224.773 35.2584 224.685L35.3467 203.06C36.0537 203.236 36.7606 203.324 37.3792 203.324Z" fill="#D52247"/>
<path d="M35.3467 203.148L35.2584 224.773C34.5514 224.685 33.8445 224.509 33.1375 224.42L33.2259 202.795C33.9328 202.883 34.6398 202.971 35.3467 203.148Z" fill="#D42247"/>
<path d="M33.2259 202.707L33.1375 224.332C32.4305 224.156 31.6352 223.979 30.9283 223.803L31.0167 202.177C31.812 202.442 32.5189 202.618 33.2259 202.707Z" fill="#D22246"/>
<path d="M31.0167 202.177L30.9283 223.802C30.0446 223.538 29.1609 223.273 28.3656 222.92L28.454 201.294C29.3377 201.647 30.2213 201.912 31.0167 202.177Z" fill="#D12246"/>
<path d="M28.5424 201.382L28.454 223.008C27.3936 222.566 26.4215 222.125 25.4495 221.595L25.5378 199.97C26.4215 200.411 27.4819 200.941 28.5424 201.382Z" fill="#CF2145"/>
</svg>
