<svg width="31" height="33" viewBox="0 0 31 33" fill="none" xmlns="http://www.w3.org/2000/svg">
<path fill-rule="evenodd" clip-rule="evenodd" d="M16.2755 0C17.4105 0 18.5137 0.466041 19.3047 1.27606C20.0942 2.09084 20.5301 3.20839 20.4968 4.34179C20.5 4.597 20.584 4.89184 20.7361 5.15022C20.9882 5.57822 21.3861 5.8794 21.8584 6.00305C22.3308 6.12035 22.8254 6.05694 23.2455 5.80807C25.2745 4.64931 27.8567 5.34362 29.0155 7.35678L30.0031 9.06719C30.0284 9.11316 30.0506 9.15754 30.0696 9.20351C31.119 11.1866 30.4184 13.6832 28.4686 14.8229C28.1849 14.9862 27.955 15.2145 27.7965 15.4903C27.5508 15.9167 27.4826 16.424 27.6063 16.89C27.7331 17.3656 28.0359 17.7603 28.4623 18.0044C29.4245 18.5576 30.1426 19.4897 30.4295 20.566C30.7164 21.6408 30.5595 22.8075 29.9999 23.7697L28.9473 25.5229C27.7886 27.5138 25.2063 28.2034 23.1979 27.043C22.93 26.8893 22.6209 26.8053 22.3134 26.7973H22.3039C21.8458 26.7973 21.375 26.9923 21.0326 27.3331C20.6854 27.6803 20.4952 28.1432 20.4984 28.6346C20.4873 30.9632 18.593 32.8464 16.2755 32.8464H14.2893C11.9606 32.8464 10.0664 30.9537 10.0664 28.625C10.0632 28.3381 9.98075 28.0401 9.82699 27.7817C9.57812 27.3474 9.17548 27.0367 8.71103 26.9131C8.24974 26.7894 7.74407 26.8576 7.32876 27.0985C6.33327 27.6533 5.16183 27.7881 4.09025 27.4869C3.02026 27.1841 2.0961 26.4486 1.55398 25.4737L0.563243 23.7665C-0.595518 21.7565 0.094032 19.1806 2.10086 18.0202C2.66994 17.6921 3.02343 17.0802 3.02343 16.424C3.02343 15.7677 2.66994 15.1542 2.10086 14.8261C0.0924469 13.6594 -0.595518 11.0772 0.561658 9.06719L1.6364 7.30289C2.77931 5.31508 5.36314 4.61444 7.3779 5.77161C7.65213 5.93489 7.95015 6.01731 8.25291 6.02048C9.24048 6.02048 10.0664 5.20571 10.0822 4.20388C10.0759 3.09901 10.5118 2.03853 11.306 1.23802C12.1033 0.439093 13.1622 0 14.2893 0H16.2755ZM16.2755 2.37776H14.2893C13.7978 2.37776 13.3381 2.56956 12.991 2.91513C12.6454 3.26228 12.4568 3.72357 12.46 4.21497C12.4267 6.5325 10.5324 8.39824 8.23865 8.39824C7.50313 8.39032 6.79456 8.19217 6.17951 7.82441C5.31559 7.33301 4.18695 7.63578 3.68128 8.51555L2.60812 10.2798C2.11671 11.1327 2.41789 12.2597 3.29291 12.7686C4.59117 13.5199 5.40119 14.9212 5.40119 16.424C5.40119 17.9267 4.59117 19.3264 3.28974 20.0794C2.41948 20.5835 2.1183 21.7042 2.62238 22.576L3.62263 24.3007C3.86991 24.7461 4.27413 25.0679 4.74176 25.1995C5.2078 25.3295 5.72139 25.274 6.14939 25.0362C6.7787 24.6669 7.51105 24.4751 8.24657 24.4751C8.60958 24.4751 8.97258 24.521 9.32766 24.6161C10.3992 24.9046 11.3297 25.6211 11.8814 26.5833C12.2396 27.1873 12.4378 27.8927 12.4441 28.6124C12.4441 29.6427 13.2716 30.4686 14.2893 30.4686H16.2755C17.2884 30.4686 18.1159 29.6475 18.1206 28.6346C18.1143 27.5154 18.5518 26.4518 19.3523 25.6513C20.1417 24.8618 21.245 24.3879 22.3483 24.4196C23.0711 24.437 23.767 24.632 24.3805 24.9807C25.2634 25.4864 26.3905 25.1852 26.9009 24.3134L27.9534 22.5586C28.188 22.1544 28.2562 21.6471 28.131 21.1795C28.0073 20.7119 27.6966 20.3061 27.2782 20.0667C26.2985 19.5024 25.5995 18.5925 25.3094 17.5019C25.0225 16.4319 25.1794 15.2636 25.7389 14.3014C26.1035 13.6674 26.6377 13.1332 27.2782 12.7654C28.1373 12.2629 28.4385 11.139 27.9392 10.264C27.9186 10.2291 27.8995 10.1927 27.8837 10.1546L26.9548 8.54408C26.4491 7.66431 25.3236 7.36154 24.4407 7.86404C23.4864 8.42836 22.3514 8.59005 21.2608 8.30313C20.1718 8.02097 19.2588 7.33142 18.6897 6.35813C18.3251 5.74942 18.127 5.04085 18.1206 4.31959C18.1349 3.77747 17.9447 3.29082 17.5991 2.93415C17.2551 2.57908 16.7716 2.37776 16.2755 2.37776ZM15.2893 11.0552C18.2489 11.0552 20.6567 13.4646 20.6567 16.4241C20.6567 19.3836 18.2489 21.7899 15.2893 21.7899C12.3298 21.7899 9.92194 19.3836 9.92194 16.4241C9.92194 13.4646 12.3298 11.0552 15.2893 11.0552ZM15.2893 13.4329C13.6408 13.4329 12.2997 14.7756 12.2997 16.4241C12.2997 18.0727 13.6408 19.4122 15.2893 19.4122C16.9379 19.4122 18.279 18.0727 18.279 16.4241C18.279 14.7756 16.9379 13.4329 15.2893 13.4329Z" fill="white"/>
</svg>
