<svg width="59" height="53" viewBox="0 0 59 53" fill="none" xmlns="http://www.w3.org/2000/svg">
<path fill-rule="evenodd" clip-rule="evenodd" d="M47.7932 32.5795C53.4523 32.5795 58.0561 37.1602 58.0561 42.7897C58.0561 48.4191 53.4523 52.9998 47.7932 52.9998C42.1307 52.9998 37.5237 48.4191 37.5237 42.7897C37.5237 37.1602 42.1307 32.5795 47.7932 32.5795ZM47.7932 37.5263C44.8581 37.5263 42.4704 39.8876 42.4704 42.7897C42.4704 45.6951 44.8581 48.053 47.7932 48.053C50.725 48.053 53.1093 45.6951 53.1093 42.7897C53.1093 39.8876 50.725 37.5263 47.7932 37.5263ZM23.6938 40.4442C25.0591 40.4442 26.1672 41.5523 26.1672 42.9176C26.1672 44.2829 25.0591 45.391 23.6938 45.391H2.91401C1.5487 45.391 0.440625 44.2829 0.440625 42.9176C0.440625 41.5523 1.5487 40.4442 2.91401 40.4442H23.6938ZM10.6102 0.563965C16.2726 0.563965 20.8764 5.14798 20.8764 10.7774C20.8764 16.4068 16.2726 20.9843 10.6102 20.9843C4.9511 20.9843 0.343998 16.4068 0.343998 10.7774C0.343998 5.14798 4.9511 0.563965 10.6102 0.563965ZM10.6102 5.51074C7.67842 5.51074 5.29078 7.872 5.29078 10.7774C5.29078 13.6795 7.67842 16.0375 10.6102 16.0375C13.5453 16.0375 15.9296 13.6795 15.9296 10.7774C15.9296 7.872 13.5453 5.51074 10.6102 5.51074ZM53.7398 8.48013C55.1052 8.48013 56.2132 9.58821 56.2132 10.9535C56.2132 12.3188 55.1052 13.4269 53.7398 13.4269H32.9634C31.5981 13.4269 30.49 12.3188 30.49 10.9535C30.49 9.58821 31.5981 8.48013 32.9634 8.48013H53.7398Z" fill="white"/>
</svg>
