<svg width="31" height="34" viewBox="0 0 31 34" fill="none" xmlns="http://www.w3.org/2000/svg">
<path fill-rule="evenodd" clip-rule="evenodd" d="M21.5541 0C26.8036 0 30.33 3.59485 30.33 8.94455V24.2991C30.33 29.6955 26.9121 33.2052 21.6225 33.2386L8.77758 33.2436C3.52806 33.2436 0 29.6488 0 24.2991V8.94455C0 3.54643 3.41787 0.038403 8.70746 0.00667878L21.5524 0H21.5541ZM21.5541 2.50454L8.71581 2.51122C4.82876 2.5346 2.50454 4.93896 2.50454 8.94455V24.2991C2.50454 28.3314 4.85046 30.7391 8.77591 30.7391L21.6142 30.7341C25.5012 30.7107 27.8255 28.303 27.8255 24.2991V8.94455C27.8255 4.91224 25.4812 2.50454 21.5541 2.50454ZM21.232 22.497C21.9233 22.497 22.4843 23.058 22.4843 23.7492C22.4843 24.4405 21.9233 25.0015 21.232 25.0015H9.17681C8.48555 25.0015 7.92454 24.4405 7.92454 23.7492C7.92454 23.058 8.48555 22.497 9.17681 22.497H21.232ZM21.232 15.5068C21.9233 15.5068 22.4843 16.0678 22.4843 16.7591C22.4843 17.4503 21.9233 18.0113 21.232 18.0113H9.17681C8.48555 18.0113 7.92454 17.4503 7.92454 16.7591C7.92454 16.0678 8.48555 15.5068 9.17681 15.5068H21.232ZM13.7763 8.53281C14.4676 8.53281 15.0286 9.09383 15.0286 9.78508C15.0286 10.4763 14.4676 11.0374 13.7763 11.0374H9.17631C8.48505 11.0374 7.92404 10.4763 7.92404 9.78508C7.92404 9.09383 8.48505 8.53281 9.17631 8.53281H13.7763Z" fill="white"/>
</svg>
