<svg width="58" height="58" viewBox="0 0 58 58" fill="none" xmlns="http://www.w3.org/2000/svg">
<path fill-rule="evenodd" clip-rule="evenodd" d="M27.5039 0.481511C28.6681 0.481511 29.613 1.42638 29.613 2.59058C29.613 3.75479 28.6681 4.69966 27.5039 4.69966H16.9895C9.723 4.69966 5.0296 9.67707 5.0296 17.3794V40.7592C5.0296 48.4615 9.723 53.439 16.9895 53.439H41.8034C49.0699 53.439 53.7661 48.4615 53.7661 40.7592V29.4321C53.7661 28.2679 54.711 27.323 55.8752 27.323C57.0394 27.323 57.9842 28.2679 57.9842 29.4321V40.7592C57.9842 50.8659 51.4799 57.6571 41.8034 57.6571H16.9895C7.31303 57.6571 0.811455 50.8659 0.811455 40.7592V17.3794C0.811455 7.27273 7.31303 0.481511 16.9895 0.481511H27.5039ZM51.9962 2.95222L55.4185 6.37455C57.0861 8.03931 58.0028 10.2524 58 12.609C58 14.9655 57.0832 17.1758 55.4185 18.8378L34.3024 39.9538C32.753 41.5033 30.6889 42.3582 28.4954 42.3582H17.9613C17.3933 42.3582 16.8477 42.1276 16.4512 41.7198C16.0547 41.3149 15.8382 40.7665 15.8522 40.1957L16.1166 29.5687C16.17 27.454 17.0221 25.4659 18.5181 23.967H18.5209L39.5357 2.95222C42.9721 -0.47854 48.5598 -0.47854 51.9962 2.95222ZM37.8046 10.6461L21.5018 26.9507C20.7734 27.679 20.36 28.6464 20.3347 29.6728L20.1238 38.14H28.4954C29.564 38.14 30.5651 37.7266 31.3216 36.9702L47.7229 20.5644L37.8046 10.6461ZM42.5166 5.93586L40.7854 7.66249L50.7037 17.5836L52.4377 15.8541C53.3038 14.988 53.7818 13.835 53.7818 12.609C53.7818 11.3801 53.3038 10.2243 52.4377 9.35818L49.0153 5.93586C47.224 4.15018 44.3107 4.15018 42.5166 5.93586Z" fill="white"/>
</svg>
