<svg width="210" height="134" viewBox="0 0 210 134" fill="none" xmlns="http://www.w3.org/2000/svg">
<path d="M139.454 40.8065L139.401 53.6764C139.401 53.5188 139.295 53.4137 139.032 53.2561C136.554 51.8378 134.129 50.472 131.704 49.0537C129.278 47.6354 126.853 46.2696 124.428 44.8513C124.323 44.7988 124.217 44.7463 124.164 44.6937L124.217 31.8239C124.323 31.8764 124.375 31.9289 124.481 31.9814C126.906 33.3998 129.331 34.7655 131.756 36.1839C134.181 37.6022 136.607 38.9679 139.085 40.3863C139.348 40.5439 139.454 40.6489 139.454 40.8065Z" fill="#CF2145"/>
<path d="M124.217 31.8239L124.164 44.6937C124.112 44.6937 124.112 44.6412 124.059 44.6412L124.112 31.7713C124.112 31.8239 124.164 31.8239 124.217 31.8239Z" fill="#D12246"/>
<path d="M124.112 31.7713L124.059 44.6412H124.006L124.059 31.7713C124.059 31.7713 124.059 31.7713 124.112 31.7713Z" fill="#D22246"/>
<path d="M124.006 31.7713V44.6412H123.953L124.006 31.7713C124.006 31.7713 124.006 31.7713 124.006 31.7713Z" fill="#D42247"/>
<path d="M123.953 31.7713L123.901 44.6412H123.848L123.953 31.7713Z" fill="#D52247"/>
<path d="M123.901 31.7713L123.848 44.6412H123.795L123.901 31.7713Z" fill="#D62348"/>
<path d="M123.848 31.7713L123.795 44.6412H123.743L123.848 31.7713Z" fill="#D82348"/>
<path d="M123.795 31.7713L123.743 44.6412H123.69L123.743 31.7713C123.795 31.7713 123.795 31.7713 123.795 31.7713Z" fill="#D92349"/>
<path d="M123.743 31.7713L123.69 44.6412H123.637L123.69 31.7713C123.69 31.7713 123.743 31.7713 123.743 31.7713Z" fill="#DB2349"/>
<path d="M123.69 31.7713L123.637 44.6412C123.584 44.6412 123.532 44.6412 123.479 44.6937L123.532 31.8239C123.584 31.7713 123.637 31.7713 123.69 31.7713Z" fill="#DC234A"/>
<path d="M123.584 31.8239L123.532 44.6937C123.426 44.7463 123.321 44.7988 123.163 44.8513C120.316 46.5323 117.469 48.1607 114.569 49.8417C114.569 49.8417 114.516 49.8417 114.516 49.8942L114.569 37.0243C114.569 37.0243 114.622 37.0243 114.622 36.9718C117.521 35.3434 120.368 33.6624 123.215 31.9814C123.321 31.8764 123.426 31.8239 123.584 31.8239Z" fill="#DE244A"/>
<path d="M123.584 31.8239L123.532 44.6938C123.426 44.7463 123.321 44.7988 123.163 44.8514C120.316 46.5323 117.469 48.1608 114.569 49.8417C114.569 49.8417 114.516 49.8417 114.516 49.8942L114.569 37.0244C114.569 37.0244 114.622 37.0244 114.622 36.9718C117.521 35.3434 120.368 33.6624 123.215 31.9815C123.321 31.8764 123.426 31.8239 123.584 31.8239Z" fill="#DE244A"/>
<path d="M139.454 40.8065L139.401 53.6764C139.401 53.5188 139.295 53.4138 139.032 53.2562C136.554 51.8379 134.129 50.4721 131.704 49.0538C129.278 47.6354 126.853 46.2697 124.428 44.8514C124.323 44.7988 124.217 44.7463 124.164 44.6938L124.217 31.8239C124.323 31.8764 124.375 31.9289 124.481 31.9815C126.906 33.3998 129.331 34.7656 131.756 36.1839C134.181 37.6022 136.607 38.968 139.085 40.3863C139.348 40.5439 139.454 40.6489 139.454 40.8065Z" fill="#CF2145"/>
<path d="M139.454 40.8065L139.401 53.6764C139.401 53.5188 139.295 53.4138 139.032 53.2562C136.554 51.8379 134.129 50.4721 131.704 49.0538C129.278 47.6354 126.853 46.2697 124.428 44.8514C124.323 44.7988 124.217 44.7463 124.164 44.6938L124.217 31.8239C124.323 31.8764 124.375 31.9289 124.481 31.9815C126.906 33.3998 129.331 34.7656 131.756 36.1839C134.181 37.6022 136.607 38.968 139.085 40.3863C139.348 40.5439 139.454 40.6489 139.454 40.8065Z" fill="#CF2145"/>
<path d="M122.108 42.2774L122.055 55.1472C122.055 54.9896 121.95 54.8321 121.634 54.727C120.421 54.0441 119.261 53.3612 118.049 52.6783C117.68 52.4682 117.258 52.2056 116.889 51.9954C116.098 51.5227 115.307 51.1024 114.516 50.6297C114.253 50.4721 114.147 50.367 114.147 50.2619L114.2 37.3921C114.2 37.4971 114.305 37.6547 114.569 37.7598C115.36 38.2325 116.151 38.6528 116.941 39.1256C117.311 39.3357 117.732 39.5983 118.101 39.8084C119.261 40.4913 120.474 41.1742 121.686 41.8571C121.95 41.9622 122.108 42.1198 122.108 42.2774Z" fill="#DADADA"/>
<path d="M122.108 42.2774L122.055 55.1472L122.108 42.2774Z" fill="#D42247"/>
<path d="M122.108 42.2774L122.055 55.1472V55.1998L122.108 42.2774Z" fill="#D52247"/>
<path d="M122.108 42.3299L122.055 55.1998V55.2523L122.108 42.3824C122.055 42.3299 122.055 42.3299 122.108 42.3299Z" fill="#D62348"/>
<path d="M122.055 42.3824L122.003 55.2523C122.003 55.2523 122.003 55.3048 121.95 55.3048L122.003 42.4349C122.055 42.4349 122.055 42.3824 122.055 42.3824Z" fill="#D82348"/>
<path d="M122.055 42.435L122.003 55.3048C122.003 55.3574 121.95 55.3574 121.95 55.4099L122.003 42.54C122.003 42.4875 122.003 42.4875 122.055 42.435Z" fill="#D92349"/>
<path d="M121.95 42.54L121.897 55.4099L121.845 55.4624C119.894 57.6162 118.049 59.8224 116.098 61.9762C115.887 62.1863 115.729 62.4489 115.465 62.659L115.518 49.7892C115.729 49.579 115.94 49.3164 116.151 49.1063C118.101 46.9525 119.999 44.7988 121.897 42.5925C121.95 42.5925 121.95 42.54 121.95 42.54Z" fill="#DB2349"/>
<path d="M121.95 42.54L121.897 55.4099L121.845 55.4624C119.894 57.6162 118.049 59.8224 116.098 61.9762C115.887 62.1863 115.729 62.4489 115.465 62.659L115.518 49.7892C115.729 49.579 115.94 49.3164 116.151 49.1063C118.101 46.9525 119.999 44.7988 121.897 42.5925C121.95 42.5925 121.95 42.54 121.95 42.54Z" fill="#DB2349"/>
<path d="M121.95 42.54L121.897 55.4099L121.845 55.4624C119.894 57.6162 118.049 59.8224 116.098 61.9762C115.887 62.1863 115.729 62.4489 115.465 62.659L115.518 49.7892C115.729 49.579 115.94 49.3164 116.151 49.1063C118.101 46.9525 119.999 44.7988 121.897 42.5925C121.95 42.5925 121.95 42.54 121.95 42.54Z" fill="#DB2349"/>
<path d="M115.518 49.7892L115.465 62.659C115.36 62.7641 115.202 62.8692 115.096 62.9742L115.149 50.1044C115.307 49.9468 115.413 49.8942 115.518 49.7892Z" fill="#DC234A"/>
<path d="M115.149 50.0518L115.096 62.9217C114.938 63.0268 114.78 63.0793 114.569 63.1844L114.622 50.3145C114.833 50.2619 114.991 50.1569 115.149 50.0518Z" fill="#DE244A"/>
<path d="M114.569 50.3145L114.516 63.1844C114.358 63.2369 114.2 63.2894 113.989 63.2894L114.042 50.4195C114.253 50.4195 114.464 50.367 114.569 50.3145Z" fill="#DC234A"/>
<path d="M114.095 50.4195L114.042 63.2894C113.936 63.2894 113.778 63.3419 113.62 63.3419C107.61 63.9723 101.705 64.8128 95.7473 65.5482C90.317 66.2311 84.8867 66.8614 79.4036 67.5443C72.2334 68.4373 65.116 69.3304 57.9458 70.2234C55.5734 70.5386 53.2009 70.8012 50.8284 71.1164L50.8811 58.2465C53.2536 57.9313 55.6261 57.6687 57.9986 57.3535C65.1687 56.4605 72.2862 55.5675 79.4563 54.6745C84.8867 53.9916 90.317 53.3612 95.8001 52.6783C101.758 51.9429 107.715 51.1549 113.673 50.4721C113.831 50.4721 113.936 50.4721 114.095 50.4195Z" fill="#DB2349"/>
<path d="M114.095 50.4195L114.042 63.2894C113.936 63.2894 113.778 63.3419 113.62 63.3419C107.61 63.9723 101.705 64.8128 95.7473 65.5482C90.317 66.2311 84.8867 66.8614 79.4036 67.5443C72.2334 68.4373 65.116 69.3304 57.9458 70.2234C55.5734 70.5386 53.2009 70.8012 50.8284 71.1164L50.8811 58.2465C53.2536 57.9313 55.6261 57.6687 57.9986 57.3535C65.1687 56.4605 72.2862 55.5675 79.4563 54.6745C84.8867 53.9916 90.317 53.3612 95.8001 52.6783C101.758 51.9429 107.715 51.1549 113.673 50.4721C113.831 50.4721 113.936 50.4721 114.095 50.4195Z" fill="#DB2349"/>
<path d="M114.095 50.4195L114.042 63.2894C113.936 63.2894 113.778 63.3419 113.62 63.3419C107.61 63.9723 101.705 64.8128 95.7473 65.5482C90.317 66.2311 84.8867 66.8614 79.4036 67.5443C72.2334 68.4373 65.116 69.3304 57.9458 70.2234C55.5734 70.5386 53.2009 70.8012 50.8284 71.1164L50.8811 58.2465C53.2536 57.9313 55.6261 57.6687 57.9986 57.3535C65.1687 56.4605 72.2862 55.5675 79.4563 54.6745C84.8867 53.9916 90.317 53.3612 95.8001 52.6783C101.758 51.9429 107.715 51.1549 113.673 50.4721C113.831 50.4721 113.936 50.4721 114.095 50.4195Z" fill="#DB2349"/>
<path d="M114.095 50.4195L114.042 63.2894C113.936 63.2894 113.778 63.3419 113.62 63.3419C107.61 63.9723 101.705 64.8128 95.7473 65.5482C90.317 66.2311 84.8867 66.8614 79.4036 67.5443C72.2334 68.4373 65.116 69.3304 57.9458 70.2234C55.5734 70.5386 53.2009 70.8012 50.8284 71.1164L50.8811 58.2465C53.2536 57.9313 55.6261 57.6687 57.9986 57.3535C65.1687 56.4605 72.2862 55.5675 79.4563 54.6745C84.8867 53.9916 90.317 53.3612 95.8001 52.6783C101.758 51.9429 107.715 51.1549 113.673 50.4721C113.831 50.4721 113.936 50.4721 114.095 50.4195Z" fill="#DB2349"/>
<path d="M114.095 50.4195L114.042 63.2894C113.936 63.2894 113.778 63.3419 113.62 63.3419C107.61 63.9723 101.705 64.8128 95.7473 65.5482C90.317 66.2311 84.8867 66.8614 79.4036 67.5443C72.2334 68.4373 65.116 69.3304 57.9458 70.2234C55.5734 70.5386 53.2009 70.8012 50.8284 71.1164L50.8811 58.2465C53.2536 57.9313 55.6261 57.6687 57.9986 57.3535C65.1687 56.4605 72.2862 55.5675 79.4563 54.6745C84.8867 53.9916 90.317 53.3612 95.8001 52.6783C101.758 51.9429 107.715 51.1549 113.673 50.4721C113.831 50.4721 113.936 50.4721 114.095 50.4195Z" fill="#DB2349"/>
<path d="M114.095 50.4195L114.042 63.2894C113.936 63.2894 113.778 63.3419 113.62 63.3419C107.61 63.9723 101.705 64.8128 95.7473 65.5482C90.317 66.2311 84.8867 66.8614 79.4036 67.5443C72.2334 68.4373 65.116 69.3304 57.9458 70.2234C55.5734 70.5386 53.2009 70.8012 50.8284 71.1164L50.8811 58.2465C53.2536 57.9313 55.6261 57.6687 57.9986 57.3535C65.1687 56.4605 72.2862 55.5675 79.4563 54.6745C84.8867 53.9916 90.317 53.3612 95.8001 52.6783C101.758 51.9429 107.715 51.1549 113.673 50.4721C113.831 50.4721 113.936 50.4721 114.095 50.4195Z" fill="#DB2349"/>
<path d="M114.095 50.4195L114.042 63.2894C113.936 63.2894 113.778 63.3419 113.62 63.3419C107.61 63.9723 101.705 64.8128 95.7473 65.5482C90.317 66.2311 84.8867 66.8614 79.4036 67.5443C72.2334 68.4373 65.116 69.3304 57.9458 70.2234C55.5734 70.5386 53.2009 70.8012 50.8284 71.1164L50.8811 58.2465C53.2536 57.9313 55.6261 57.6687 57.9986 57.3535C65.1687 56.4605 72.2862 55.5675 79.4563 54.6745C84.8867 53.9916 90.317 53.3612 95.8001 52.6783C101.758 51.9429 107.715 51.1549 113.673 50.4721C113.831 50.4721 113.936 50.4721 114.095 50.4195Z" fill="#DB2349"/>
<path d="M114.095 50.4195L114.042 63.2894C113.936 63.2894 113.778 63.3419 113.62 63.3419C107.61 63.9723 101.705 64.8128 95.7473 65.5482C90.317 66.2311 84.8867 66.8614 79.4036 67.5443C72.2334 68.4373 65.116 69.3304 57.9458 70.2234C55.5734 70.5386 53.2009 70.8012 50.8284 71.1164L50.8811 58.2465C53.2536 57.9313 55.6261 57.6687 57.9986 57.3535C65.1687 56.4605 72.2862 55.5675 79.4563 54.6745C84.8867 53.9916 90.317 53.3612 95.8001 52.6783C101.758 51.9429 107.715 51.1549 113.673 50.4721C113.831 50.4721 113.936 50.4721 114.095 50.4195Z" fill="#DB2349"/>
<path d="M114.095 50.4195L114.042 63.2894C113.936 63.2894 113.778 63.3419 113.62 63.3419C107.61 63.9723 101.705 64.8128 95.7473 65.5482C90.317 66.2311 84.8867 66.8614 79.4036 67.5443C72.2334 68.4373 65.116 69.3304 57.9458 70.2234C55.5734 70.5386 53.2009 70.8012 50.8284 71.1164L50.8811 58.2465C53.2536 57.9313 55.6261 57.6687 57.9986 57.3535C65.1687 56.4605 72.2862 55.5675 79.4563 54.6745C84.8867 53.9916 90.317 53.3612 95.8001 52.6783C101.758 51.9429 107.715 51.1549 113.673 50.4721C113.831 50.4721 113.936 50.4721 114.095 50.4195Z" fill="#DB2349"/>
<path d="M107.662 60.5578L107.61 73.4277C106.292 73.5853 105.132 73.6904 103.972 73.7954C95.5892 74.741 87.2591 75.634 78.8764 76.5795C73.8151 77.1574 68.7011 77.6827 63.5871 78.2605L63.6398 65.3906C68.7538 64.8653 73.8151 64.2875 78.9291 63.7097C87.3119 62.7641 95.6419 61.8711 104.025 60.9256C105.185 60.8205 106.397 60.7154 107.662 60.5578Z" fill="#E7E7E7"/>
<path d="M63.6398 65.3906L63.5871 78.2605C63.5344 78.2605 63.5344 78.2605 63.4816 78.2605L63.5344 65.3906C63.5871 65.3906 63.6398 65.3906 63.6398 65.3906Z" fill="#E5E5E5"/>
<path d="M63.5344 65.3906L63.4816 78.2605C63.4289 78.2605 63.3762 78.2605 63.3235 78.2605L63.3762 65.3906C63.4289 65.3906 63.4816 65.3906 63.5344 65.3906Z" fill="#E3E3E3"/>
<path d="M63.3762 65.3906L63.3235 78.2605C63.2707 78.2605 63.218 78.2605 63.1653 78.2605L63.218 65.3906C63.2707 65.3906 63.3235 65.3906 63.3762 65.3906Z" fill="#E2E2E2"/>
<path d="M63.218 65.3906L63.1653 78.2605C63.1126 78.2605 63.0599 78.2605 63.0071 78.2605L63.0599 65.3906C63.1126 65.3381 63.1653 65.3381 63.218 65.3906Z" fill="#E0E0E0"/>
<path d="M63.0599 65.3381L63.0071 78.208C62.9544 78.208 62.9017 78.208 62.849 78.1554L62.9017 65.2856C62.9544 65.3381 63.0071 65.3381 63.0599 65.3381Z" fill="#DFDFDF"/>
<path d="M62.9017 65.3381L62.849 78.208C62.7962 78.208 62.7435 78.208 62.6908 78.1554L62.7435 65.2856C62.7962 65.2856 62.849 65.2856 62.9017 65.3381Z" fill="#DDDDDD"/>
<path d="M62.7435 65.2855L62.6908 78.1554C62.6381 78.1554 62.5854 78.1029 62.5326 78.1029L62.5854 65.233C62.6381 65.233 62.6908 65.2855 62.7435 65.2855Z" fill="#DCDCDC"/>
<path d="M62.5854 65.233L62.5326 78.1029C62.4799 78.1029 62.4272 78.0504 62.4272 78.0504C59.7911 76.5795 57.2077 75.0562 54.5717 73.5853C53.2536 72.8499 51.9883 72.0619 50.6702 71.3265L50.723 58.4566C52.041 59.1921 53.3063 59.98 54.6244 60.7154C57.2077 62.2388 59.8438 63.7096 62.4799 65.1805C62.5326 65.1805 62.5854 65.233 62.5854 65.233Z" fill="#DADADA"/>
<path d="M107.662 60.5578L107.61 73.4277C107.557 73.5853 107.504 73.6904 107.452 73.7429L107.504 60.873C107.557 60.8205 107.61 60.7154 107.662 60.5578Z" fill="#D82348"/>
<path d="M107.662 60.5578L107.61 73.4277C107.557 73.5853 107.504 73.6904 107.452 73.7429L107.504 60.873C107.557 60.8205 107.61 60.7154 107.662 60.5578Z" fill="#D82348"/>
<path d="M107.504 60.873L107.452 73.7429C107.452 73.7429 107.452 73.7954 107.399 73.7954C105.923 75.7916 104.394 77.8402 102.917 79.8364C98.647 85.6147 94.3238 91.4455 90.0534 97.2239C90.0007 97.2764 90.0007 97.3289 90.0007 97.3289L90.0534 84.459C90.0534 84.4065 90.1061 84.4065 90.1061 84.354C94.4293 78.5757 98.6998 72.7448 102.97 66.9665C104.446 64.9704 105.975 62.9217 107.452 60.9255C107.504 60.9255 107.504 60.9255 107.504 60.873Z" fill="#D92349"/>
<path d="M209.89 60.6104L209.837 73.4803C209.837 73.5328 209.837 73.5328 209.837 73.5853L209.89 60.7154C209.89 60.6629 209.89 60.6629 209.89 60.6104Z" fill="#D42247"/>
<path d="M209.89 60.7154L209.837 73.5853C209.837 73.848 209.784 74.0581 209.732 74.3207L209.784 61.4509C209.89 61.1882 209.89 60.9781 209.89 60.7154Z" fill="#D52247"/>
<path d="M209.837 61.4509L209.784 74.3207C209.732 74.5834 209.679 74.7935 209.574 75.0562L209.626 62.1863C209.732 61.9236 209.784 61.661 209.837 61.4509Z" fill="#D62348"/>
<path d="M209.626 62.1338L209.574 75.0036C209.468 75.2663 209.363 75.4764 209.257 75.7391L209.31 62.8692C209.415 62.6591 209.521 62.3964 209.626 62.1338Z" fill="#D82348"/>
<path d="M209.257 62.8692L209.205 75.7391C209.046 76.0017 208.888 76.2644 208.677 76.4745L208.73 63.6046C208.994 63.3945 209.152 63.1318 209.257 62.8692Z" fill="#D92349"/>
<path d="M208.783 63.6046L208.73 76.4745C208.519 76.7371 208.256 77.0523 207.939 77.315L207.992 64.4451C208.308 64.1824 208.572 63.9198 208.783 63.6046Z" fill="#DB2349"/>
<path d="M207.992 64.4451L207.939 77.315C207.517 77.7352 206.99 78.1029 206.358 78.4706L206.41 65.6007C207.043 65.233 207.57 64.8653 207.992 64.4451Z" fill="#DC234A"/>
<path d="M206.41 65.6007L206.358 78.4706C206.305 78.5231 206.252 78.5231 206.199 78.5757L206.252 65.7058C206.305 65.6533 206.358 65.6533 206.41 65.6007Z" fill="#DE244A"/>
<path d="M3.85334 65.7058L3.80061 78.5757C1.32269 77.1574 0.110092 75.2663 0.110092 73.4277L0.162814 60.5578C0.162814 62.3964 1.37541 64.2875 3.85334 65.7058Z" fill="#CF2145"/>
<path d="M107.504 60.873L107.452 73.7429C107.452 73.7429 107.452 73.7954 107.399 73.7954C105.923 75.7916 104.394 77.8402 102.917 79.8364C98.647 85.6147 94.3238 91.4455 90.0534 97.2239C90.0007 97.2764 90.0007 97.3289 90.0007 97.3289L90.0534 84.459C90.0534 84.4065 90.1061 84.4065 90.1061 84.354C94.4293 78.5757 98.6998 72.7448 102.97 66.9665C104.446 64.9704 105.975 62.9217 107.452 60.9255C107.504 60.9255 107.504 60.9255 107.504 60.873Z" fill="#D92349"/>
<path d="M139.454 40.8065L139.401 53.6764L139.454 40.8065Z" fill="#DFDFDF"/>
<path d="M139.454 40.8065L139.401 53.6764V53.7289L139.454 40.859V40.8065Z" fill="#E0E0E0"/>
<path d="M139.454 40.8591L139.401 53.7289V53.7815L139.454 40.9116V40.8591Z" fill="#E2E2E2"/>
<path d="M139.454 40.9116L139.401 53.7815C139.401 53.834 139.348 53.834 139.348 53.8865L139.401 41.0166C139.401 40.9641 139.401 40.9641 139.454 40.9116Z" fill="#E3E3E3"/>
<path d="M139.401 41.0166L139.348 53.8865C139.295 53.9391 139.295 53.9916 139.243 54.0441C137.239 56.7757 135.236 59.4547 133.232 62.1863C129.911 66.6513 126.59 71.1164 123.321 75.5815C119.894 80.2041 116.52 84.8268 113.093 89.4494C111.933 91.0253 110.826 92.5487 109.613 94.1246C109.56 94.1771 109.56 94.2297 109.56 94.2297L109.613 81.3598C109.613 81.3073 109.666 81.3073 109.666 81.2547C110.826 79.6788 111.986 78.1554 113.146 76.5795C116.572 71.9569 119.947 67.3342 123.374 62.7116C126.695 58.2465 130.016 53.7815 133.285 49.3164C135.289 46.5848 137.292 43.9058 139.295 41.1742C139.295 41.1217 139.348 41.0692 139.401 41.0166Z" fill="#E5E5E5"/>
<path d="M109.56 81.3598L109.508 94.2296C109.508 94.2822 109.455 94.2822 109.455 94.2822L109.508 81.4123C109.508 81.4123 109.508 81.4123 109.56 81.3598Z" fill="#E3E3E3"/>
<path d="M109.508 81.4648L109.455 94.3347V94.3873L109.508 81.4648Z" fill="#E2E2E2"/>
<path d="M109.508 81.5174L109.455 94.3872V94.4398L109.508 81.5174Z" fill="#E0E0E0"/>
<path d="M109.508 81.5699L109.455 94.3872L109.508 81.5699Z" fill="#DFDFDF"/>
<path d="M107.504 60.873L107.452 73.7429C107.452 73.7429 107.452 73.7954 107.399 73.7954C105.923 75.7916 104.394 77.8402 102.917 79.8364C98.647 85.6147 94.3238 91.4455 90.0534 97.2239C90.0007 97.2764 90.0007 97.3289 90.0007 97.3289L90.0534 84.459C90.0534 84.4065 90.1061 84.4065 90.1061 84.354C94.4293 78.5757 98.6998 72.7448 102.97 66.9665C104.446 64.9704 105.975 62.9217 107.452 60.9255C107.504 60.9255 107.504 60.9255 107.504 60.873Z" fill="#D92349"/>
<path d="M90.0534 84.5116L90.0007 97.3814C90.0007 97.3814 90.0007 97.434 89.9479 97.434L90.0007 84.5641C90.0007 84.5641 90.0007 84.5116 90.0534 84.5116Z" fill="#D82348"/>
<path d="M90.0007 84.5641L89.9479 97.434V97.4865L90.0007 84.5641Z" fill="#D62348"/>
<path d="M90.0007 84.6166L89.9479 97.4865C89.9479 97.4865 89.9479 97.4865 89.9479 97.539L90.0007 84.6166Z" fill="#D52247"/>
<path d="M90.0007 84.6166L89.9479 97.4865L90.0007 84.6166Z" fill="#D42247"/>
<path d="M120.368 85.2995L120.316 98.1694C120.316 98.0644 120.263 98.0118 120.158 97.9593C120.105 97.9068 120.052 97.9068 119.999 97.9068L120.052 85.0369C120.105 85.0369 120.158 85.0894 120.21 85.0894C120.316 85.1419 120.368 85.1945 120.368 85.2995Z" fill="#CF2145"/>
<path d="M119.999 84.9843L119.947 97.8542C119.894 97.8017 119.788 97.8017 119.683 97.7492C116.414 96.7511 113.251 95.753 109.982 94.8075C109.877 94.8075 109.824 94.7549 109.771 94.7549L109.824 81.8851C109.877 81.8851 109.982 81.9376 110.035 81.9376C113.251 82.9357 116.467 83.9337 119.736 84.8793C119.841 84.9318 119.947 84.9318 119.999 84.9843Z" fill="#D12246"/>
<path d="M109.824 81.8325L109.771 94.7024C109.719 94.7024 109.666 94.6499 109.613 94.6499C109.508 94.5974 109.455 94.4923 109.455 94.4398L109.508 81.5699C109.508 81.6749 109.56 81.7275 109.666 81.78C109.719 81.8325 109.771 81.8325 109.824 81.8325Z" fill="#CF2145"/>
<path d="M120.368 85.2995L120.316 98.1169L120.368 85.2995Z" fill="#DFDFDF"/>
<path d="M120.368 85.2995L120.316 98.1694C120.316 98.1694 120.316 98.1694 120.316 98.2219L120.368 85.2995Z" fill="#E0E0E0"/>
<path d="M120.368 85.2995L120.316 98.1694V98.2219L120.368 85.2995C120.316 85.3521 120.316 85.3521 120.368 85.2995Z" fill="#E2E2E2"/>
<path d="M120.316 85.3521L120.263 98.2219C120.263 98.2219 120.263 98.2745 120.21 98.2745L120.263 85.4046C120.316 85.4046 120.316 85.4046 120.316 85.3521Z" fill="#E3E3E3"/>
<path d="M120.316 85.4046L120.263 98.2745C120.263 98.327 120.21 98.327 120.21 98.3795L120.263 85.5097C120.263 85.5097 120.263 85.4571 120.316 85.4046Z" fill="#E5E5E5"/>
<path d="M120.21 85.5622L120.157 98.4321C120.157 98.4846 120.105 98.4846 120.105 98.5371C118.312 100.533 116.625 102.529 114.885 104.473C114.833 104.578 114.727 104.631 114.622 104.736L114.674 91.8658C114.78 91.7607 114.885 91.7082 114.938 91.6032C116.678 89.607 118.365 87.6109 120.157 85.6673C120.157 85.6147 120.21 85.5622 120.21 85.5622Z" fill="#E7E7E7"/>
<path d="M114.674 91.8658L114.622 104.736C114.569 104.788 114.516 104.788 114.516 104.841V91.9709C114.569 91.9183 114.622 91.9183 114.674 91.8658Z" fill="#E8E8E8"/>
<path d="M114.516 91.9709L114.464 104.841C114.411 104.893 114.411 104.893 114.358 104.946L114.411 92.0759C114.464 92.0234 114.516 92.0234 114.516 91.9709Z" fill="#E7E7E7"/>
<path d="M114.411 92.0759L114.358 104.946C112.776 104.473 111.248 104.053 109.719 103.58C106.555 102.634 103.445 101.689 100.281 100.743C96.9599 99.7453 93.6912 98.7472 90.3697 97.8017C90.317 97.8017 90.2116 97.7492 90.1588 97.7492L90.2116 84.8793C90.2643 84.8793 90.317 84.9318 90.4225 84.9318C93.7439 85.8773 97.0127 86.8754 100.334 87.8735C103.497 88.819 106.608 89.7646 109.771 90.7101C111.3 91.1829 112.882 91.6031 114.411 92.0759Z" fill="#DCDCDC"/>
<path d="M90.2115 84.8793L90.1588 97.7492C90.1061 97.7492 90.0534 97.6966 90.0534 97.6966C89.9479 97.6441 89.9479 97.5916 89.9479 97.539L90.0007 84.6692C90.0007 84.7217 90.0534 84.7742 90.1061 84.8267C90.1588 84.8267 90.2115 84.8267 90.2115 84.8793Z" fill="#DADADA"/>
<path d="M206.199 55.4624C211.103 58.299 211.155 62.9217 206.252 65.7058L114.253 118.971C109.402 121.808 101.389 121.808 96.4855 118.971L3.85334 65.7058C-1.04979 62.8692 -1.10251 58.2465 3.80062 55.4624L95.8001 2.14435C100.65 -0.69228 108.664 -0.69228 113.567 2.14435L206.199 55.4624ZM109.771 90.7101C111.3 91.1829 112.882 91.6031 114.411 92.0759C114.622 91.8658 114.78 91.7607 114.938 91.6031C116.678 89.607 118.365 87.6109 120.158 85.6672C120.421 85.4046 120.421 85.247 120.21 85.0894C120.105 85.0369 119.947 84.9844 119.788 84.9318C116.52 83.9338 113.356 82.9357 110.088 81.9901C109.93 81.9376 109.771 81.8851 109.719 81.8325C109.508 81.7275 109.508 81.5699 109.666 81.3072C110.826 79.7313 111.986 78.208 113.146 76.6321C116.572 72.0094 119.947 67.3868 123.374 62.7641C126.695 58.299 130.016 53.834 133.285 49.3689C135.289 46.6374 137.292 43.9583 139.296 41.2268C139.506 40.9116 139.612 40.7015 139.137 40.4388C136.659 39.0205 134.234 37.6547 131.809 36.2364C129.384 34.8181 126.959 33.4523 124.533 32.034C124.006 31.7713 123.743 31.7713 123.215 32.034C120.368 33.715 117.521 35.3434 114.622 37.0243C114.095 37.3395 114.095 37.4971 114.569 37.8123C115.413 38.2851 116.203 38.7053 116.941 39.1781C117.311 39.3882 117.732 39.6509 118.101 39.861C119.261 40.5439 120.474 41.2268 121.634 41.9096C122.108 42.1723 122.161 42.3824 121.845 42.6976C119.894 44.8513 118.049 47.0576 116.098 49.2113C115.571 49.7892 115.254 50.4195 113.62 50.6297C107.61 51.26 101.705 52.1005 95.7473 52.8359C90.317 53.5188 84.8867 54.1492 79.4036 54.8321C72.2334 55.7251 65.116 56.6181 57.9459 57.5111C55.5734 57.8263 53.2009 58.0889 50.8284 58.4041C50.7757 58.4566 50.723 58.5092 50.723 58.6142C52.041 59.3497 53.3063 60.1376 54.6244 60.873C57.2077 62.3964 59.8438 63.8672 62.4799 65.3381C62.7435 65.4957 63.2708 65.5482 63.6398 65.5482C68.7538 65.0229 73.8151 64.4451 78.9291 63.8672C87.3119 62.9217 95.6419 62.0287 104.025 61.0831C105.185 60.9781 106.397 60.8205 107.662 60.7154C107.557 60.9256 107.557 61.0306 107.452 61.0831C105.975 63.0793 104.446 65.128 102.97 67.1241C98.6998 72.9024 94.3766 78.7333 90.1061 84.5116C89.948 84.7217 89.948 84.8268 90.1061 84.9318C90.1588 84.9844 90.2643 85.0369 90.4225 85.0369C93.7439 85.9824 97.0127 86.9805 100.334 87.9786C103.497 88.819 106.608 89.7646 109.771 90.7101Z" fill="#E8254E"/>
<path d="M139.085 40.3863C139.612 40.7015 139.506 40.9116 139.295 41.2268C137.292 43.9583 135.289 46.6374 133.285 49.3689C129.964 53.834 126.642 58.299 123.374 62.7641C119.947 67.3868 116.572 72.0094 113.146 76.6321C111.986 78.208 110.878 79.7313 109.666 81.3072C109.455 81.5699 109.455 81.7275 109.719 81.8325C109.824 81.8851 109.929 81.9376 110.088 81.9901C113.304 82.9882 116.52 83.9863 119.788 84.9318C119.999 84.9844 120.105 85.0369 120.21 85.0894C120.474 85.247 120.421 85.4046 120.158 85.6672C118.365 87.6634 116.678 89.6595 114.938 91.6031C114.833 91.7607 114.622 91.9183 114.411 92.0759C112.829 91.6031 111.3 91.1829 109.771 90.7101C106.608 89.7646 103.497 88.819 100.334 87.8735C97.0127 86.8754 93.7439 85.8774 90.4224 84.9318C90.2643 84.8793 90.1588 84.8268 90.1061 84.8268C89.8952 84.7217 89.9479 84.6166 90.1061 84.4065C94.4293 78.6282 98.6998 72.7974 102.97 67.019C104.446 65.0229 105.975 62.9742 107.452 60.9781C107.504 60.873 107.557 60.768 107.662 60.6104C106.344 60.768 105.185 60.873 104.025 60.9781C95.6419 61.9236 87.3119 62.8166 78.9291 63.7622C73.8678 64.34 68.7538 64.8653 63.6398 65.4431C63.2707 65.4957 62.7435 65.3906 62.4799 65.233C59.8438 63.7622 57.2605 62.2388 54.6244 60.768C53.3063 60.0325 52.041 59.2446 50.723 58.5092C50.7757 58.4566 50.8284 58.4041 50.8284 58.299C53.2009 57.9839 55.5734 57.7212 57.9458 57.406C65.116 56.513 72.2334 55.62 79.4036 54.727C84.8339 54.0441 90.2643 53.4137 95.7473 52.7309C101.705 51.9954 107.662 51.2075 113.62 50.5246C115.254 50.367 115.571 49.7366 116.098 49.1063C118.049 46.9525 119.947 44.7988 121.845 42.5925C122.108 42.2774 122.055 42.0672 121.634 41.8046C120.421 41.1217 119.261 40.4388 118.049 39.7559C117.68 39.5458 117.258 39.2831 116.889 39.073C116.098 38.6002 115.307 38.18 114.516 37.7072C113.989 37.3921 113.989 37.2345 114.516 36.9193C117.416 35.2908 120.263 33.6099 123.11 31.9289C123.584 31.6137 123.901 31.6137 124.428 31.9289C126.853 33.3472 129.278 34.713 131.704 36.1313C134.234 37.6022 136.659 38.968 139.085 40.3863Z" fill="#F4F4F4"/>
<path d="M206.252 65.7058V78.5757L114.2 131.841L114.253 118.971L206.252 65.7058Z" fill="#E1244B"/>
<path d="M96.4854 118.971L96.4327 131.841L3.80061 78.5757L3.85334 65.7058L96.4854 118.971Z" fill="#D02246"/>
<path d="M114.253 118.971L114.2 131.841C113.356 132.314 112.46 132.734 111.458 133.049L111.511 120.18C112.513 119.864 113.409 119.444 114.253 118.971Z" fill="#DE244A"/>
<path d="M111.511 120.18L111.458 133.049C110.72 133.312 109.877 133.47 109.086 133.627L109.139 120.757C109.929 120.6 110.773 120.442 111.511 120.18Z" fill="#DC234A"/>
<path d="M109.139 120.757L109.086 133.627C108.559 133.732 108.032 133.785 107.452 133.837L107.504 120.967C108.084 120.967 108.611 120.862 109.139 120.757Z" fill="#DB2349"/>
<path d="M107.504 121.02L107.452 133.89C106.977 133.942 106.503 133.942 106.028 133.995L106.081 121.125C106.608 121.073 107.083 121.02 107.504 121.02Z" fill="#D92349"/>
<path d="M106.134 121.073L106.081 133.942C105.659 133.942 105.237 133.942 104.763 133.942L104.815 121.073C105.237 121.125 105.712 121.125 106.134 121.073Z" fill="#D82348"/>
<path d="M104.815 121.073L104.763 133.942C104.341 133.942 103.919 133.89 103.497 133.89L103.55 121.02C103.972 121.073 104.394 121.073 104.815 121.073Z" fill="#D62348"/>
<path d="M103.55 121.02L103.497 133.89C103.076 133.837 102.654 133.785 102.285 133.732L102.338 120.862C102.759 120.967 103.181 121.02 103.55 121.02Z" fill="#D52247"/>
<path d="M102.338 120.915L102.285 133.785C101.863 133.732 101.441 133.627 101.02 133.575L101.072 120.705C101.494 120.757 101.916 120.81 102.338 120.915Z" fill="#D42247"/>
<path d="M101.072 120.652L101.02 133.522C100.598 133.417 100.123 133.312 99.7015 133.207L99.7542 120.337C100.229 120.495 100.65 120.6 101.072 120.652Z" fill="#D22246"/>
<path d="M99.8069 120.337L99.7542 133.207C99.227 133.049 98.6998 132.892 98.2253 132.682L98.278 119.812C98.7525 120.022 99.2797 120.232 99.8069 120.337Z" fill="#D12246"/>
<path d="M98.278 119.864L98.2253 132.734C97.5926 132.472 97.0127 132.209 96.4327 131.894L96.4854 119.024C97.0127 119.287 97.6453 119.602 98.278 119.864Z" fill="#CF2145"/>
</svg>
