<svg width="18" height="18" viewBox="0 0 18 18" fill="none" xmlns="http://www.w3.org/2000/svg">
<path fill-rule="evenodd" clip-rule="evenodd" d="M9.00081 0.466667C6.68327 0.466667 6.39243 0.476801 5.48219 0.518223C4.57374 0.559824 3.95364 0.703647 3.41106 0.914672C2.84981 1.13263 2.37372 1.42419 1.8994 1.89868C1.42473 2.373 1.13317 2.84909 0.914502 3.41016C0.702944 3.95293 0.558942 4.5732 0.518053 5.4813C0.477342 6.39153 0.466675 6.68255 0.466675 9.00009C0.466675 11.3176 0.476986 11.6076 0.518231 12.5178C0.560009 13.4263 0.703833 14.0464 0.914679 14.5889C1.13282 15.1502 1.42437 15.6263 1.89887 16.1006C2.37301 16.5753 2.8491 16.8675 3.40999 17.0855C3.95293 17.2965 4.57321 17.4404 5.48148 17.482C6.39171 17.5234 6.68238 17.5335 8.99974 17.5335C11.3175 17.5335 11.6074 17.5234 12.5176 17.482C13.4261 17.4404 14.0469 17.2965 14.5898 17.0855C15.1509 16.8675 15.6263 16.5753 16.1004 16.1006C16.5751 15.6263 16.8667 15.1502 17.0853 14.5891C17.2951 14.0464 17.4391 13.4261 17.4818 12.518C17.5227 11.6078 17.5333 11.3176 17.5333 9.00009C17.5333 6.68255 17.5227 6.39171 17.4818 5.48147C17.4391 4.57302 17.2951 3.95293 17.0853 3.41034C16.8667 2.84909 16.5751 2.373 16.1004 1.89868C15.6258 1.42401 15.1511 1.13245 14.5893 0.914672C14.0453 0.703647 13.4249 0.559824 12.5164 0.518223C11.6062 0.476801 11.3164 0.466667 8.99814 0.466667H9.00081ZM8.23525 2.00444C8.46245 2.00408 8.71597 2.00444 9.00077 2.00444C11.2792 2.00444 11.5492 2.01261 12.449 2.0535C13.281 2.09155 13.7326 2.23057 14.0334 2.34737C14.4316 2.50204 14.7155 2.68693 15.014 2.9856C15.3127 3.28427 15.4976 3.56872 15.6526 3.96695C15.7694 4.26739 15.9086 4.71895 15.9464 5.55096C15.9873 6.45053 15.9962 6.72075 15.9962 8.99811C15.9962 11.2755 15.9873 11.5457 15.9464 12.4453C15.9084 13.2773 15.7694 13.7288 15.6526 14.0293C15.4979 14.4275 15.3127 14.7111 15.014 15.0096C14.7153 15.3082 14.4318 15.4931 14.0334 15.6478C13.7329 15.7651 13.281 15.9038 12.449 15.9418C11.5494 15.9827 11.2792 15.9916 9.00077 15.9916C6.72217 15.9916 6.45212 15.9827 5.55256 15.9418C4.72055 15.9034 4.26899 15.7644 3.96801 15.6476C3.56978 15.4929 3.28533 15.308 2.98666 15.0094C2.68799 14.7107 2.5031 14.427 2.34808 14.0286C2.23128 13.7281 2.09208 13.2766 2.05421 12.4445C2.01332 11.545 2.00514 11.2748 2.00514 8.99598C2.00514 6.7172 2.01332 6.44839 2.05421 5.54883C2.09226 4.71682 2.23128 4.26526 2.34808 3.96446C2.50275 3.56623 2.68799 3.28178 2.98666 2.98311C3.28533 2.68444 3.56978 2.49955 3.96801 2.34453C4.26881 2.22719 4.72055 2.08853 5.55256 2.0503C6.33977 2.01475 6.64484 2.00408 8.23525 2.0023V2.00444ZM13.5558 3.42134C12.9905 3.42134 12.5318 3.87948 12.5318 4.445C12.5318 5.01034 12.9905 5.46901 13.5558 5.46901C14.1212 5.46901 14.5799 5.01034 14.5799 4.445C14.5799 3.87966 14.1212 3.42134 13.5558 3.42134ZM9.00082 4.6178C6.58071 4.6178 4.61855 6.57995 4.61855 9.00007C4.61855 11.4202 6.58071 13.3814 9.00082 13.3814C11.4209 13.3814 13.3824 11.4202 13.3824 9.00007C13.3824 6.57995 11.4209 4.6178 9.00082 4.6178ZM9.00079 6.15559C10.5717 6.15559 11.8453 7.42903 11.8453 9.00007C11.8453 10.5709 10.5717 11.8445 9.00079 11.8445C7.42975 11.8445 6.15632 10.5709 6.15632 9.00007C6.15632 7.42903 7.42975 6.15559 9.00079 6.15559Z" fill="white"/>
</svg>
