<svg width="16" height="14" viewBox="0 0 16 14" fill="none" xmlns="http://www.w3.org/2000/svg">
<path fill-rule="evenodd" clip-rule="evenodd" d="M7.5208 4.005L7.55438 4.55864L6.99479 4.49084C4.95791 4.23097 3.17843 3.34967 1.66756 1.86955L0.928908 1.13513L0.73865 1.67747C0.33575 2.88643 0.593158 4.16318 1.43253 5.02188C1.8802 5.49643 1.77948 5.56422 1.00725 5.28175C0.73865 5.19136 0.503625 5.12357 0.481242 5.15747C0.4029 5.23656 0.6715 6.26474 0.884142 6.67149C1.17513 7.23643 1.76828 7.79006 2.4174 8.11772L2.96579 8.37759L2.31668 8.38889C1.68994 8.38889 1.66756 8.40019 1.73471 8.63746C1.95854 9.37188 2.84268 10.1515 3.82755 10.4905L4.52143 10.7277L3.91708 11.0893C3.02175 11.609 1.96973 11.9028 0.917717 11.9254C0.414092 11.9367 0 11.9819 0 12.0158C0 12.1288 1.36538 12.7615 2.15999 13.0101C4.54382 13.7445 7.37531 13.4281 9.50173 12.174C11.0126 11.2814 12.5235 9.50746 13.2286 7.79006C13.6091 6.87487 13.9896 5.20266 13.9896 4.40045C13.9896 3.88071 14.0232 3.81292 14.6499 3.19149C15.0192 2.82993 15.3662 2.43448 15.4333 2.32149C15.5452 2.10682 15.534 2.10682 14.9633 2.2989C14.012 2.63786 13.8777 2.59266 14.3477 2.08422C14.6947 1.72266 15.1088 1.06734 15.1088 0.87526C15.1088 0.841364 14.9409 0.897858 14.7506 0.999546C14.5492 1.11253 14.1015 1.28201 13.7658 1.3837L13.1614 1.57578L12.613 1.20292C12.3108 0.999546 11.8856 0.773572 11.6617 0.70578C11.0909 0.547598 10.218 0.570195 9.70318 0.750974C8.30422 1.25942 7.42008 2.57006 7.5208 4.005Z" fill="white"/>
</svg>
