<svg width="16" height="16" viewBox="0 0 16 16" fill="none" xmlns="http://www.w3.org/2000/svg">
<path fill-rule="evenodd" clip-rule="evenodd" d="M7.11803 9.78977L10.0744 14.5861C10.2037 14.7963 10.4058 14.7938 10.4875 14.7825C10.5691 14.7712 10.7656 14.7211 10.8367 14.4826L14.5336 1.99667C14.5983 1.77597 14.4794 1.62561 14.4261 1.57225C14.3744 1.5189 14.2264 1.40491 14.0122 1.46554L1.51735 5.12442C1.28048 5.19394 1.22874 5.39281 1.21743 5.47446C1.20611 5.55773 1.20287 5.76387 1.41225 5.89565L6.26354 8.92962L10.5497 4.59814C10.785 4.36047 11.169 4.35804 11.4075 4.59329C11.646 4.82854 11.6476 5.21335 11.4123 5.45102L7.11803 9.78977ZM10.4244 16C9.86179 16 9.34602 15.7138 9.04206 15.2223L5.90784 10.1366L0.769565 6.92314C0.215802 6.57633 -0.0736101 5.9587 0.0161238 5.30955C0.105049 4.66039 0.550485 4.14462 1.1762 3.96111L13.671 0.302236C14.2458 0.134086 14.8618 0.293343 15.2854 0.715335C15.709 1.14137 15.8667 1.76385 15.6953 2.34105L11.9984 14.8262C11.8133 15.4543 11.2959 15.8981 10.6484 15.9846C10.5724 15.9943 10.4988 16 10.4244 16Z" fill="white"/>
</svg>
