<svg width="18" height="13" viewBox="0 0 18 13" fill="none" xmlns="http://www.w3.org/2000/svg">
<path fill-rule="evenodd" clip-rule="evenodd" d="M15.6677 0.499581C16.4021 0.701091 16.9804 1.29484 17.1767 2.04884C17.5333 3.41539 17.5333 6.2667 17.5333 6.2667C17.5333 6.2667 17.5333 9.1179 17.1767 10.4845C16.9804 11.2386 16.4021 11.8323 15.6677 12.0339C14.3369 12.4 9.00001 12.4 9.00001 12.4C9.00001 12.4 3.66309 12.4 2.33218 12.0339C1.59783 11.8323 1.0195 11.2386 0.823232 10.4845C0.466675 9.1179 0.466675 6.2667 0.466675 6.2667C0.466675 6.2667 0.466675 3.41539 0.823232 2.04884C1.0195 1.29484 1.59783 0.701091 2.33218 0.499581C3.66309 0.133362 9.00001 0.133362 9.00001 0.133362C9.00001 0.133362 14.3369 0.133362 15.6677 0.499581ZM7.40002 3.86664V9.19997L11.6667 6.53341L7.40002 3.86664Z" fill="white"/>
</svg>
