<svg width="59" height="59" viewBox="0 0 59 59" fill="none" xmlns="http://www.w3.org/2000/svg">
<path fill-rule="evenodd" clip-rule="evenodd" d="M7.24489 9.31943C7.25059 9.31943 7.10815 9.46757 6.92867 9.64419C6.23926 10.3137 4.812 11.7067 4.79761 14.6211C4.77497 18.6977 7.4557 26.2671 20.3637 39.1722C33.2119 52.0147 40.7698 54.7268 44.855 54.7268H44.9148C47.8292 54.7125 49.2194 53.2824 49.8917 52.5959C50.0968 52.385 50.2621 52.2312 50.3789 52.1343C53.2163 49.2798 54.6692 47.1546 54.6551 45.7929C54.635 44.4026 52.9058 42.7589 50.5156 40.4855C49.755 39.7619 48.9288 38.9756 48.0571 38.1039C45.798 35.8505 44.6784 36.2351 42.217 37.1011C38.8127 38.2948 34.1406 39.9186 26.8818 32.657C19.6116 25.3925 21.2383 20.7261 22.4291 17.3218C23.2894 14.8604 23.6826 13.7379 21.4206 11.476C20.5346 10.5929 19.7398 9.7553 19.0077 8.98612C16.7486 6.6102 15.119 4.89236 13.7374 4.87242H13.7146C12.35 4.87242 10.2305 6.33102 7.23065 9.33082C7.23919 9.32228 7.24204 9.31943 7.24489 9.31943ZM44.8579 59C37.7586 59 28.5028 53.3479 17.344 42.1948C6.1424 30.9961 0.481793 21.7118 0.524285 14.5983C0.550165 9.89774 3.01439 7.49049 3.94026 6.58741C3.98869 6.52758 4.15392 6.3652 4.2109 6.30823C8.29611 2.22017 11.0509 0.567852 13.7915 0.598753C16.9736 0.641922 19.2384 3.02354 22.1043 6.04044C22.8137 6.78683 23.5829 7.59874 24.4404 8.45339C28.5997 12.6127 27.4145 16.0056 26.463 18.7291C25.4261 21.7004 24.5287 24.2643 29.9016 29.6372C35.2801 35.0101 37.8441 34.1127 40.804 33.0672C43.5303 32.1157 46.9147 30.9249 51.0797 35.0842C51.9229 35.9274 52.7235 36.688 53.4613 37.3917C56.4925 40.2719 58.8855 42.5481 58.9259 45.7387C58.9595 48.4594 57.3072 51.2313 53.2277 55.3136L51.4216 54.0886L52.9485 55.5814C52.0454 56.5073 49.641 58.9744 44.9376 59H44.8579Z" fill="white"/>
</svg>
