<svg width="18" height="18" viewBox="0 0 18 18" fill="none" xmlns="http://www.w3.org/2000/svg">
<path fill-rule="evenodd" clip-rule="evenodd" d="M17.5333 8.98817C17.5333 9.56526 17.4746 10.1416 17.3592 10.7033C17.2467 11.2517 17.08 11.7901 16.8617 12.3048C16.6483 12.8104 16.3837 13.2976 16.0745 13.752C15.77 14.2034 15.4191 14.627 15.0337 15.0131C14.6474 15.3976 14.2224 15.7475 13.7711 16.0534C13.3152 16.3604 12.8273 16.6246 12.3215 16.8389C11.806 17.0561 11.2664 17.2225 10.7184 17.3349C10.1559 17.4506 9.57755 17.5096 8.99962 17.5096C8.42126 17.5096 7.8429 17.4506 7.28121 17.3349C6.73244 17.2225 6.19283 17.0561 5.67779 16.8389C5.17195 16.6246 4.68357 16.3604 4.22772 16.0534C3.77645 15.7475 3.35143 15.3976 2.96599 15.0131C2.58015 14.627 2.22928 14.2034 1.92427 13.752C1.61675 13.2976 1.35172 12.8104 1.13755 12.3048C0.919183 11.7901 0.752114 11.2517 0.639188 10.7033C0.525025 10.1416 0.466675 9.56526 0.466675 8.98817C0.466675 8.41064 0.524992 7.83312 0.639221 7.2726C0.752147 6.72419 0.919216 6.18496 1.13759 5.6711C1.35175 5.16515 1.61678 4.67751 1.9243 4.22312C2.22931 3.77126 2.58018 3.34849 2.96602 2.96194C3.35146 2.57746 3.77648 2.22839 4.22775 1.92299C4.6836 1.61465 5.17198 1.35047 5.67783 1.13574C6.19286 0.918088 6.73244 0.751261 7.28124 0.639765C7.84294 0.524933 8.4213 0.466667 8.99966 0.466667C9.57758 0.466667 10.1559 0.524933 10.7185 0.639765C11.2664 0.751294 11.806 0.918122 12.3215 1.13574C12.8273 1.35043 13.3153 1.61465 13.7711 1.92299C14.2224 2.22839 14.6475 2.57746 15.0337 2.96194C15.4191 3.34849 15.77 3.77126 16.0746 4.22312C16.3837 4.67751 16.6483 5.16518 16.8617 5.6711C17.08 6.18496 17.2467 6.72419 17.3592 7.2726C17.4746 7.83312 17.5333 8.41064 17.5333 8.98817ZM5.89026 2.40605C3.85805 3.36432 2.34131 5.23421 1.86836 7.48774C2.06048 7.48941 5.0973 7.5277 8.59622 6.59938C7.33492 4.36165 5.98735 2.53549 5.89026 2.40605ZM9.2 7.71995C5.44774 8.84168 1.84711 8.76097 1.71795 8.756C1.71585 8.83421 1.71211 8.90992 1.71211 8.98816C1.71211 10.8576 2.41839 12.5619 3.57929 13.8506C3.57678 13.8468 5.57108 10.3138 9.50377 9.04393C9.59876 9.01231 9.69546 8.98399 9.79128 8.95654C9.60838 8.54298 9.40875 8.12854 9.2 7.71995ZM13.8124 3.52659C12.5293 2.39688 10.8447 1.71163 8.9996 1.71163C8.40748 1.71163 7.83286 1.7832 7.28242 1.91551C7.39157 2.06199 8.76042 3.87528 10.0067 6.1604C12.7565 5.13102 13.7944 3.5532 13.8124 3.52659ZM10.288 10.1624C10.2718 10.1677 10.2556 10.1724 10.2397 10.1782C5.93997 11.675 4.53583 14.6914 4.52064 14.7243C5.75781 15.6851 7.30956 16.2647 8.99965 16.2647C10.0088 16.2647 10.9701 16.0595 11.8448 15.688C11.7368 15.0522 11.3135 12.8237 10.288 10.1624ZM13.0719 15.0231C14.7082 13.9205 15.8703 12.1696 16.1945 10.1415C16.0445 10.0933 14.0057 9.44873 11.6535 9.82531C12.6093 12.4484 12.9977 14.5846 13.0719 15.0231ZM10.5676 7.24475C10.7368 7.59177 10.9006 7.94497 11.0518 8.29994C11.1056 8.42728 11.1581 8.55212 11.2093 8.67692C13.7128 8.36234 16.1792 8.89161 16.2846 8.91322C16.2679 7.18815 15.65 5.60492 14.6275 4.36542C14.6137 4.38493 13.4449 6.07135 10.5676 7.24475Z" fill="white"/>
</svg>
