<svg width="19" height="17" viewBox="0 0 19 17" fill="none" xmlns="http://www.w3.org/2000/svg">
<path fill-rule="evenodd" clip-rule="evenodd" d="M13.3084 0C16.1386 0 18.2726 2.30608 18.2726 5.36416V11.1934C18.2726 12.7585 17.7185 14.1726 16.7114 15.1758C15.808 16.0746 14.636 16.5508 13.322 16.5508H4.94806C3.63668 16.5508 2.46553 16.0755 1.56125 15.1758C0.554129 14.1726 0 12.7585 0 11.1934V5.36416C0 2.30608 2.13407 0 4.96421 0H13.3084ZM13.3084 1.27314H4.96421C2.82674 1.27314 1.27484 2.99357 1.27484 5.36416V11.1934C1.27484 12.4182 1.69638 13.5122 2.46128 14.2736C3.1208 14.9314 3.98174 15.2777 4.95061 15.2777H13.3084C13.3101 15.276 13.3169 15.2777 13.322 15.2777C14.2918 15.2777 15.1518 14.9314 15.8114 14.2736C16.5771 13.5122 16.9978 12.4182 16.9978 11.1934V5.36416C16.9978 2.99357 15.4459 1.27314 13.3084 1.27314ZM14.6479 5.20187C14.8697 5.47432 14.828 5.87494 14.5552 6.09731L10.7783 9.16303C10.3007 9.54158 9.72955 9.73085 9.15927 9.73085C8.59069 9.73085 8.02382 9.54327 7.54958 9.16812L3.73782 6.09901C3.4633 5.87833 3.42081 5.47687 3.64093 5.20357C3.86275 4.93112 4.2639 4.88783 4.53757 5.10766L8.34592 8.17338C8.82441 8.55192 9.49837 8.55192 9.98026 8.16998L13.7504 5.10936C14.024 4.88614 14.4252 4.92857 14.6479 5.20187Z" fill="white"/>
</svg>
