<svg width="34" height="26" viewBox="0 0 34 26" fill="none" xmlns="http://www.w3.org/2000/svg">
<path fill-rule="evenodd" clip-rule="evenodd" d="M16.7708 16.0427L16.9447 16.0428L17.3338 16.0441C20.3079 16.0637 27.1044 16.3641 27.1044 20.9708C27.1044 25.5472 20.5448 25.8457 17.3802 25.8651L16.2077 25.8651C13.2335 25.8455 6.43558 25.5455 6.43558 20.9446C6.43558 16.3624 13.2335 16.0636 16.2077 16.0441L16.5968 16.0428C16.6572 16.0427 16.7152 16.0427 16.7708 16.0427ZM16.7708 18.3535C13.1105 18.3535 8.74632 18.8033 8.74632 20.9446C8.74632 23.0374 12.8501 23.5267 16.4362 23.5544L16.7708 23.5557C20.431 23.5557 24.7937 23.1074 24.7937 20.9708C24.7937 18.8079 20.431 18.3535 16.7708 18.3535ZM29.0233 15.4176C32.7559 15.9768 33.54 17.7299 33.54 19.1025C33.54 19.9405 33.2103 21.4702 31.0074 22.3098C30.8719 22.3606 30.7332 22.3853 30.5961 22.3853C30.1309 22.3853 29.6918 22.1018 29.5162 21.6412C29.2882 21.045 29.5886 20.3765 30.1848 20.15C31.2293 19.7526 31.2293 19.3135 31.2293 19.1025C31.2293 18.4277 30.3712 17.9563 28.6797 17.7037C28.0497 17.6082 27.6137 17.0213 27.7077 16.3881C27.8017 15.7565 28.387 15.3359 29.0233 15.4176ZM5.83232 16.3881C5.92629 17.0213 5.49033 17.6082 4.86027 17.7037C3.1688 17.9563 2.31074 18.4277 2.31074 19.1025C2.31074 19.3135 2.31075 19.751 3.35674 20.15C3.95291 20.3765 4.25331 21.045 4.02532 21.6412C3.8497 22.1018 3.41066 22.3853 2.94543 22.3853C2.80833 22.3853 2.66968 22.3606 2.53412 22.3098C0.329666 21.4687 0 19.939 0 19.1025C0 17.7314 0.784113 15.9768 4.51828 15.4176C5.1545 15.3375 5.73681 15.7565 5.83232 16.3881ZM16.7708 0C20.6528 0 23.8093 3.15802 23.8093 7.03853C23.8093 10.919 20.6528 14.0771 16.7708 14.0771H16.7292C14.8498 14.0709 13.089 13.3345 11.7703 12.0035C10.4486 10.6741 9.72608 8.90869 9.73372 7.03391C9.73372 3.15802 12.8903 0 16.7708 0ZM16.7708 2.31074C14.1642 2.31074 12.0445 4.43201 12.0445 7.03853C12.0399 8.30173 12.5236 9.4833 13.4094 10.3752C14.2952 11.2672 15.4752 11.7617 16.7323 11.7663L16.7708 12.9217V11.7663C19.3773 11.7663 21.4986 9.64659 21.4986 7.03853C21.4986 4.43201 19.3773 2.31074 16.7708 2.31074ZM26.3049 1.50892C29.0131 1.95412 30.9803 4.27103 30.9803 7.01773C30.9742 9.78292 28.9083 12.1553 26.174 12.5389C26.12 12.5466 26.0661 12.5497 26.0138 12.5497C25.4468 12.5497 24.9523 12.1322 24.8707 11.5545C24.7829 10.9213 25.2219 10.3375 25.8551 10.2497C27.4572 10.0248 28.6665 8.63525 28.6696 7.01465C28.6696 5.40791 27.5173 4.04919 25.929 3.78885C25.3005 3.68564 24.8738 3.09101 24.977 2.46094C25.0817 1.83088 25.6718 1.40878 26.3049 1.50892ZM8.56454 2.46094C8.66776 3.09101 8.24104 3.68564 7.61252 3.78885C6.02427 4.04919 4.87197 5.40791 4.87197 7.01773C4.87506 8.63525 6.08434 10.0263 7.68492 10.2497C8.31806 10.3375 8.75711 10.9213 8.6693 11.5545C8.58765 12.1322 8.09315 12.5497 7.52625 12.5497C7.47387 12.5497 7.41996 12.5466 7.36604 12.5389C4.63166 12.1553 2.56739 9.78292 2.56123 7.02081C2.56123 4.27103 4.52844 1.95412 7.23664 1.50892C7.88519 1.40724 8.45979 1.83396 8.56454 2.46094Z" fill="white"/>
</svg>
