<svg width="59" height="53" viewBox="0 0 59 53" fill="none" xmlns="http://www.w3.org/2000/svg">
<path d="M43.792 8.36171C44.9131 8.36171 45.8397 9.1948 45.9863 10.2757L46.0065 10.5762L46.0062 45.4172L54.2624 37.1278C55.1252 36.261 56.5273 36.2577 57.3941 37.1205C58.1821 37.9049 58.2564 39.135 57.6152 40.0034L57.4013 40.2523L45.3612 52.3482C45.2886 52.4194 45.2147 52.4842 45.1368 52.5438L45.3612 52.3482C45.2526 52.4573 45.1354 52.5527 45.0118 52.6345C44.9687 52.6613 44.9239 52.6888 44.8781 52.7146C44.8355 52.7402 44.7923 52.7627 44.7485 52.7837C44.7053 52.8028 44.6614 52.8222 44.6168 52.8401C44.5602 52.8643 44.5021 52.8848 44.4434 52.9028C44.4088 52.912 44.3733 52.922 44.3375 52.9311C44.2737 52.9486 44.2097 52.9618 44.1452 52.9722C44.115 52.9756 44.0834 52.98 44.0516 52.9837C43.9788 52.9937 43.9067 52.9986 43.8345 53C43.8203 52.9986 43.8062 52.9987 43.792 52.9987L43.7489 53C43.6767 52.9986 43.6046 52.9937 43.5329 52.9853L43.792 52.9987C43.6714 52.9987 43.553 52.9891 43.4376 52.9705C43.3738 52.9618 43.3097 52.9486 43.2462 52.9325C43.2126 52.9224 43.1789 52.9131 43.1456 52.9029C43.0821 52.8852 43.0191 52.8629 42.9569 52.8376C42.9229 52.822 42.89 52.8076 42.8577 52.7925C42.8067 52.7707 42.7555 52.7445 42.7053 52.7162C42.6599 52.6886 42.6152 52.6613 42.5716 52.6324C42.5375 52.6119 42.504 52.5884 42.4709 52.5638L42.4473 52.5438C42.3693 52.4842 42.2955 52.4194 42.2262 52.3501L42.2222 52.3482L30.1821 40.2523C29.3193 39.3855 29.3226 37.9833 30.1894 37.1205C30.9773 36.3362 32.2078 36.2676 33.0732 36.9128L33.3211 37.1278L41.5772 45.4231L41.5776 10.5762C41.5776 9.35316 42.569 8.36171 43.792 8.36171ZM14.4771 0.349618L14.5203 0.348389C14.5924 0.349775 14.6645 0.354667 14.7363 0.363066L14.4771 0.349618C14.5978 0.349618 14.7162 0.359264 14.8316 0.377828C14.8947 0.386455 14.958 0.399494 15.0208 0.415322C15.0578 0.426156 15.0954 0.43672 15.1326 0.44824C15.1908 0.464633 15.2471 0.484559 15.3026 0.506826C15.3428 0.524709 15.3834 0.542483 15.4234 0.561421C15.471 0.581983 15.5178 0.606178 15.5639 0.632154C15.6034 0.656456 15.6425 0.680131 15.6807 0.704955C15.7201 0.728365 15.7595 0.755764 15.7982 0.78459L16.0469 1.0002L28.0871 13.0961C28.9499 13.9629 28.9466 15.365 28.0798 16.2278C27.2918 17.0122 26.0614 17.0808 25.196 16.4356L24.9481 16.2206L16.6896 7.92185L16.6916 42.7722C16.6916 43.9952 15.7001 44.9866 14.4771 44.9866C13.356 44.9866 12.4295 44.1536 12.2829 43.0727L12.2627 42.7722L12.2607 7.92481L4.00682 16.2206C3.22245 17.0086 1.99237 17.0829 1.12397 16.4416L0.875101 16.2278C0.0871033 15.4434 0.0127895 14.2134 0.654026 13.345L0.867865 13.0961L12.908 1.0002L13.0384 0.880629C13.069 0.854434 13.1003 0.82906 13.1324 0.80454L12.908 1.0002C13.0166 0.891068 13.1338 0.79563 13.2573 0.713887C13.3005 0.687028 13.3453 0.659609 13.3911 0.633774C13.4336 0.608132 13.4769 0.585633 13.5207 0.564657C13.5639 0.545519 13.6078 0.526208 13.6524 0.508305C13.709 0.484084 13.7671 0.463577 13.8258 0.445564C13.8615 0.435974 13.8981 0.42575 13.935 0.416455C13.9945 0.400116 14.0547 0.387624 14.1151 0.377648C14.1515 0.373099 14.1871 0.368139 14.223 0.364038C14.2914 0.354647 14.3615 0.349889 14.4317 0.348447C14.4472 0.349767 14.4621 0.349618 14.4771 0.349618Z" fill="white"/>
</svg>
