<svg width="39" height="40" viewBox="0 0 39 40" fill="none" xmlns="http://www.w3.org/2000/svg">
<path fill-rule="evenodd" clip-rule="evenodd" d="M8.5 22.7852C16.638 22.7852 17 25.5452 17 31.2852C17 34.1612 17 36.2072 15.792 37.7052C14.402 39.4312 11.872 39.7852 8.5 39.7852C5.128 39.7852 2.598 39.4312 1.208 37.7052C0 36.2072 0 34.1632 0 31.3352L1.5 31.2852H0C0 25.5452 0.362 22.7852 8.5 22.7852ZM30.5 22.7852C38.638 22.7852 39 25.5452 39 31.2852C39 34.1612 39 36.2072 37.792 37.7052C36.402 39.4312 33.872 39.7852 30.5 39.7852C27.128 39.7852 24.598 39.4312 23.208 37.7052C22 36.2072 22 34.1632 22 31.3352L23.5 31.2852H22C22 25.5452 22.362 22.7852 30.5 22.7852ZM8.91232 25.786L8.5 25.7852C3.28205 25.7852 3.01446 26.1596 3.00074 30.5393L3.00158 32.2455C3.01106 33.9874 3.07743 35.2457 3.542 35.8252C4.072 36.4812 5.646 36.7852 8.5 36.7852C11.354 36.7852 12.928 36.4792 13.458 35.8232C14 35.1492 14 33.5492 14 31.3332C14 26.3327 14 25.8096 8.91232 25.786ZM30.9123 25.786L30.5 25.7852C25.2821 25.7852 25.0145 26.1596 25.0007 30.5393L25.0016 32.2455C25.0111 33.9874 25.0774 35.2457 25.542 35.8252C26.072 36.4812 27.646 36.7852 30.5 36.7852C33.354 36.7852 34.928 36.4792 35.458 35.8232C36 35.1492 36 33.5492 36 31.3332C36 26.3327 36 25.8096 30.9123 25.786ZM8.5 0.785156C16.638 0.785156 17 3.54516 17 9.28516C17 12.1612 17 14.2072 15.792 15.7052C14.402 17.4312 11.872 17.7852 8.5 17.7852C5.128 17.7852 2.598 17.4312 1.208 15.7052C0 14.2072 0 12.1632 0 9.33516L1.5 9.28516H0C0 3.54516 0.362 0.785156 8.5 0.785156ZM30.5 0.785156C38.638 0.785156 39 3.54516 39 9.28516C39 12.1612 39 14.2072 37.792 15.7052C36.402 17.4312 33.872 17.7852 30.5 17.7852C27.128 17.7852 24.598 17.4312 23.208 15.7052C22 14.2072 22 12.1632 22 9.33516L23.5 9.28516H22C22 3.54516 22.362 0.785156 30.5 0.785156ZM8.91232 3.78605L8.5 3.78516C3.28205 3.78516 3.01446 4.15958 3.00074 8.53926L3.00158 10.2455C3.01106 11.9874 3.07743 13.2457 3.542 13.8252C4.072 14.4812 5.646 14.7852 8.5 14.7852C11.354 14.7852 12.928 14.4792 13.458 13.8232C14 13.1492 14 11.5492 14 9.33316C14 4.33275 14 3.80959 8.91232 3.78605ZM30.9123 3.78605L30.5 3.78516C25.2821 3.78516 25.0145 4.15958 25.0007 8.53926L25.0016 10.2455C25.0111 11.9874 25.0774 13.2457 25.542 13.8252C26.072 14.4812 27.646 14.7852 30.5 14.7852C33.354 14.7852 34.928 14.4792 35.458 13.8232C36 13.1492 36 11.5492 36 9.33316C36 4.33275 36 3.80959 30.9123 3.78605Z" fill="#F22751"/>
</svg>
