<svg width="186" height="109" viewBox="0 0 186 109" fill="none" xmlns="http://www.w3.org/2000/svg">
<path d="M158.297 90.068C154.169 92.8039 150.27 95.868 145.913 98.2755C139.262 101.777 133.758 98.7133 133.07 91.3812C132.841 89.1926 132.612 87.1133 132.153 84.0492C130.204 86.3473 128.828 88.0982 127.222 89.7397C122.177 95.3208 117.017 100.793 111.857 106.264C111.169 107.03 110.252 107.468 109.22 107.906C105.78 109.438 102.34 107.468 102.455 103.857C102.569 101.23 103.143 98.6038 104.06 96.1963C105.895 91.2718 108.073 86.3473 110.137 81.4228C111.972 76.8266 112.889 72.0116 112.66 66.2116C110.137 68.2908 107.958 69.7134 106.239 71.5738C98.3265 80.0002 90.6439 88.536 82.8466 97.0718C81.1266 98.9321 79.5213 100.793 77.8013 102.653C77.1133 103.309 76.4253 104.185 75.6227 104.404C74.132 104.732 72.2973 105.17 70.9213 104.732C68.8574 104.185 68.7427 102.106 69.4307 100.574C70.692 97.4001 72.1827 94.4454 73.6733 91.3812C74.0173 90.6152 74.5907 90.068 74.5907 88.8643C73.788 89.5209 73.1 90.1775 72.2973 90.8341C67.3667 95.7586 62.0921 100.355 55.6708 103.638C33.3109 115.019 4.75901 101.777 0.516365 77.9209C-3.38228 55.3777 15.3083 35.242 39.2735 36.2269C40.3055 36.2269 41.3375 36.2269 42.3695 36.2269C44.0895 32.2873 45.3508 28.1288 47.4148 24.4081C56.3587 8.7591 70.4627 0.223307 89.1533 0.00444054C106.927 -0.214426 120.916 7.66477 130.433 22.0005C131.924 24.2986 133.185 24.9552 136.052 24.5175C158.985 20.7968 180.542 35.1325 185.243 56.9098C188.798 73.4342 179.51 92.6944 164.03 101.011C155.889 105.389 147.06 107.796 137.657 109C142.473 106.592 147.289 104.404 151.761 101.777C159.558 97.2906 165.98 91.3812 170.681 83.8303C179.395 69.8229 178.134 54.2834 167.241 42.7929C158.068 33.1627 141.785 30.0986 129.286 35.5703C128.484 35.8986 127.681 36.2269 126.764 36.6646C123.209 25.5024 116.214 17.076 105.092 12.1515C97.7532 8.97797 90.0706 8.1025 82.1586 9.63457C63.1241 13.3553 52.8041 26.2684 50.8548 47.9362C47.3001 47.0608 43.8601 45.857 40.1908 45.4193C26.3162 43.7778 12.671 53.6268 10.1483 66.9776C7.62566 80.5473 16.2256 94.1171 30.1002 97.2906C41.9108 99.917 52.5748 98.6038 61.8627 89.4114C75.852 75.7323 88.2359 60.8493 99.5879 45.091C99.8172 44.7627 100.161 44.3249 100.391 43.9966C101.996 41.9174 104.748 41.0419 106.353 42.2457C108.417 43.8872 108.188 45.857 107.041 47.9362C101.881 56.8003 96.6066 65.555 91.4466 74.4191C90.8732 75.404 90.2999 76.3889 90.1853 77.5926C94.0839 73.653 97.8679 69.604 101.881 65.8833C104.06 63.9135 106.468 62.0531 109.105 60.5211C114.953 57.1286 120.572 60.0833 120.686 66.5399C120.801 72.6682 119.769 78.687 117.246 84.3775C115.756 87.6605 114.265 91.0529 112.774 94.3359C113.004 94.4454 113.233 94.5548 113.348 94.6642C115.756 91.819 118.164 88.9737 120.572 86.2379C122.75 83.8303 124.7 81.2039 126.993 78.9058C129.057 76.8266 131.58 75.404 134.676 76.4983C137.657 77.4832 138.345 79.8907 138.574 82.6266C138.804 85.0341 139.148 87.5511 139.492 89.9586C140.065 93.8982 142.588 95.5397 146.601 94.1171C150.385 92.8039 154.054 91.0529 157.838 89.5209C157.953 89.7397 158.182 89.8492 158.297 90.068Z" fill="white"/>
</svg>
