<svg width="19" height="21" viewBox="0 0 19 21" fill="none" xmlns="http://www.w3.org/2000/svg">
<path d="M9.50032 0.0877991C9.97953 0.0877991 10.3756 0.443902 10.4382 0.90592L10.4469 1.03436L10.4461 17.6737L16.4329 11.6624C16.8017 11.292 17.4011 11.2907 17.7715 11.6595C18.1083 11.9949 18.14 12.5206 17.8658 12.8918L17.7744 12.9982L10.1716 20.6338C10.123 20.6826 10.0703 20.725 10.0148 20.761C9.99805 20.7712 9.98094 20.7815 9.96348 20.7914C9.94852 20.8004 9.93298 20.8085 9.91727 20.8162C9.89442 20.8269 9.8708 20.8374 9.84671 20.8468C9.82813 20.8545 9.81006 20.861 9.79185 20.8668C9.76927 20.8738 9.7452 20.8806 9.72077 20.8864C9.70371 20.8907 9.68729 20.8942 9.67081 20.8972C9.64629 20.9014 9.62091 20.905 9.59523 20.9075C9.57565 20.9097 9.55624 20.9111 9.53682 20.9118C9.52504 20.912 9.51271 20.9122 9.50032 20.9122L9.46365 20.9117C9.44508 20.911 9.42651 20.9097 9.408 20.9079L9.50032 20.9122C9.44059 20.9122 9.38215 20.9067 9.32548 20.8961C9.31195 20.8937 9.29806 20.8907 9.28422 20.8875C9.25573 20.8808 9.22829 20.873 9.20139 20.864C9.18802 20.8597 9.17374 20.8545 9.15957 20.8491C9.13109 20.838 9.10393 20.826 9.07749 20.8128C9.06505 20.8066 9.05203 20.7997 9.03915 20.7925C9.01812 20.7807 8.99814 20.7685 8.97867 20.7556C8.96489 20.7465 8.95054 20.7365 8.93642 20.726L8.92551 20.7178C8.89219 20.6923 8.86062 20.6646 8.831 20.635L8.83012 20.6338L1.22605 12.9982C0.857163 12.6278 0.858404 12.0285 1.22882 11.6596C1.56557 11.3242 2.0915 11.2948 2.46149 11.5705L2.56747 11.6624L8.553 17.6712L8.55376 1.03436C8.55376 0.51159 8.97755 0.0877991 9.50032 0.0877991Z" fill="white"/>
</svg>
