<svg width="39" height="39" viewBox="0 0 39 39" fill="none" xmlns="http://www.w3.org/2000/svg">
<path fill-rule="evenodd" clip-rule="evenodd" d="M20.7636 0C22.2116 0 23.6191 0.553352 24.6282 1.51513C25.6353 2.48255 26.1915 3.80947 26.149 5.1552C26.153 5.45823 26.2602 5.80831 26.4544 6.1151C26.7759 6.62328 27.2835 6.98089 27.8861 7.1277C28.4888 7.26698 29.1197 7.19169 29.6557 6.89619C32.2442 5.52034 35.5385 6.34472 37.0168 8.73505L38.2767 10.7659C38.3091 10.8205 38.3374 10.8732 38.3617 10.9278C39.7004 13.2823 38.8066 16.2467 36.3191 17.6C35.9571 17.7938 35.6639 18.0649 35.4617 18.3924C35.1482 18.8987 35.0613 19.5009 35.219 20.0543C35.3808 20.6189 35.7671 21.0876 36.3111 21.3774C37.5386 22.0343 38.4547 23.141 38.8207 24.419C39.1868 25.6951 38.9865 27.0804 38.2727 28.2228L36.9299 30.3045C35.4516 32.6685 32.1572 33.4872 29.595 32.1095C29.2532 31.9269 28.8589 31.8271 28.4665 31.8177H28.4544C27.87 31.8177 27.2693 32.0492 26.8325 32.4539C26.3896 32.8661 26.147 33.4157 26.151 33.9991C26.1369 36.764 23.7202 39 20.7636 39H18.2297C15.2589 39 12.8423 36.7527 12.8423 33.9878C12.8382 33.6472 12.733 33.2933 12.5369 32.9865C12.2194 32.4708 11.7057 32.1019 11.1132 31.9551C10.5247 31.8083 9.87958 31.8892 9.34974 32.1753C8.07974 32.8341 6.58526 32.9941 5.21818 32.6365C3.85313 32.277 2.67413 31.4036 1.9825 30.2461L0.718563 28.2191C-0.759738 25.8325 0.119962 22.774 2.68019 21.3963C3.4062 21.0067 3.85717 20.2801 3.85717 19.5009C3.85717 18.7217 3.4062 17.9933 2.68019 17.6037C0.11794 16.2185 -0.759738 13.1525 0.716541 10.7659L2.08766 8.67106C3.54574 6.31084 6.84209 5.47893 9.41243 6.8529C9.76229 7.04676 10.1425 7.14464 10.5287 7.1484C11.7886 7.1484 12.8423 6.18098 12.8625 4.99146C12.8544 3.6796 13.4105 2.42044 14.4237 1.46996C15.4409 0.521355 16.7918 0 18.2297 0H20.7636ZM20.7636 2.82322H18.2297C17.6027 2.82322 17.0163 3.05096 16.5734 3.46127C16.1325 3.87346 15.8919 4.42117 15.8959 5.00463C15.8535 7.75633 13.4368 9.97162 10.5105 9.97162C9.57219 9.96221 8.66823 9.72694 7.88357 9.29029C6.78142 8.70682 5.34154 9.06631 4.69643 10.1109L3.32733 12.2057C2.70042 13.2183 3.08465 14.5565 4.20096 15.1607C5.85723 16.0528 6.89062 17.7167 6.89062 19.5009C6.89062 21.2852 5.85723 22.9472 4.19692 23.8412C3.08668 24.4397 2.70244 25.7704 3.34553 26.8056L4.6216 28.8533C4.93708 29.3822 5.45277 29.7643 6.04935 29.9205C6.6439 30.0749 7.29913 30.009 7.84515 29.7267C8.648 29.2881 9.5823 29.0604 10.5207 29.0604C10.9838 29.0604 11.4469 29.115 11.8999 29.2279C13.2669 29.5704 14.454 30.4212 15.1578 31.5636C15.6148 32.2807 15.8676 33.1183 15.8757 33.9728C15.8757 35.1962 16.9313 36.1768 18.2297 36.1768H20.7636C22.0559 36.1768 23.1115 35.2018 23.1176 33.9991C23.1095 32.6703 23.6676 31.4074 24.6889 30.4569C25.696 29.5196 27.1035 28.9569 28.511 28.9945C29.4332 29.0152 30.321 29.2467 31.1036 29.6608C32.23 30.2612 33.6679 29.9036 34.3191 28.8684L35.6619 26.7849C35.9612 26.3049 36.0481 25.7026 35.8884 25.1474C35.7306 24.5922 35.3343 24.1103 34.8004 23.8261C33.5506 23.1561 32.6588 22.0757 32.2887 20.7808C31.9227 19.5104 32.1229 18.1232 32.8367 16.9807C33.3019 16.2279 33.9834 15.5936 34.8004 15.1569C35.8965 14.5603 36.2807 13.2259 35.6437 12.1869C35.6174 12.1455 35.5931 12.1022 35.5729 12.057L34.3878 10.1448C33.7427 9.10019 32.3069 8.7407 31.1805 9.33734C29.963 10.0074 28.5151 10.1994 27.1237 9.85869C25.7344 9.52367 24.5696 8.70494 23.8436 7.5493C23.3784 6.82655 23.1257 5.98523 23.1176 5.12885C23.1358 4.48516 22.8931 3.90734 22.4522 3.48386C22.0134 3.06226 21.3966 2.82322 20.7636 2.82322ZM19.5055 13.1263C23.2812 13.1263 26.353 15.9872 26.353 19.5011C26.353 23.0151 23.2812 25.8722 19.5055 25.8722C15.7299 25.8722 12.658 23.0151 12.658 19.5011C12.658 15.9872 15.7299 13.1263 19.5055 13.1263ZM19.5055 15.9495C17.4023 15.9495 15.6915 17.5437 15.6915 19.5011C15.6915 21.4586 17.4023 23.049 19.5055 23.049C21.6087 23.049 23.3196 21.4586 23.3196 19.5011C23.3196 17.5437 21.6087 15.9495 19.5055 15.9495Z" fill="#F22751"/>
</svg>
